OpenSans-Bold.ufo
<glyph name="exclam" format="2">
	<unicode hex="0021"/>
	<advance width="574"/>
	<outline>
		<contour>
			<point x="433.429" y="493.143" type="line"/>
			<point x="477.714" y="1462" type="line"/>
			<point x="99" y="1462" type="line"/>
			<point x="143.286" y="493.143" type="line"/>
		</contour>
		<contour>
			<point x="98.5714" y="149" type="curve" smooth="yes"/>
			<point x="98.5714" y="28.2857"/>
			<point x="182.286" y="-23.7143"/>
			<point x="286.714" y="-23.7143" type="curve" smooth="yes"/>
			<point x="390.571" y="-23.7143"/>
			<point x="472.143" y="28.2857"/>
			<point x="472.143" y="149" type="curve" smooth="yes"/>
			<point x="472.143" y="274.571"/>
			<point x="390.571" y="322.714"/>
			<point x="286.714" y="322.714" type="curve" smooth="yes"/>
			<point x="182.286" y="322.714"/>
			<point x="98.5714" y="274.571"/>
		</contour>
	</outline>
</glyph>
<glyph name="quotedbl" format="2">
	<unicode hex="0022"/>
	<advance width="1013"/>
	<outline>
		<contour>
			<point x="438.429" y="1462" type="line"/>
			<point x="125.143" y="1462" type="line"/>
			<point x="161.429" y="934" type="line"/>
			<point x="402.143" y="934" type="line"/>
		</contour>
		<contour>
			<point x="888.286" y="1462" type="line"/>
			<point x="575" y="1462" type="line"/>
			<point x="611.286" y="934" type="line"/>
			<point x="852" y="934" type="line"/>
		</contour>
	</outline>
</glyph>
<glyph name="numbersign" format="2">
	<unicode hex="0023"/>
	<advance width="1351"/>
	<outline>
		<contour>
			<point x="1029.71" y="832" type="line"/>
			<point x="1311.43" y="832" type="line"/>
			<point x="1311.43" y="1061.86" type="line"/>
			<point x="1072.14" y="1061.86" type="line"/>
			<point x="1147.57" y="1462" type="line"/>
			<point x="910.571" y="1462" type="line"/>
			<point x="835.857" y="1061.86" type="line"/>
			<point x="635.429" y="1061.86" type="line"/>
			<point x="711.714" y="1462" type="line"/>
			<point x="474.714" y="1462" type="line"/>
			<point x="400.143" y="1061.86" type="line"/>
			<point x="108.714" y="1061.86" type="line"/>
			<point x="108.714" y="832" type="line"/>
			<point x="356.857" y="832" type="line"/>
			<point x="318.286" y="626.286" type="line"/>
			<point x="39.8571" y="626.286" type="line"/>
			<point x="39.8571" y="401.571" type="line"/>
			<point x="275.143" y="401.571" type="line"/>
			<point x="200.571" y="0" type="line"/>
			<point x="436.714" y="0" type="line"/>
			<point x="510.571" y="401.571" type="line"/>
			<point x="712.714" y="401.571" type="line"/>
			<point x="637.286" y="0" type="line"/>
			<point x="874.286" y="0" type="line"/>
			<point x="950.571" y="401.571" type="line"/>
			<point x="1245.14" y="401.571" type="line"/>
			<point x="1245.14" y="626.286" type="line"/>
			<point x="992" y="626.286" type="line"/>
		</contour>
		<contour>
			<point x="554.571" y="626.286" type="line"/>
			<point x="592.286" y="832" type="line"/>
			<point x="792.714" y="832" type="line"/>
			<point x="754.143" y="626.286" type="line"/>
		</contour>
	</outline>
</glyph>
<glyph name="dollar" format="2">
	<unicode hex="0024"/>
	<advance width="1180"/>
	<outline>
		<contour>
			<point x="499.143" y="-119" type="line"/>
			<point x="667.286" y="-119" type="line"/>
			<point x="667.286" y="44.8571" type="line"/>
			<point x="966.429" y="75"/>
			<point x="1110.14" y="235.714"/>
			<point x="1110.14" y="458.143" type="curve" smooth="yes"/>
			<point x="1110.14" y="696.571"/>
			<point x="944.429" y="777.714"/>
			<point x="667.286" y="863.429" type="curve"/>
			<point x="667.286" y="1165.57" type="line"/>
			<point x="773.286" y="1156.71"/>
			<point x="886.286" y="1131.71"/>
			<point x="989.286" y="1087.57" type="curve"/>
			<point x="1067.86" y="1329.14" type="line"/>
			<point x="956.857" y="1375"/>
			<point x="825.143" y="1413.43"/>
			<point x="667.286" y="1420.57" type="curve"/>
			<point x="667.286" y="1555.71" type="line"/>
			<point x="499.143" y="1555.71" type="line"/>
			<point x="499.143" y="1418.86" type="line"/>
			<point x="238.714" y="1401.71"/>
			<point x="64.1429" y="1281.29"/>
			<point x="64.1429" y="1038" type="curve" smooth="yes"/>
			<point x="64.1429" y="781.857"/>
			<point x="251.286" y="685.571"/>
			<point x="499.143" y="610.714" type="curve"/>
			<point x="499.143" y="301.714" type="line"/>
			<point x="370.714" y="310.571"/>
			<point x="217.286" y="344.571"/>
			<point x="93.2857" y="398.714" type="curve"/>
			<point x="93.2857" y="122" type="line"/>
			<point x="204.143" y="75.8571"/>
			<point x="322.857" y="45.2857"/>
			<point x="499.143" y="41.4286" type="curve"/>
		</contour>
		<contour>
			<point x="667.286" y="305.143" type="curve"/>
			<point x="667.286" y="567.429" type="line"/>
			<point x="774" y="531.286"/>
			<point x="815.857" y="498.429"/>
			<point x="815.857" y="430.143" type="curve" smooth="yes"/>
			<point x="815.857" y="357.143"/>
			<point x="763.714" y="316.857"/>
		</contour>
		<contour>
			<point x="499.143" y="913.143" type="line"/>
			<point x="404" y="945.714"/>
			<point x="354.857" y="979.571"/>
			<point x="354.857" y="1050.57" type="curve" smooth="yes"/>
			<point x="354.857" y="1118.57"/>
			<point x="409.429" y="1157.43"/>
			<point x="499.143" y="1163.86" type="curve"/>
		</contour>
	</outline>
</glyph>
<glyph name="ampersand" format="2">
	<unicode hex="0026"/>
	<advance width="1608"/>
	<outline>
		<contour>
			<point x="668.429" y="1481.57" type="curve" smooth="yes"/>
			<point x="380" y="1481.57"/>
			<point x="223.286" y="1339.14"/>
			<point x="223.286" y="1139.71" type="curve" smooth="yes"/>
			<point x="223.286" y="1006.29"/>
			<point x="276" y="908.286"/>
			<point x="366.857" y="807.286" type="curve"/>
			<point x="181.714" y="713.714"/>
			<point x="80.1429" y="582.286"/>
			<point x="80.1429" y="400.429" type="curve" smooth="yes"/>
			<point x="80.1429" y="162.429"/>
			<point x="267.571" y="-20"/>
			<point x="598.143" y="-20" type="curve" smooth="yes"/>
			<point x="842.143" y="-20"/>
			<point x="936.714" y="39.4286"/>
			<point x="1049.14" y="118.143" type="curve"/>
			<point x="1162.86" y="0" type="line"/>
			<point x="1606.86" y="0" type="line"/>
			<point x="1298" y="298.857" type="line"/>
			<point x="1397" y="419.571"/>
			<point x="1490.57" y="606"/>
			<point x="1533" y="799.714" type="curve"/>
			<point x="1177.14" y="799.714" type="line"/>
			<point x="1155.29" y="694"/>
			<point x="1113.57" y="597.857"/>
			<point x="1061.71" y="522.143" type="curve"/>
			<point x="820" y="756.429" type="line"/>
			<point x="984.143" y="851.571"/>
			<point x="1096.29" y="968.429"/>
			<point x="1096.29" y="1141.14" type="curve" smooth="yes"/>
			<point x="1096.29" y="1354.86"/>
			<point x="931.571" y="1481.57"/>
		</contour>
		<contour>
			<point x="554.714" y="617.714" type="curve"/>
			<point x="841" y="327.143" type="line"/>
			<point x="796.571" y="286.429"/>
			<point x="727.286" y="253.857"/>
			<point x="629.857" y="253.857" type="curve" smooth="yes"/>
			<point x="512.571" y="253.857"/>
			<point x="433.429" y="321.714"/>
			<point x="433.429" y="424.429" type="curve" smooth="yes"/>
			<point x="433.429" y="507.714"/>
			<point x="472.714" y="565.429"/>
		</contour>
		<contour>
			<point x="663.286" y="1254.86" type="curve" smooth="yes"/>
			<point x="734.857" y="1254.86"/>
			<point x="786.714" y="1218.43"/>
			<point x="786.714" y="1141.14" type="curve" smooth="yes"/>
			<point x="786.714" y="1064"/>
			<point x="733.143" y="995.714"/>
			<point x="638.429" y="945.857" type="curve"/>
			<point x="578.857" y="1002.14"/>
			<point x="532.857" y="1060.14"/>
			<point x="532.857" y="1128.57" type="curve" smooth="yes"/>
			<point x="532.857" y="1214.14"/>
			<point x="590" y="1254.86"/>
		</contour>
	</outline>
</glyph>
<glyph name="parenright" format="2">
	<unicode hex="0029"/>
	<advance width="705"/>
	<outline>
		<contour>
			<point x="630" y="581.429" type="curve" smooth="yes"/>
			<point x="630" y="918"/>
			<point x="550.857" y="1251.86"/>
			<point x="346.714" y="1497.14" type="curve"/>
			<point x="57.7143" y="1497.14" type="line"/>
			<point x="245.857" y="1243"/>
			<point x="326.429" y="908.143"/>
			<point x="326.429" y="582.714" type="curve" smooth="yes"/>
			<point x="326.429" y="261"/>
			<point x="246.429" y="-75.1429"/>
			<point x="59.4286" y="-324" type="curve"/>
			<point x="346.714" y="-324" type="line"/>
			<point x="550.857" y="-86.5714"/>
			<point x="630" y="246.714"/>
		</contour>
	</outline>
</glyph>
<glyph name="asterisk" format="2">
	<unicode hex="002A"/>
	<advance width="1104"/>
	<outline>
		<contour>
			<point x="685.714" y="1555.43" type="line"/>
			<point x="417.714" y="1555.43" type="line"/>
			<point x="453" y="1193.43" type="line"/>
			<point x="97.8571" y="1300.29" type="line"/>
			<point x="56.7143" y="1043" type="line"/>
			<point x="382.857" y="1004.86" type="line"/>
			<point x="169.714" y="718.857" type="line"/>
			<point x="409.714" y="597.571" type="line"/>
			<point x="548.714" y="887.857" type="line"/>
			<point x="705.286" y="595.571" type="line"/>
			<point x="934.857" y="718.857" type="line"/>
			<point x="720.857" y="1004.86" type="line"/>
			<point x="1047.29" y="1039.57" type="line"/>
			<point x="1013.29" y="1300.29" type="line"/>
			<point x="651.286" y="1193.43" type="line"/>
		</contour>
	</outline>
</glyph>
<glyph name="comma" format="2">
	<unicode hex="002C"/>
	<advance width="596"/>
	<outline>
		<contour>
			<point x="462.571" y="290.286" type="line"/>
			<point x="161.286" y="290.286" type="line"/>
			<point x="141.714" y="127.429"/>
			<point x="101.857" y="-93.4286"/>
			<point x="60" y="-282" type="curve"/>
			<point x="305.571" y="-282" type="line"/>
			<point x="371.143" y="-131.571"/>
			<point x="439.286" y="119.286"/>
			<point x="475.429" y="267" type="curve"/>
		</contour>
	</outline>
</glyph>
<glyph name="hyphen" format="2">
	<unicode hex="002D"/>
	<advance width="652"/>
	<outline>
		<contour>
			<point x="48.5714" y="412.571" type="line"/>
			<point x="603.714" y="412.571" type="line"/>
			<point x="603.714" y="687.429" type="line"/>
			<point x="48.5714" y="687.429" type="line"/>
		</contour>
	</outline>
</glyph>
<glyph name="period" format="2">
	<unicode hex="002E"/>
	<advance width="572"/>
	<outline>
		<contour>
			<point x="98.5714" y="149" type="curve" smooth="yes"/>
			<point x="98.5714" y="28.2857"/>
			<point x="182.286" y="-23.7143"/>
			<point x="288.429" y="-23.7143" type="curve" smooth="yes"/>
			<point x="390.571" y="-23.7143"/>
			<point x="472.143" y="28.2857"/>
			<point x="472.143" y="149" type="curve" smooth="yes"/>
			<point x="472.143" y="274.571"/>
			<point x="390.571" y="322.714"/>
			<point x="288.429" y="322.714" type="curve" smooth="yes"/>
			<point x="182.286" y="322.714"/>
			<point x="98.5714" y="274.571"/>
		</contour>
	</outline>
</glyph>
<glyph name="one" format="2">
	<unicode hex="0031"/>
	<advance width="1195"/>
	<outline>
		<contour>
			<point x="901" y="0" type="line"/>
			<point x="901" y="1462" type="line"/>
			<point x="589.143" y="1462" type="line"/>
			<point x="101.857" y="1069.86" type="line"/>
			<point x="282.286" y="847.714" type="line"/>
			<point x="460.571" y="991.857" type="line"/>
			<point x="491.857" y="1018.86"/>
			<point x="520.429" y="1045.71"/>
			<point x="555.143" y="1085" type="curve"/>
			<point x="549.714" y="988"/>
			<point x="549.714" y="834.571"/>
			<point x="549.714" y="784.429" type="curve" smooth="yes"/>
			<point x="549.714" y="0" type="line"/>
		</contour>
	</outline>
</glyph>
<glyph name="two" format="2">
	<unicode hex="0032"/>
	<advance width="1195"/>
	<outline>
		<contour>
			<point x="1105.43" y="0" type="line"/>
			<point x="1105.43" y="286.714" type="line"/>
			<point x="515.571" y="286.714" type="line"/>
			<point x="515.571" y="295.571" type="line"/>
			<point x="668.143" y="442.286" type="line"/>
			<point x="934.714" y="688.143"/>
			<point x="1071.71" y="833.143"/>
			<point x="1071.71" y="1086" type="curve" smooth="yes"/>
			<point x="1071.71" y="1315.29"/>
			<point x="885.714" y="1483"/>
			<point x="597.857" y="1483" type="curve" smooth="yes"/>
			<point x="331.714" y="1483"/>
			<point x="192.143" y="1377.14"/>
			<point x="62" y="1262.14" type="curve"/>
			<point x="252.429" y="1038.57" type="line"/>
			<point x="369.857" y="1139.57"/>
			<point x="463.714" y="1191.14"/>
			<point x="559.286" y="1191.14" type="curve" smooth="yes"/>
			<point x="654.286" y="1191.14"/>
			<point x="727.857" y="1141.86"/>
			<point x="727.857" y="1038.86" type="curve" smooth="yes"/>
			<point x="727.857" y="915.571"/>
			<point x="658.857" y="836.143"/>
			<point x="441.143" y="608.286" type="curve"/>
			<point x="69.5714" y="229.571" type="line"/>
			<point x="69.5714" y="0" type="line"/>
		</contour>
	</outline>
</glyph>
<glyph name="four" format="2">
	<unicode hex="0034"/>
	<advance width="1195"/>
	<outline>
		<contour>
			<point x="1165.86" y="299.286" type="line"/>
			<point x="1165.86" y="559.571" type="line"/>
			<point x="988.571" y="559.571" type="line"/>
			<point x="988.571" y="1463.14" type="line"/>
			<point x="667.571" y="1463.14" type="line"/>
			<point x="37.2857" y="553.143" type="line"/>
			<point x="37.2857" y="299.286" type="line"/>
			<point x="646.714" y="299.286" type="line"/>
			<point x="646.714" y="0" type="line"/>
			<point x="988.571" y="0" type="line"/>
			<point x="988.571" y="299.286" type="line"/>
		</contour>
		<contour>
			<point x="646.714" y="559.571" type="line"/>
			<point x="340.714" y="559.571" type="line"/>
			<point x="560" y="875.143" type="line"/>
			<point x="598" y="932.571"/>
			<point x="615.714" y="964.143"/>
			<point x="644.714" y="1026.14" type="curve"/>
			<point x="654.714" y="1026.14" type="line"/>
			<point x="652.714" y="1006.86"/>
			<point x="646.714" y="871.857"/>
			<point x="646.714" y="794.429" type="curve" smooth="yes"/>
		</contour>
	</outline>
</glyph>
<glyph name="six" format="2">
	<unicode hex="0036"/>
	<advance width="1195"/>
	<outline>
		<contour>
			<point x="79.8571" y="618.429" type="curve" smooth="yes"/>
			<point x="79.8571" y="198.143"/>
			<point x="301.143" y="-20"/>
			<point x="619.714" y="-20" type="curve" smooth="yes"/>
			<point x="933" y="-20"/>
			<point x="1124.71" y="172.571"/>
			<point x="1124.71" y="494.429" type="curve" smooth="yes"/>
			<point x="1124.71" y="792.143"/>
			<point x="970.143" y="964.143"/>
			<point x="712.143" y="964.143" type="curve" smooth="yes"/>
			<point x="544.714" y="964.143"/>
			<point x="454.571" y="882.857"/>
			<point x="403.286" y="784.143" type="curve"/>
			<point x="392.286" y="784.143" type="line"/>
			<point x="404.429" y="1061.43"/>
			<point x="515.429" y="1213.14"/>
			<point x="816.286" y="1213.14" type="curve" smooth="yes"/>
			<point x="912.857" y="1213.14"/>
			<point x="976.714" y="1203.57"/>
			<point x="1030.86" y="1192.43" type="curve"/>
			<point x="1030.86" y="1465.14" type="line"/>
			<point x="975.857" y="1475.29"/>
			<point x="884.571" y="1483.57"/>
			<point x="824" y="1483.57" type="curve" smooth="yes"/>
			<point x="218.429" y="1483.57"/>
			<point x="79.8571" y="1067.57"/>
		</contour>
		<contour>
			<point x="612" y="255.571" type="curve" smooth="yes"/>
			<point x="475.571" y="255.571"/>
			<point x="426.143" y="402.143"/>
			<point x="426.143" y="514.286" type="curve" smooth="yes"/>
			<point x="426.143" y="600.857"/>
			<point x="495.714" y="695.429"/>
			<point x="617" y="695.429" type="curve" smooth="yes"/>
			<point x="735.714" y="695.429"/>
			<point x="788.429" y="616"/>
			<point x="788.429" y="487.571" type="curve" smooth="yes"/>
			<point x="788.429" y="331.286"/>
			<point x="719.429" y="255.571"/>
		</contour>
	</outline>
</glyph>
<glyph name="semicolon" format="2">
	<unicode hex="003B"/>
	<advance width="586"/>
	<outline>
		<contour>
			<point x="462.571" y="290.286" type="line"/>
			<point x="161.286" y="290.286" type="line"/>
			<point x="141.714" y="127.429"/>
			<point x="101.857" y="-93.4286"/>
			<point x="60" y="-282" type="curve"/>
			<point x="305.571" y="-282" type="line"/>
			<point x="371.143" y="-131.571"/>
			<point x="439.286" y="119.286"/>
			<point x="475.429" y="267" type="curve"/>
		</contour>
		<contour>
			<point x="103.714" y="966" type="curve" smooth="yes"/>
			<point x="103.714" y="843.571"/>
			<point x="185.714" y="792.429"/>
			<point x="291.857" y="792.429" type="curve" smooth="yes"/>
			<point x="394" y="792.429"/>
			<point x="477.286" y="843.571"/>
			<point x="477.286" y="966" type="curve" smooth="yes"/>
			<point x="477.286" y="1090.71"/>
			<point x="394" y="1138.86"/>
			<point x="291.857" y="1138.86" type="curve" smooth="yes"/>
			<point x="185.714" y="1138.86"/>
			<point x="103.714" y="1090.71"/>
		</contour>
	</outline>
</glyph>
<glyph name="less" format="2">
	<unicode hex="003C"/>
	<advance width="1195"/>
	<outline>
		<contour>
			<point x="1096.71" y="193" type="line"/>
			<point x="1096.71" y="453.429" type="line"/>
			<point x="440.571" y="727.286" type="line"/>
			<point x="1096.71" y="1027.86" type="line"/>
			<point x="1096.71" y="1290" type="line"/>
			<point x="95.2857" y="793.429" type="line"/>
			<point x="95.2857" y="640.714" type="line"/>
		</contour>
	</outline>
</glyph>
<glyph name="equal" format="2">
	<unicode hex="003D"/>
	<advance width="1195"/>
	<outline>
		<contour>
			<point x="95" y="828.143" type="line"/>
			<point x="1100.43" y="828.143" type="line"/>
			<point x="1100.43" y="1064.86" type="line"/>
			<point x="95" y="1064.86" type="line"/>
		</contour>
		<contour>
			<point x="95" y="376.714" type="line"/>
			<point x="1100.43" y="376.714" type="line"/>
			<point x="1100.43" y="616.143" type="line"/>
			<point x="95" y="616.143" type="line"/>
		</contour>
	</outline>
</glyph>
<glyph name="question" format="2">
	<unicode hex="003F"/>
	<advance width="1007"/>
	<outline>
		<contour>
			<point x="295" y="493.143" type="line"/>
			<point x="565.429" y="493.143" type="line"/>
			<point x="565.429" y="540.429" type="line" smooth="yes"/>
			<point x="565.429" y="621.857"/>
			<point x="603.286" y="661"/>
			<point x="722.286" y="737.571" type="curve" smooth="yes"/>
			<point x="891" y="847"/>
			<point x="964" y="956.571"/>
			<point x="964" y="1120.43" type="curve" smooth="yes"/>
			<point x="964" y="1341.43"/>
			<point x="793.143" y="1483"/>
			<point x="500.714" y="1483" type="curve" smooth="yes"/>
			<point x="312.571" y="1483"/>
			<point x="156.714" y="1432.29"/>
			<point x="11.1429" y="1351.57" type="curve"/>
			<point x="133.143" y="1110.86" type="line"/>
			<point x="261.286" y="1177.86"/>
			<point x="375.857" y="1212.57"/>
			<point x="476.714" y="1212.57" type="curve" smooth="yes"/>
			<point x="573.286" y="1212.57"/>
			<point x="640.714" y="1169.29"/>
			<point x="640.714" y="1092.14" type="curve" smooth="yes"/>
			<point x="640.714" y="1018.29"/>
			<point x="612.571" y="967.714"/>
			<point x="475.857" y="879.143" type="curve" smooth="yes"/>
			<point x="333.143" y="787.571"/>
			<point x="295" y="704.857"/>
			<point x="295" y="570.429" type="curve" smooth="yes"/>
		</contour>
		<contour>
			<point x="254.857" y="149" type="curve" smooth="yes"/>
			<point x="254.857" y="28.2857"/>
			<point x="337" y="-23.7143"/>
			<point x="443.143" y="-23.7143" type="curve" smooth="yes"/>
			<point x="546.143" y="-23.7143"/>
			<point x="628.429" y="28.2857"/>
			<point x="628.429" y="149" type="curve" smooth="yes"/>
			<point x="628.429" y="274.571"/>
			<point x="546.143" y="322.714"/>
			<point x="443.143" y="322.714" type="curve" smooth="yes"/>
			<point x="337" y="322.714"/>
			<point x="254.857" y="274.571"/>
		</contour>
	</outline>
</glyph>
<glyph name="at" format="2">
	<unicode hex="0040"/>
	<advance width="1831"/>
	<outline>
		<contour>
			<point x="1746" y="750.714" type="curve" smooth="yes"/>
			<point x="1746" y="1198.43"/>
			<point x="1437.86" y="1476"/>
			<point x="967.143" y="1476" type="curve" smooth="yes"/>
			<point x="431.857" y="1476"/>
			<point x="85.4286" y="1107.29"/>
			<point x="85.4286" y="606" type="curve" smooth="yes"/>
			<point x="85.4286" y="131.714"/>
			<point x="389" y="-161.286"/>
			<point x="903.714" y="-161.286" type="curve" smooth="yes"/>
			<point x="1082.86" y="-161.286"/>
			<point x="1253.57" y="-127.143"/>
			<point x="1391.43" y="-68.7143" type="curve"/>
			<point x="1391.43" y="135.714" type="line"/>
			<point x="1232" y="77.2857"/>
			<point x="1041.57" y="41.4286"/>
			<point x="891.714" y="41.4286" type="curve" smooth="yes"/>
			<point x="520" y="41.4286"/>
			<point x="326.571" y="260.714"/>
			<point x="326.571" y="602.571" type="curve" smooth="yes"/>
			<point x="326.571" y="1002"/>
			<point x="556.286" y="1276.71"/>
			<point x="970.571" y="1276.71" type="curve" smooth="yes"/>
			<point x="1328.71" y="1276.71"/>
			<point x="1511.71" y="1071.71"/>
			<point x="1511.71" y="752.429" type="curve" smooth="yes"/>
			<point x="1511.71" y="572.714"/>
			<point x="1463.14" y="425.143"/>
			<point x="1373.71" y="425.143" type="curve" smooth="yes"/>
			<point x="1331.86" y="425.143"/>
			<point x="1307.43" y="456.286"/>
			<point x="1307.43" y="532.286" type="curve" smooth="yes"/>
			<point x="1307.43" y="573"/>
			<point x="1310" y="620.714"/>
			<point x="1310.29" y="640.571" type="curve"/>
			<point x="1330.43" y="1044.71" type="line"/>
			<point x="1245.57" y="1074.29"/>
			<point x="1115" y="1102.86"/>
			<point x="987" y="1102.86" type="curve" smooth="yes"/>
			<point x="663.857" y="1102.86"/>
			<point x="486" y="899.714"/>
			<point x="486" y="630.857" type="curve" smooth="yes"/>
			<point x="486" y="388"/>
			<point x="609.286" y="231"/>
			<point x="855.714" y="231" type="curve" smooth="yes"/>
			<point x="971.286" y="231"/>
			<point x="1062.57" y="284.429"/>
			<point x="1123.57" y="363.714" type="curve"/>
			<point x="1136.71" y="363.714" type="line"/>
			<point x="1181" y="277"/>
			<point x="1273.86" y="231"/>
			<point x="1375.43" y="231" type="curve" smooth="yes"/>
			<point x="1617.29" y="231"/>
			<point x="1746" y="491.143"/>
		</contour>
		<contour>
			<point x="734.857" y="632.571" type="curve" smooth="yes"/>
			<point x="734.857" y="785.286"/>
			<point x="817.857" y="907.857"/>
			<point x="990.429" y="907.857" type="curve" smooth="yes"/>
			<point x="1023.86" y="907.857"/>
			<point x="1046.86" y="904.714"/>
			<point x="1078.43" y="898.286" type="curve"/>
			<point x="1067.57" y="720.714" type="line" smooth="yes"/>
			<point x="1054.43" y="511.286"/>
			<point x="1005.43" y="425.143"/>
			<point x="885.714" y="425.143" type="curve" smooth="yes"/>
			<point x="792.286" y="425.143"/>
			<point x="734.857" y="490.429"/>
		</contour>
	</outline>
</glyph>
<glyph name="A" format="2">
	<unicode hex="0041"/>
	<advance width="1443"/>
	<outline>
		<contour>
			<point x="1064.86" y="0" type="line"/>
			<point x="1443.43" y="0" type="line"/>
			<point x="950.429" y="1467.71" type="line"/>
			<point x="491.429" y="1467.71" type="line"/>
			<point x="0" y="0" type="line"/>
			<point x="380.143" y="0" type="line"/>
			<point x="474.857" y="314.143" type="line"/>
			<point x="972.714" y="314.143" type="line"/>
		</contour>
		<contour>
			<point x="899.571" y="599.143" type="line"/>
			<point x="547.857" y="599.143" type="line"/>
			<point x="635.714" y="891.714" type="line"/>
			<point x="660.143" y="982"/>
			<point x="704.286" y="1155.86"/>
			<point x="722.571" y="1251.29" type="curve"/>
			<point x="742.714" y="1153.86"/>
			<point x="793" y="964.857"/>
			<point x="813.429" y="892.143" type="curve"/>
		</contour>
	</outline>
	<anchor name="bottom" x="721.429" y="0"/>
	<anchor name="top" x="721.429" y="1462"/>
	<anchor name="topright" x="1279.86" y="1462"/>
</glyph>
<glyph name="B" format="2">
	<unicode hex="0042"/>
	<advance width="1362"/>
	<outline>
		<contour>
			<point x="165.571" y="1462" type="line"/>
			<point x="165.571" y="0" type="line"/>
			<point x="711.857" y="0" type="line" smooth="yes"/>
			<point x="1049.43" y="0"/>
			<point x="1263.57" y="155.286"/>
			<point x="1263.57" y="426.286" type="curve" smooth="yes"/>
			<point x="1263.57" y="653.143"/>
			<point x="1132.43" y="734.429"/>
			<point x="995.857" y="766.286" type="curve"/>
			<point x="995.857" y="775.429" type="line"/>
			<point x="1116.29" y="803.286"/>
			<point x="1233.43" y="910.571"/>
			<point x="1233.43" y="1099.71" type="curve" smooth="yes"/>
			<point x="1233.43" y="1334.86"/>
			<point x="1071.57" y="1462"/>
			<point x="658.571" y="1462" type="curve" smooth="yes"/>
		</contour>
		<contour>
			<point x="511.714" y="885.857" type="line"/>
			<point x="511.714" y="1198.43" type="line"/>
			<point x="654.286" y="1198.43" type="line" smooth="yes"/>
			<point x="808.429" y="1198.43"/>
			<point x="878.429" y="1149"/>
			<point x="878.429" y="1049.71" type="curve" smooth="yes"/>
			<point x="878.429" y="954.143"/>
			<point x="818.143" y="885.857"/>
			<point x="664.714" y="885.857" type="curve" smooth="yes"/>
		</contour>
		<contour>
			<point x="511.714" y="630.714" type="line"/>
			<point x="674" y="630.714" type="line" smooth="yes"/>
			<point x="841.857" y="630.714"/>
			<point x="906.714" y="557.143"/>
			<point x="906.714" y="454.286" type="curve" smooth="yes"/>
			<point x="906.714" y="341.143"/>
			<point x="841.286" y="268.714"/>
			<point x="684.143" y="268.714" type="curve" smooth="yes"/>
			<point x="511.714" y="268.714" type="line"/>
		</contour>
	</outline>
	<anchor name="bottom" x="686.429" y="0"/>
	<anchor name="top" x="684.714" y="1462"/>
	<anchor name="topright" x="1321.14" y="1462"/>
</glyph>
<glyph name="G" format="2">
	<unicode hex="0047"/>
	<advance width="1510"/>
	<outline>
		<contour>
			<point x="746" y="836.143" type="line"/>
			<point x="746" y="567.429" type="line"/>
			<point x="1041.57" y="567.429" type="line"/>
			<point x="1041.57" y="290.571" type="line"/>
			<point x="996.429" y="276.429"/>
			<point x="908.857" y="265.857"/>
			<point x="846" y="265.857" type="curve" smooth="yes"/>
			<point x="605" y="265.857"/>
			<point x="465.143" y="421.571"/>
			<point x="465.143" y="725.571" type="curve" smooth="yes"/>
			<point x="465.143" y="987.571"/>
			<point x="587.714" y="1198.57"/>
			<point x="872.857" y="1198.57" type="curve" smooth="yes"/>
			<point x="1003" y="1198.57"/>
			<point x="1117.71" y="1173"/>
			<point x="1227.71" y="1118.86" type="curve"/>
			<point x="1338.29" y="1391.86" type="line"/>
			<point x="1216.14" y="1446.29"/>
			<point x="1050.57" y="1483.57"/>
			<point x="871.429" y="1483.57" type="curve" smooth="yes"/>
			<point x="378" y="1483.57"/>
			<point x="107.571" y="1189"/>
			<point x="107.571" y="733.857" type="curve" smooth="yes"/>
			<point x="107.571" y="226.571"/>
			<point x="387.857" y="-20"/>
			<point x="817.143" y="-20" type="curve" smooth="yes"/>
			<point x="1022.86" y="-20"/>
			<point x="1218.29" y="15.1429"/>
			<point x="1366.43" y="68.8571" type="curve"/>
			<point x="1366.43" y="836.143" type="line"/>
		</contour>
	</outline>
	<anchor name="bottom" x="783.857" y="0"/>
	<anchor name="top" x="823.714" y="1462"/>
	<anchor name="topright" x="1469.14" y="1462"/>
</glyph>
<glyph name="I" format="2">
	<unicode hex="0049"/>
	<advance width="679"/>
	<outline>
		<contour>
			<point x="165.571" y="0" type="line"/>
			<point x="513.429" y="0" type="line"/>
			<point x="513.429" y="1462" type="line"/>
			<point x="165.571" y="1462" type="line"/>
		</contour>
	</outline>
	<anchor name="bottom" x="339.143" y="0"/>
	<anchor name="top" x="339.143" y="1462"/>
	<anchor name="topright" x="629.857" y="1462"/>
</glyph>
<glyph name="K" format="2">
	<unicode hex="004B"/>
	<advance width="1369"/>
	<outline>
		<contour>
			<point x="1369.29" y="0" type="line"/>
			<point x="892" y="813.714" type="line"/>
			<point x="1374.29" y="1462" type="line"/>
			<point x="993" y="1462" type="line"/>
			<point x="631.857" y="979.143" type="line" smooth="yes"/>
			<point x="591.429" y="924.143"/>
			<point x="546.143" y="863.429"/>
			<point x="513.429" y="803.714" type="curve"/>
			<point x="513.429" y="1462" type="line"/>
			<point x="165.571" y="1462" type="line"/>
			<point x="165.571" y="0" type="line"/>
			<point x="513.429" y="0" type="line"/>
			<point x="513.429" y="504.857" type="line"/>
			<point x="644.429" y="595.571" type="line"/>
			<point x="977" y="0" type="line"/>
		</contour>
	</outline>
	<anchor name="bottom" x="713.286" y="0"/>
	<anchor name="top" x="720.143" y="1462"/>
	<anchor name="topright" x="1328.29" y="1462"/>
</glyph>
<glyph name="M" format="2">
	<unicode hex="004D"/>
	<advance width="1942"/>
	<outline>
		<contour>
			<point x="800.857" y="0" type="line"/>
			<point x="1129" y="0" type="line"/>
			<point x="1463.14" y="1099.29" type="line"/>
			<point x="1471.43" y="1099.29" type="line"/>
			<point x="1465.14" y="1019.29"/>
			<point x="1458.29" y="848.857"/>
			<point x="1458.29" y="725.571" type="curve" smooth="yes"/>
			<point x="1458.29" y="0" type="line"/>
			<point x="1777" y="0" type="line"/>
			<point x="1777" y="1462" type="line"/>
			<point x="1313.57" y="1462" type="line"/>
			<point x="977.429" y="377.429" type="line"/>
			<point x="969.714" y="377.429" type="line"/>
			<point x="628.714" y="1462" type="line"/>
			<point x="165.571" y="1462" type="line"/>
			<point x="165.571" y="0" type="line"/>
			<point x="473.143" y="0" type="line"/>
			<point x="473.143" y="718.714" type="line" smooth="yes"/>
			<point x="473.143" y="855.143"/>
			<point x="461.143" y="1021.29"/>
			<point x="454.857" y="1101.29" type="curve"/>
			<point x="463.143" y="1101.29" type="line"/>
		</contour>
	</outline>
	<anchor name="bottom" x="966.857" y="0"/>
	<anchor name="top" x="977.143" y="1462"/>
	<anchor name="topright" x="1901" y="1462"/>
</glyph>
<glyph name="P" format="2">
	<unicode hex="0050"/>
	<advance width="1277"/>
	<outline>
		<contour>
			<point x="648.143" y="1462" type="curve" smooth="yes"/>
			<point x="165.571" y="1462" type="line"/>
			<point x="165.571" y="0" type="line"/>
			<point x="511.714" y="0" type="line"/>
			<point x="511.714" y="505" type="line"/>
			<point x="644" y="505" type="line" smooth="yes"/>
			<point x="1046" y="505"/>
			<point x="1195.86" y="733"/>
			<point x="1195.86" y="1006.43" type="curve" smooth="yes"/>
			<point x="1195.86" y="1301.71"/>
			<point x="1011.86" y="1462"/>
		</contour>
		<contour>
			<point x="639.286" y="1181.29" type="line" smooth="yes"/>
			<point x="782.286" y="1181.29"/>
			<point x="848.429" y="1111.86"/>
			<point x="848.429" y="997.571" type="curve" smooth="yes"/>
			<point x="848.429" y="840.857"/>
			<point x="743.571" y="788.286"/>
			<point x="615.143" y="788.286" type="curve" smooth="yes"/>
			<point x="511.714" y="788.286" type="line"/>
			<point x="511.714" y="1181.29" type="line"/>
		</contour>
	</outline>
	<anchor name="bottom" x="638.571" y="0"/>
	<anchor name="top" x="654.857" y="1462"/>
	<anchor name="topright" x="1235.86" y="1462"/>
</glyph>
<glyph name="Q" format="2">
	<unicode hex="0051"/>
	<advance width="1619"/>
	<outline>
		<contour>
			<point x="1509.86" y="733" type="curve" smooth="yes"/>
			<point x="1509.86" y="1190.86"/>
			<point x="1298.29" y="1485"/>
			<point x="812" y="1485" type="curve" smooth="yes"/>
			<point x="329.429" y="1485"/>
			<point x="107.571" y="1188"/>
			<point x="107.571" y="735" type="curve" smooth="yes"/>
			<point x="107.571" y="281"/>
			<point x="326.857" y="-20"/>
			<point x="808.571" y="-20" type="curve" smooth="yes"/>
			<point x="814.143" y="-20"/>
			<point x="826.143" y="-19.7143"/>
			<point x="831.429" y="-19.4286" type="curve"/>
			<point x="1082" y="-348" type="line"/>
			<point x="1514.29" y="-348" type="line"/>
			<point x="1166.71" y="52.8571" type="line"/>
			<point x="1407" y="166.143"/>
			<point x="1509.86" y="416"/>
		</contour>
		<contour>
			<point x="472" y="733.286" type="curve" smooth="yes"/>
			<point x="472" y="1017.29"/>
			<point x="570.429" y="1200"/>
			<point x="812" y="1200" type="curve" smooth="yes"/>
			<point x="1049" y="1200"/>
			<point x="1145.43" y="1022.86"/>
			<point x="1145.43" y="733" type="curve" smooth="yes"/>
			<point x="1145.43" y="447.571"/>
			<point x="1052.29" y="269.286"/>
			<point x="808.857" y="269.286" type="curve" smooth="yes"/>
			<point x="571" y="269.286"/>
			<point x="472" y="448.571"/>
		</contour>
	</outline>
	<anchor name="bottom" x="810.571" y="-348"/>
	<anchor name="top" x="810.571" y="1462"/>
	<anchor name="topright" x="1578.43" y="1462"/>
</glyph>
<glyph name="S" format="2">
	<unicode hex="0053"/>
	<advance width="1172"/>
	<outline>
		<contour>
			<point x="1097.86" y="433.286" type="curve" smooth="yes"/>
			<point x="1097.86" y="663.143"/>
			<point x="967.571" y="763.143"/>
			<point x="747.857" y="857.143" type="curve"/>
			<point x="531.714" y="951.429"/>
			<point x="448.286" y="988.429"/>
			<point x="448.286" y="1079.43" type="curve" smooth="yes"/>
			<point x="448.286" y="1156.14"/>
			<point x="513.857" y="1204.86"/>
			<point x="632.286" y="1204.86" type="curve" smooth="yes"/>
			<point x="736.857" y="1204.86"/>
			<point x="860.429" y="1170.71"/>
			<point x="985.714" y="1114" type="curve"/>
			<point x="1092.71" y="1382.14" type="line"/>
			<point x="971.714" y="1436"/>
			<point x="825.286" y="1483"/>
			<point x="643.143" y="1483" type="curve" smooth="yes"/>
			<point x="326" y="1483"/>
			<point x="104.429" y="1340.29"/>
			<point x="104.429" y="1063.43" type="curve" smooth="yes"/>
			<point x="104.429" y="812.571"/>
			<point x="247" y="715.571"/>
			<point x="467" y="619" type="curve"/>
			<point x="665.857" y="533.857"/>
			<point x="751.429" y="497.571"/>
			<point x="751.429" y="404.429" type="curve" smooth="yes"/>
			<point x="751.429" y="315.571"/>
			<point x="677.714" y="262.429"/>
			<point x="544.286" y="262.429" type="curve" smooth="yes"/>
			<point x="408.286" y="262.429"/>
			<point x="244.429" y="303.286"/>
			<point x="93.5714" y="377.429" type="curve"/>
			<point x="93.5714" y="67.2857" type="line"/>
			<point x="226.714" y="6.57143"/>
			<point x="337.714" y="-20"/>
			<point x="536.857" y="-20" type="curve" smooth="yes"/>
			<point x="916.857" y="-20"/>
			<point x="1097.86" y="190.571"/>
		</contour>
	</outline>
	<anchor name="bottom" x="587" y="0"/>
	<anchor name="top" x="587" y="1462"/>
	<anchor name="topright" x="1131" y="1462"/>
</glyph>
<glyph name="V" format="2">
	<unicode hex="0056"/>
	<advance width="1383"/>
	<outline>
		<contour>
			<point x="1382.71" y="1462" type="line"/>
			<point x="995.714" y="1462" type="line"/>
			<point x="758.714" y="656.429" type="line" smooth="yes"/>
			<point x="733.286" y="571.286"/>
			<point x="701.714" y="413"/>
			<point x="692" y="334" type="curve"/>
			<point x="683.857" y="413"/>
			<point x="644.571" y="576.714"/>
			<point x="622.571" y="659.857" type="curve"/>
			<point x="388.714" y="1462" type="line"/>
			<point x="0" y="1462" type="line"/>
			<point x="487.571" y="0" type="line"/>
			<point x="893.429" y="0" type="line"/>
		</contour>
	</outline>
	<anchor name="bottom" x="684.286" y="0"/>
	<anchor name="top" x="692" y="1462"/>
	<anchor name="topright" x="1341.71" y="1462"/>
</glyph>
<glyph name="X" format="2">
	<unicode hex="0058"/>
	<advance width="1418"/>
	<outline>
		<contour>
			<point x="1414.14" y="0" type="line"/>
			<point x="917.571" y="722.857" type="line"/>
			<point x="1378.86" y="1462" type="line"/>
			<point x="983.143" y="1462" type="line"/>
			<point x="705.143" y="979.857" type="line"/>
			<point x="419.286" y="1462" type="line"/>
			<point x="34.7143" y="1462" type="line"/>
			<point x="489" y="749.429" type="line"/>
			<point x="2.57143" y="0" type="line"/>
			<point x="394.714" y="0" type="line"/>
			<point x="703.143" y="494.143" type="line"/>
			<point x="1013.29" y="0" type="line"/>
		</contour>
	</outline>
	<anchor name="bottom" x="709.714" y="0"/>
	<anchor name="top" x="699.429" y="1462"/>
	<anchor name="topright" x="1377.29" y="1462"/>
</glyph>
<glyph name="Z" format="2">
	<unicode hex="005A"/>
	<advance width="1241"/>
	<outline>
		<contour>
			<point x="1186" y="0" type="line"/>
			<point x="1186" y="280.714" type="line"/>
			<point x="493.714" y="280.714" type="line"/>
			<point x="1168.71" y="1248.43" type="line"/>
			<point x="1168.71" y="1462" type="line"/>
			<point x="83.8571" y="1462" type="line"/>
			<point x="83.8571" y="1181.29" type="line"/>
			<point x="737.857" y="1181.29" type="line"/>
			<point x="62.8571" y="214.429" type="line"/>
			<point x="62.8571" y="0" type="line"/>
		</contour>
	</outline>
	<anchor name="bottom" x="639.143" y="0"/>
	<anchor name="top" x="637.429" y="1462"/>
	<anchor name="topright" x="1200.43" y="1462"/>
</glyph>
<glyph name="bracketleft" format="2">
	<unicode hex="005B"/>
	<advance width="661"/>
	<outline>
		<contour>
			<point x="612.286" y="-341.143" type="line"/>
			<point x="612.286" y="-116" type="line"/>
			<point x="405" y="-116" type="line"/>
			<point x="405" y="1272.14" type="line"/>
			<point x="612.286" y="1272.14" type="line"/>
			<point x="612.286" y="1497.14" type="line"/>
			<point x="126" y="1497.14" type="line"/>
			<point x="126" y="-341.143" type="line"/>
		</contour>
	</outline>
</glyph>
<glyph name="asciicircum" format="2">
	<unicode hex="005E"/>
	<advance width="1088"/>
	<outline>
		<contour>
			<point x="-0.285714" y="511.571" type="line"/>
			<point x="253.429" y="511.571" type="line"/>
			<point x="529.429" y="1125.57" type="line"/>
			<point x="836.571" y="511.571" type="line"/>
			<point x="1097.86" y="511.571" type="line"/>
			<point x="598.429" y="1468.71" type="line"/>
			<point x="446" y="1468.71" type="line"/>
		</contour>
	</outline>
</glyph>
<glyph name="e" format="2">
	<unicode hex="0065"/>
	<advance width="1243"/>
	<outline>
		<contour>
			<point x="636.857" y="1145.71" type="curve" smooth="yes"/>
			<point x="305.429" y="1145.71"/>
			<point x="91" y="948.286"/>
			<point x="91" y="554.857" type="curve" smooth="yes"/>
			<point x="91" y="164.143"/>
			<point x="329.429" y="-20"/>
			<point x="671.143" y="-20" type="curve" smooth="yes"/>
			<point x="858.714" y="-20"/>
			<point x="974" y="5.14286"/>
			<point x="1082.29" y="60.7143" type="curve"/>
			<point x="1082.29" y="309.429" type="line"/>
			<point x="957" y="250.714"/>
			<point x="851" y="225.571"/>
			<point x="711.429" y="225.571" type="curve" smooth="yes"/>
			<point x="534.286" y="225.571"/>
			<point x="442" y="323.857"/>
			<point x="437.429" y="473" type="curve"/>
			<point x="1151.57" y="473" type="line"/>
			<point x="1151.57" y="629.429" type="line" smooth="yes"/>
			<point x="1151.57" y="966.714"/>
			<point x="959.143" y="1145.71"/>
		</contour>
		<contour>
			<point x="648.857" y="910.429" type="curve" smooth="yes"/>
			<point x="773.286" y="910.429"/>
			<point x="838" y="815.429"/>
			<point x="839.429" y="691.143" type="curve"/>
			<point x="444.571" y="691.143" type="line"/>
			<point x="457.571" y="839.857"/>
			<point x="537.143" y="910.429"/>
		</contour>
	</outline>
	<anchor name="bottom" x="663.571" y="0"/>
	<anchor name="top" x="621.571" y="1125.57"/>
	<anchor name="topright" x="1202.14" y="1125.57"/>
</glyph>
<glyph name="h" format="2">
	<unicode hex="0068"/>
	<advance width="1344"/>
	<outline>
		<contour>
			<point x="484.857" y="1556" type="line"/>
			<point x="142" y="1556" type="line"/>
			<point x="142" y="0" type="line"/>
			<point x="484.857" y="0" type="line"/>
			<point x="484.857" y="515.143" type="line" smooth="yes"/>
			<point x="484.857" y="748.429"/>
			<point x="546.143" y="875.286"/>
			<point x="701.571" y="875.286" type="curve" smooth="yes"/>
			<point x="808.714" y="875.286"/>
			<point x="862.286" y="793.429"/>
			<point x="862.286" y="630.714" type="curve" smooth="yes"/>
			<point x="862.286" y="0" type="line"/>
			<point x="1206.71" y="0" type="line"/>
			<point x="1206.71" y="733" type="line" smooth="yes"/>
			<point x="1206.71" y="1022.43"/>
			<point x="1034.86" y="1145.71"/>
			<point x="810.429" y="1145.71" type="curve" smooth="yes"/>
			<point x="661.857" y="1145.71"/>
			<point x="556.143" y="1091.86"/>
			<point x="486.571" y="973.143" type="curve"/>
			<point x="470.429" y="973.143" type="line"/>
			<point x="476" y="1033"/>
			<point x="484.857" y="1136.57"/>
			<point x="484.857" y="1289.43" type="curve" smooth="yes"/>
		</contour>
	</outline>
	<anchor name="bottom" x="680.571" y="0"/>
	<anchor name="center" x="672" y="563.286"/>
	<anchor name="top" x="318.143" y="1556"/>
	<anchor name="topright" x="1220.43" y="1556"/>
</glyph>
<glyph name="i" format="2">
	<unicode hex="0069"/>
	<advance width="631"/>
	<outline>
		<contour>
			<point x="486.571" y="1125.57" type="line"/>
			<point x="143.714" y="1125.57" type="line"/>
			<point x="143.714" y="0" type="line"/>
			<point x="486.571" y="0" type="line"/>
		</contour>
		<contour>
			<point x="316.429" y="1573" type="curve" smooth="yes"/>
			<point x="212" y="1573"/>
			<point x="131.714" y="1538.57"/>
			<point x="131.714" y="1414.71" type="curve" smooth="yes"/>
			<point x="131.714" y="1294"/>
			<point x="212" y="1258.29"/>
			<point x="316.429" y="1258.29" type="curve" smooth="yes"/>
			<point x="419.429" y="1258.29"/>
			<point x="503.429" y="1294"/>
			<point x="503.429" y="1414.71" type="curve" smooth="yes"/>
			<point x="503.429" y="1538.57"/>
			<point x="419.429" y="1573"/>
		</contour>
	</outline>
	<anchor name="bottom" x="321.857" y="0"/>
	<anchor name="top" x="316.714" y="1573"/>
	<anchor name="topright" x="590.429" y="1573"/>
</glyph>
<glyph name="j" format="2">
	<unicode hex="006A"/>
	<advance width="630"/>
	<outline>
		<contour>
			<point x="94.1429" y="-492" type="curve" smooth="yes"/>
			<point x="378.143" y="-492"/>
			<point x="484.857" y="-313.429"/>
			<point x="484.857" y="-114" type="curve" smooth="yes"/>
			<point x="484.857" y="1125.57" type="line"/>
			<point x="142" y="1125.57" type="line"/>
			<point x="142" y="-42.5714" type="line" smooth="yes"/>
			<point x="142" y="-178.143"/>
			<point x="87.2857" y="-217.143"/>
			<point x="17" y="-217.143" type="curve" smooth="yes"/>
			<point x="-27.4286" y="-217.143"/>
			<point x="-61" y="-211.429"/>
			<point x="-103.714" y="-198.571" type="curve"/>
			<point x="-103.714" y="-467.571" type="line"/>
			<point x="-53.7143" y="-481.286"/>
			<point x="32.7143" y="-492"/>
		</contour>
		<contour>
			<point x="130" y="1414.71" type="curve" smooth="yes"/>
			<point x="130" y="1294"/>
			<point x="210.286" y="1258.29"/>
			<point x="314.714" y="1258.29" type="curve" smooth="yes"/>
			<point x="417.714" y="1258.29"/>
			<point x="501.714" y="1294"/>
			<point x="501.714" y="1414.71" type="curve" smooth="yes"/>
			<point x="501.714" y="1538.57"/>
			<point x="417.714" y="1573"/>
			<point x="314.714" y="1573" type="curve" smooth="yes"/>
			<point x="210.286" y="1573"/>
			<point x="130" y="1538.57"/>
		</contour>
	</outline>
	<anchor name="bottom" x="94.1429" y="-492"/>
	<anchor name="top" x="315" y="1573"/>
	<anchor name="topright" x="590.429" y="1573"/>
</glyph>
<glyph name="k" format="2">
	<unicode hex="006B"/>
	<advance width="1290"/>
	<outline>
		<contour>
			<point x="486.571" y="1556" type="line"/>
			<point x="142" y="1556" type="line"/>
			<point x="142" y="0" type="line"/>
			<point x="486.571" y="0" type="line"/>
			<point x="486.571" y="315.143" type="line"/>
			<point x="624.571" y="430.857" type="line"/>
			<point x="899.286" y="0" type="line"/>
			<point x="1291.43" y="0" type="line"/>
			<point x="867.286" y="646" type="line"/>
			<point x="1264.14" y="1125.57" type="line"/>
			<point x="880.429" y="1125.57" type="line"/>
			<point x="594.571" y="775.286" type="line" smooth="yes"/>
			<point x="556.429" y="728"/>
			<point x="507.286" y="653.286"/>
			<point x="473.857" y="605.429" type="curve"/>
			<point x="467.429" y="605.429" type="line"/>
			<point x="479.714" y="703"/>
			<point x="486.571" y="824.143"/>
			<point x="486.571" y="921.714" type="curve" smooth="yes"/>
		</contour>
	</outline>
	<anchor name="bottom" x="645.857" y="0"/>
	<anchor name="top" x="316.714" y="1556"/>
	<anchor name="topright" x="1284.14" y="1556"/>
</glyph>
<glyph name="l" format="2">
	<unicode hex="006C"/>
	<advance width="628"/>
	<outline>
		<contour>
			<point x="485.143" y="0" type="line"/>
			<point x="485.143" y="1556" type="line"/>
			<point x="142.286" y="1556" type="line"/>
			<point x="142.286" y="0" type="line"/>
		</contour>
	</outline>
	<anchor name="bottom" x="315" y="0"/>
	<anchor name="center" x="315" y="563.286"/>
	<anchor name="top" x="315" y="1556"/>
	<anchor name="topright" x="542.429" y="1556"/>
</glyph>
<glyph name="v" format="2">
	<unicode hex="0076"/>
	<advance width="1198"/>
	<outline>
		<contour>
			<point x="430" y="0" type="line"/>
			<point x="768.143" y="0" type="line"/>
			<point x="1198.14" y="1125.57" type="line"/>
			<point x="841.286" y="1125.57" type="line"/>
			<point x="625.143" y="435.571" type="line" smooth="yes"/>
			<point x="615" y="403.286"/>
			<point x="602.429" y="357"/>
			<point x="598.857" y="308.857" type="curve"/>
			<point x="592.286" y="308.857" type="line"/>
			<point x="589.143" y="355.286"/>
			<point x="574.429" y="414.429"/>
			<point x="566" y="437.286" type="curve"/>
			<point x="357.571" y="1125.57" type="line"/>
			<point x="0" y="1125.57" type="line"/>
		</contour>
	</outline>
	<anchor name="bottom" x="602" y="0"/>
	<anchor name="top" x="596.857" y="1125.57"/>
	<anchor name="topright" x="1157.14" y="1125.57"/>
</glyph>
<glyph name="w" format="2">
	<unicode hex="0077"/>
	<advance width="1798"/>
	<outline>
		<contour>
			<point x="1099.43" y="-0.285714" type="line"/>
			<point x="1464.14" y="-0.285714" type="line"/>
			<point x="1772" y="1125.29" type="line"/>
			<point x="1441.29" y="1125.29" type="line"/>
			<point x="1326.57" y="643.857" type="line" smooth="yes"/>
			<point x="1304.14" y="551.857"/>
			<point x="1283" y="394.714"/>
			<point x="1275" y="291.429" type="curve"/>
			<point x="1269.29" y="291.429" type="line"/>
			<point x="1257.43" y="391.286"/>
			<point x="1228.86" y="538.429"/>
			<point x="1209.57" y="620.286" type="curve" smooth="yes"/>
			<point x="1092.43" y="1125.29" type="line"/>
			<point x="716" y="1125.29" type="line"/>
			<point x="589.429" y="625" type="line" smooth="yes"/>
			<point x="576.714" y="573.857"/>
			<point x="539.857" y="393"/>
			<point x="532.429" y="291.429" type="curve"/>
			<point x="526.714" y="291.429" type="line"/>
			<point x="519.429" y="393"/>
			<point x="496.286" y="543.857"/>
			<point x="474.143" y="643.857" type="curve" smooth="yes"/>
			<point x="364.571" y="1125.29" type="line"/>
			<point x="26.1429" y="1125.29" type="line"/>
			<point x="335.714" y="-0.285714" type="line"/>
			<point x="694.429" y="-0.285714" type="line"/>
			<point x="830.714" y="525.857" type="line"/>
			<point x="857.143" y="635.429"/>
			<point x="886" y="792.143"/>
			<point x="895.857" y="855.857" type="curve"/>
			<point x="901.571" y="855.857" type="line"/>
			<point x="911.286" y="792.143"/>
			<point x="936.857" y="636.286"/>
			<point x="960.571" y="538.714" type="curve"/>
		</contour>
	</outline>
	<anchor name="bottom" x="894" y="0"/>
	<anchor name="top" x="899.143" y="1125.57"/>
	<anchor name="topright" x="1757.14" y="1125.57"/>
</glyph>
<glyph name="braceleft" format="2">
	<unicode hex="007B"/>
	<advance width="859"/>
	<outline>
		<contour>
			<point x="791.429" y="-341.143" type="curve"/>
			<point x="791.429" y="-95.4286" type="line"/>
			<point x="695.143" y="-92.8571"/>
			<point x="588.571" y="-79.2857"/>
			<point x="588.571" y="29.2857" type="curve" smooth="yes"/>
			<point x="588.571" y="316.143" type="line" smooth="yes"/>
			<point x="588.571" y="469.857"/>
			<point x="510.714" y="539.857"/>
			<point x="359.714" y="563.571" type="curve"/>
			<point x="359.714" y="574.429" type="line"/>
			<point x="507.286" y="595.714"/>
			<point x="588.571" y="665.714"/>
			<point x="588.571" y="827" type="curve" smooth="yes"/>
			<point x="588.571" y="1108.86" type="line" smooth="yes"/>
			<point x="588.571" y="1219.86"/>
			<point x="693.429" y="1231.86"/>
			<point x="791.429" y="1233.57" type="curve"/>
			<point x="791.429" y="1480" type="line"/>
			<point x="394.429" y="1480"/>
			<point x="303" y="1374.29"/>
			<point x="303" y="1149.14" type="curve" smooth="yes"/>
			<point x="303" y="881.429" type="line" smooth="yes"/>
			<point x="303" y="749"/>
			<point x="192.143" y="701.143"/>
			<point x="59.8571" y="701.143" type="curve"/>
			<point x="59.8571" y="436.143" type="line"/>
			<point x="188.714" y="436.143"/>
			<point x="303" y="385.571"/>
			<point x="303" y="255.857" type="curve" smooth="yes"/>
			<point x="303" y="-6.71429" type="line" smooth="yes"/>
			<point x="303" y="-237.857"/>
			<point x="399.571" y="-341.143"/>
		</contour>
	</outline>
</glyph>
<glyph name="section" format="2">
	<unicode hex="00A7"/>
	<advance width="1029"/>
	<outline>
		<contour>
			<point x="114.857" y="803.857" type="curve" smooth="yes"/>
			<point x="114.857" y="614.286"/>
			<point x="254.143" y="537.286"/>
			<point x="448.286" y="454" type="curve"/>
			<point x="596.571" y="392.714"/>
			<point x="639" y="357.714"/>
			<point x="639" y="290" type="curve" smooth="yes"/>
			<point x="639" y="221.857"/>
			<point x="595" y="175.571"/>
			<point x="471.857" y="175.571" type="curve" smooth="yes"/>
			<point x="375.429" y="175.571"/>
			<point x="233.714" y="218"/>
			<point x="119.286" y="279.286" type="curve"/>
			<point x="119.286" y="61.7143" type="line"/>
			<point x="214.143" y="8.14286"/>
			<point x="332.286" y="-21.7143"/>
			<point x="470.143" y="-21.7143" type="curve" smooth="yes"/>
			<point x="755" y="-21.7143"/>
			<point x="899.429" y="115.429"/>
			<point x="899.429" y="296.857" type="curve" smooth="yes"/>
			<point x="899.429" y="406.143"/>
			<point x="845" y="484.429"/>
			<point x="767.143" y="538.571" type="curve"/>
			<point x="846.143" y="591.571"/>
			<point x="921" y="663.571"/>
			<point x="921" y="799.714" type="curve" smooth="yes"/>
			<point x="921" y="938.714"/>
			<point x="812.571" y="1036"/>
			<point x="588" y="1125.29" type="curve" smooth="yes"/>
			<point x="446.143" y="1181.43"/>
			<point x="396.714" y="1225.29"/>
			<point x="396.714" y="1284" type="curve" smooth="yes"/>
			<point x="396.714" y="1346"/>
			<point x="446.571" y="1377.29"/>
			<point x="533" y="1377.29" type="curve" smooth="yes"/>
			<point x="619.857" y="1377.29"/>
			<point x="724.571" y="1340.71"/>
			<point x="810.429" y="1295.14" type="curve"/>
			<point x="897.714" y="1491.57" type="line"/>
			<point x="798.286" y="1538.57"/>
			<point x="670.571" y="1573.71"/>
			<point x="535.571" y="1573.71" type="curve" smooth="yes"/>
			<point x="280.143" y="1573.71"/>
			<point x="136.286" y="1454.57"/>
			<point x="136.286" y="1284" type="curve" smooth="yes"/>
			<point x="136.286" y="1177.86"/>
			<point x="190.857" y="1103.43"/>
			<point x="287" y="1040.71" type="curve"/>
			<point x="199.714" y="992.571"/>
			<point x="114.857" y="912"/>
		</contour>
		<contour>
			<point x="371.857" y="830.429" type="curve" smooth="yes"/>
			<point x="371.857" y="894.857"/>
			<point x="411.714" y="933.143"/>
			<point x="455.857" y="951.857" type="curve"/>
			<point x="608" y="893"/>
			<point x="663.857" y="838.286"/>
			<point x="663.857" y="756" type="curve" smooth="yes"/>
			<point x="663.857" y="692.857"/>
			<point x="633.714" y="652.143"/>
			<point x="601.857" y="627.429" type="curve"/>
			<point x="561.143" y="645" type="line"/>
			<point x="435.429" y="707.143"/>
			<point x="371.857" y="749"/>
		</contour>
	</outline>
</glyph>
<glyph name="copyright" format="2">
	<unicode hex="00A9"/>
	<advance width="1690"/>
	<outline>
		<contour>
			<point x="845.143" y="-19.4286" type="curve" smooth="yes"/>
			<point x="1277.71" y="-19.4286"/>
			<point x="1596" y="298.429"/>
			<point x="1596" y="731" type="curve" smooth="yes"/>
			<point x="1596" y="1160"/>
			<point x="1281.14" y="1482.43"/>
			<point x="845.143" y="1482.43" type="curve" smooth="yes"/>
			<point x="413.143" y="1482.43"/>
			<point x="93.4286" y="1165.57"/>
			<point x="93.4286" y="731" type="curve" smooth="yes"/>
			<point x="93.4286" y="298.857"/>
			<point x="408.857" y="-19.4286"/>
		</contour>
		<contour>
			<point x="852.429" y="266.429" type="curve" smooth="yes"/>
			<point x="956.429" y="266.429"/>
			<point x="1037.29" y="286.429"/>
			<point x="1119.14" y="327.429" type="curve"/>
			<point x="1119.14" y="532.429" type="line"/>
			<point x="1037.14" y="487.714"/>
			<point x="951.857" y="468.286"/>
			<point x="864.429" y="468.286" type="curve" smooth="yes"/>
			<point x="730.857" y="468.286"/>
			<point x="659.714" y="548.429"/>
			<point x="659.714" y="730.714" type="curve" smooth="yes"/>
			<point x="659.714" y="898.714"/>
			<point x="738.286" y="992"/>
			<point x="860.429" y="992" type="curve" smooth="yes"/>
			<point x="941.857" y="992"/>
			<point x="1005.86" y="973.143"/>
			<point x="1075" y="937.286" type="curve"/>
			<point x="1157" y="1119.71" type="line"/>
			<point x="1063" y="1166.43"/>
			<point x="966.571" y="1194.14"/>
			<point x="845" y="1194.14" type="curve" smooth="yes"/>
			<point x="561.286" y="1194.14"/>
			<point x="411" y="1011.57"/>
			<point x="411" y="734.143" type="curve" smooth="yes"/>
			<point x="411" y="447.143"/>
			<point x="563.571" y="266.429"/>
		</contour>
		<contour>
			<point x="845.143" y="127.571" type="curve" smooth="yes"/>
			<point x="496" y="127.571"/>
			<point x="255.429" y="380.286"/>
			<point x="255.429" y="731" type="curve" smooth="yes"/>
			<point x="255.429" y="1082.86"/>
			<point x="499.571" y="1334.43"/>
			<point x="845.143" y="1334.43" type="curve" smooth="yes"/>
			<point x="1188.43" y="1334.43"/>
			<point x="1430.57" y="1081.14"/>
			<point x="1430.57" y="731" type="curve" smooth="yes"/>
			<point x="1430.57" y="381.429"/>
			<point x="1188.43" y="127.571"/>
		</contour>
	</outline>
</glyph>
<glyph name="ordfeminine" format="2">
	<unicode hex="00AA"/>
	<advance width="791"/>
	<outline>
		<contour>
			<point x="423.143" y="1479" type="curve" smooth="yes"/>
			<point x="273.143" y="1479"/>
			<point x="193.286" y="1449.14"/>
			<point x="97.5714" y="1402.71" type="curve"/>
			<point x="165.714" y="1253.43" type="line"/>
			<point x="248.429" y="1291.86"/>
			<point x="302.286" y="1307.86"/>
			<point x="374" y="1307.86" type="curve" smooth="yes"/>
			<point x="445.143" y="1307.86"/>
			<point x="483.143" y="1282"/>
			<point x="483.143" y="1219.71" type="curve" smooth="yes"/>
			<point x="483.143" y="1205.43" type="line"/>
			<point x="394.429" y="1201.43" type="line" smooth="yes"/>
			<point x="173.714" y="1191.43"/>
			<point x="54" y="1138.57"/>
			<point x="54" y="971" type="curve" smooth="yes"/>
			<point x="54" y="814.857"/>
			<point x="153.714" y="741.286"/>
			<point x="284.429" y="741.286" type="curve" smooth="yes"/>
			<point x="401.571" y="741.286"/>
			<point x="466.429" y="788"/>
			<point x="521.429" y="875.429" type="curve"/>
			<point x="561.143" y="752.714" type="line"/>
			<point x="706.714" y="752.714" type="line"/>
			<point x="706.714" y="1202" type="line" smooth="yes"/>
			<point x="706.714" y="1385.29"/>
			<point x="593.571" y="1479"/>
		</contour>
		<contour>
			<point x="483.143" y="1080.71" type="line"/>
			<point x="483.143" y="1051.57" type="line" smooth="yes"/>
			<point x="483.143" y="972.571"/>
			<point x="441.714" y="904.571"/>
			<point x="360.143" y="904.571" type="curve" smooth="yes"/>
			<point x="307.286" y="904.571"/>
			<point x="277.857" y="932.143"/>
			<point x="277.857" y="981.286" type="curve" smooth="yes"/>
			<point x="277.857" y="1030"/>
			<point x="301.857" y="1068.71"/>
			<point x="397.571" y="1075" type="curve" smooth="yes"/>
		</contour>
	</outline>
	<anchor name="bottom" x="381.286" y="746.714"/>
	<anchor name="top" x="384.286" y="1485"/>
</glyph>
<glyph name="guillemotleft" format="2">
	<unicode hex="00AB"/>
	<advance width="1310"/>
	<outline>
		<contour>
			<point x="71" y="587.429" type="line"/>
			<point x="71" y="560.429" type="line"/>
			<point x="449" y="94" type="line"/>
			<point x="693.571" y="223.286" type="line"/>
			<point x="420.429" y="574.429" type="line"/>
			<point x="693.571" y="924.857" type="line"/>
			<point x="449" y="1056.14" type="line"/>
		</contour>
		<contour>
			<point x="613.286" y="587.429" type="line"/>
			<point x="613.286" y="560.429" type="line"/>
			<point x="989.571" y="94" type="line"/>
			<point x="1236.71" y="223.286" type="line"/>
			<point x="961" y="574.429" type="line"/>
			<point x="1236.71" y="924.857" type="line"/>
			<point x="989.571" y="1056.14" type="line"/>
		</contour>
	</outline>
</glyph>
<glyph name="twosuperior" format="2">
	<unicode hex="00B2"/>
	<advance width="796"/>
	<outline>
		<contour>
			<point x="732.714" y="852" type="line"/>
			<point x="732.714" y="1052.14" type="line"/>
			<point x="364.143" y="1052.14" type="line"/>
			<point x="450.857" y="1130.86" type="line"/>
			<point x="589.714" y="1252.29"/>
			<point x="711.143" y="1356.86"/>
			<point x="711.143" y="1513.71" type="curve" smooth="yes"/>
			<point x="711.143" y="1654.71"/>
			<point x="612" y="1751"/>
			<point x="419.714" y="1751" type="curve" smooth="yes"/>
			<point x="253.429" y="1751"/>
			<point x="153.429" y="1700.86"/>
			<point x="64.8571" y="1621.86" type="curve"/>
			<point x="190.429" y="1473.71" type="line"/>
			<point x="266.286" y="1543.57"/>
			<point x="320" y="1561.14"/>
			<point x="370.857" y="1561.14" type="curve" smooth="yes"/>
			<point x="425" y="1561.14"/>
			<point x="455.571" y="1533.14"/>
			<point x="455.571" y="1486.29" type="curve" smooth="yes"/>
			<point x="455.571" y="1431.86"/>
			<point x="413" y="1374.43"/>
			<point x="293.286" y="1255" type="curve" smooth="yes"/>
			<point x="73" y="1035.57" type="line"/>
			<point x="73" y="852" type="line"/>
		</contour>
	</outline>
</glyph>
<glyph name="acute" format="2">
	<unicode hex="00B4"/>
	<advance width="807"/>
	<outline>
		<contour>
			<point x="724.571" y="1569" type="line"/>
			<point x="349" y="1569" type="line"/>
			<point x="283" y="1477.57"/>
			<point x="155.143" y="1344.43"/>
			<point x="82" y="1267.57" type="curve"/>
			<point x="82" y="1241" type="line"/>
			<point x="311" y="1241" type="line"/>
			<point x="421.571" y="1313.86"/>
			<point x="632" y="1468.86"/>
			<point x="724.571" y="1548.86" type="curve"/>
		</contour>
	</outline>
</glyph>
<glyph name="micro" format="2">
	<unicode hex="00B5"/>
	<advance width="1349"/>
	<outline>
		<contour>
			<point x="1206.71" y="1125.57" type="line"/>
			<point x="862.571" y="1125.57" type="line"/>
			<point x="862.571" y="612.429" type="line" smooth="yes"/>
			<point x="862.571" y="380"/>
			<point x="811.714" y="252.143"/>
			<point x="658.571" y="252.143" type="curve" smooth="yes"/>
			<point x="535.429" y="252.143"/>
			<point x="484.571" y="333.857"/>
			<point x="484.571" y="498.143" type="curve" smooth="yes"/>
			<point x="484.571" y="1125.57" type="line"/>
			<point x="142" y="1125.57" type="line"/>
			<point x="142" y="-492" type="line"/>
			<point x="484.571" y="-492" type="line"/>
			<point x="484.571" y="-152.714" type="line" smooth="yes"/>
			<point x="484.571" y="-78.7143"/>
			<point x="479.429" y="18.2857"/>
			<point x="474.286" y="74.7143" type="curve"/>
			<point x="478.286" y="74.7143" type="line"/>
			<point x="517" y="11.5714"/>
			<point x="564.143" y="-20"/>
			<point x="653.429" y="-20" type="curve" smooth="yes"/>
			<point x="761.857" y="-20"/>
			<point x="842.143" y="41.1429"/>
			<point x="888.286" y="157.857" type="curve"/>
			<point x="902.571" y="157.857" type="line"/>
			<point x="948.857" y="0" type="line"/>
			<point x="1206.71" y="0" type="line"/>
		</contour>
	</outline>
</glyph>
<glyph name="paragraph" format="2">
	<unicode hex="00B6"/>
	<advance width="1320"/>
	<outline>
		<contour>
			<point x="1167.86" y="-260" type="line"/>
			<point x="1167.86" y="1556" type="line"/>
			<point x="554.429" y="1556" type="line" smooth="yes"/>
			<point x="288.714" y="1556"/>
			<point x="115.286" y="1429.57"/>
			<point x="115.286" y="1056.14" type="curve" smooth="yes"/>
			<point x="115.286" y="700.714"/>
			<point x="273.286" y="565"/>
			<point x="523.429" y="565" type="curve" smooth="yes"/>
			<point x="581.714" y="565"/>
			<point x="609.857" y="571"/>
			<point x="651.429" y="583" type="curve"/>
			<point x="651.429" y="-260" type="line"/>
			<point x="822.714" y="-260" type="line"/>
			<point x="822.714" y="1352.43" type="line"/>
			<point x="996.571" y="1352.43" type="line"/>
			<point x="996.571" y="-260" type="line"/>
		</contour>
	</outline>
</glyph>
<glyph name="cedilla" format="2">
	<unicode hex="00B8"/>
	<advance width="562"/>
	<outline>
		<contour>
			<point x="516.429" y="-258.429" type="curve" smooth="yes"/>
			<point x="516.429" y="-132.143"/>
			<point x="414.714" y="-88.4286"/>
			<point x="327.429" y="-71.2857" type="curve"/>
			<point x="353.429" y="0" type="line"/>
			<point x="179" y="0" type="line"/>
			<point x="113.714" y="-144" type="line"/>
			<point x="223.714" y="-160.286"/>
			<point x="268.143" y="-186.429"/>
			<point x="268.143" y="-239" type="curve" smooth="yes"/>
			<point x="268.143" y="-282.143"/>
			<point x="230.857" y="-309.143"/>
			<point x="172.143" y="-309.143" type="curve" smooth="yes"/>
			<point x="126.286" y="-309.143"/>
			<point x="85" y="-302"/>
			<point x="41.4286" y="-287.714" type="curve"/>
			<point x="41.4286" y="-460.143" type="line"/>
			<point x="87.8571" y="-476.714"/>
			<point x="159.714" y="-492"/>
			<point x="247.571" y="-492" type="curve" smooth="yes"/>
			<point x="408.857" y="-492"/>
			<point x="516.429" y="-399.714"/>
		</contour>
	</outline>
</glyph>
<glyph name="onesuperior" format="2">
	<unicode hex="00B9"/>
	<advance width="796"/>
	<outline>
		<contour>
			<point x="584.429" y="1729" type="line"/>
			<point x="390.857" y="1729" type="line"/>
			<point x="59.7143" y="1471.86" type="line"/>
			<point x="188" y="1319.71" type="line"/>
			<point x="270.429" y="1387" type="line"/>
			<point x="296.857" y="1407.43"/>
			<point x="327" y="1434.86"/>
			<point x="344" y="1459.86" type="curve"/>
			<point x="340.286" y="1425.29"/>
			<point x="335.143" y="1287"/>
			<point x="335.143" y="1239" type="curve" smooth="yes"/>
			<point x="335.143" y="852" type="line"/>
			<point x="584.429" y="852" type="line"/>
		</contour>
	</outline>
</glyph>
<glyph name="ordmasculine" format="2">
	<unicode hex="00BA"/>
	<advance width="791"/>
	<outline>
		<contour>
			<point x="741" y="1110.14" type="curve" smooth="yes"/>
			<point x="741" y="1338.43"/>
			<point x="596.714" y="1479.86"/>
			<point x="398.143" y="1479.86" type="curve" smooth="yes"/>
			<point x="184.571" y="1479.86"/>
			<point x="52.8571" y="1344.57"/>
			<point x="52.8571" y="1110.14" type="curve" smooth="yes"/>
			<point x="52.8571" y="882"/>
			<point x="192" y="740.429"/>
			<point x="393.714" y="740.429" type="curve" smooth="yes"/>
			<point x="607.286" y="740.429"/>
			<point x="741" y="878.857"/>
		</contour>
		<contour>
			<point x="276.714" y="1110.14" type="curve" smooth="yes"/>
			<point x="276.714" y="1234.14"/>
			<point x="315.857" y="1300.29"/>
			<point x="396.429" y="1300.29" type="curve" smooth="yes"/>
			<point x="477.429" y="1300.29"/>
			<point x="513.714" y="1231"/>
			<point x="513.714" y="1110.14" type="curve" smooth="yes"/>
			<point x="513.714" y="988.143"/>
			<point x="476.571" y="921.714"/>
			<point x="395.429" y="921.714" type="curve" smooth="yes"/>
			<point x="314.429" y="921.714"/>
			<point x="276.714" y="987.857"/>
		</contour>
	</outline>
	<anchor name="bottom" x="392" y="747.286"/>
	<anchor name="top" x="404.143" y="1485"/>
</glyph>
<glyph name="onequarter" format="2">
	<unicode hex="00BC"/>
	<advance width="1761"/>
	<outline>
		<contour>
			<point x="348.143" y="0" type="line"/>
			<point x="614.286" y="0" type="line"/>
			<point x="1369.43" y="1462" type="line"/>
			<point x="1103.29" y="1462" type="line"/>
		</contour>
		<contour>
			<point x="269" y="586" type="line"/>
			<point x="519.143" y="586" type="line"/>
			<point x="519.143" y="1462" type="line"/>
			<point x="325.571" y="1462" type="line"/>
			<point x="-5.57143" y="1205.86" type="line"/>
			<point x="121.857" y="1053.71" type="line"/>
			<point x="207.714" y="1124.43" type="line" smooth="yes"/>
			<point x="240.143" y="1151.71"/>
			<point x="266" y="1179.14"/>
			<point x="277.857" y="1193.86" type="curve"/>
			<point x="270.714" y="1119.86"/>
			<point x="269" y="1017.57"/>
			<point x="269" y="973" type="curve" smooth="yes"/>
		</contour>
		<contour>
			<point x="1371.71" y="0" type="line"/>
			<point x="1614" y="0" type="line"/>
			<point x="1614" y="157.429" type="line"/>
			<point x="1742.71" y="157.429" type="line"/>
			<point x="1742.71" y="336.714" type="line"/>
			<point x="1614" y="336.714" type="line"/>
			<point x="1614" y="883" type="line"/>
			<point x="1352.86" y="883" type="line"/>
			<point x="994.143" y="324.714" type="line"/>
			<point x="994.143" y="157.429" type="line"/>
			<point x="1371.71" y="157.429" type="line"/>
		</contour>
		<contour>
			<point x="1186" y="336.714" type="line"/>
			<point x="1314.14" y="537.857" type="line"/>
			<point x="1331" y="562.571"/>
			<point x="1350.29" y="602.286"/>
			<point x="1377.14" y="667" type="curve"/>
			<point x="1373.43" y="622.571"/>
			<point x="1371.71" y="576.714"/>
			<point x="1371.71" y="527" type="curve" smooth="yes"/>
			<point x="1371.71" y="336.714" type="line"/>
		</contour>
	</outline>
</glyph>
<glyph name="onehalf" format="2">
	<unicode hex="00BD"/>
	<advance width="1843"/>
	<outline>
		<contour>
			<point x="369.571" y="0" type="line"/>
			<point x="635.714" y="0" type="line"/>
			<point x="1390.86" y="1462" type="line"/>
			<point x="1124.71" y="1462" type="line"/>
		</contour>
		<contour>
			<point x="269" y="586" type="line"/>
			<point x="519.143" y="586" type="line"/>
			<point x="519.143" y="1462" type="line"/>
			<point x="325.571" y="1462" type="line"/>
			<point x="-5.57143" y="1205.86" type="line"/>
			<point x="121.857" y="1053.71" type="line"/>
			<point x="202.571" y="1120.14" type="line" smooth="yes"/>
			<point x="235" y="1146.57"/>
			<point x="266" y="1179.14"/>
			<point x="277.857" y="1193.86" type="curve"/>
			<point x="275.857" y="1174.71"/>
			<point x="269" y="1003.86"/>
			<point x="269" y="973" type="curve" smooth="yes"/>
		</contour>
		<contour>
			<point x="1119.57" y="0" type="line"/>
			<point x="1779.29" y="0" type="line"/>
			<point x="1779.29" y="200.143" type="line"/>
			<point x="1411.57" y="200.143" type="line"/>
			<point x="1609.71" y="380" type="line"/>
			<point x="1692.86" y="463.714"/>
			<point x="1757.71" y="548.571"/>
			<point x="1757.71" y="662.571" type="curve" smooth="yes"/>
			<point x="1757.71" y="809.571"/>
			<point x="1651.71" y="899"/>
			<point x="1466.29" y="899" type="curve" smooth="yes"/>
			<point x="1319.71" y="899"/>
			<point x="1213.71" y="862.571"/>
			<point x="1112.29" y="769.857" type="curve"/>
			<point x="1237" y="621.714" type="line"/>
			<point x="1300" y="680.429"/>
			<point x="1359.71" y="709.143"/>
			<point x="1417.43" y="709.143" type="curve" smooth="yes"/>
			<point x="1473.29" y="709.143"/>
			<point x="1503" y="682.857"/>
			<point x="1503" y="634.286" type="curve" smooth="yes"/>
			<point x="1503" y="576.429"/>
			<point x="1457.86" y="520.714"/>
			<point x="1339.86" y="403" type="curve" smooth="yes"/>
			<point x="1119.57" y="183.571" type="line"/>
		</contour>
	</outline>
</glyph>
<glyph name="threequarters" format="2">
	<unicode hex="00BE"/>
	<advance width="1840"/>
	<outline>
		<contour>
			<point x="459.143" y="0" type="line"/>
			<point x="725.286" y="0" type="line"/>
			<point x="1480.43" y="1462" type="line"/>
			<point x="1214.29" y="1462" type="line"/>
		</contour>
		<contour>
			<point x="386.143" y="570.286" type="curve" smooth="yes"/>
			<point x="618.286" y="570.286"/>
			<point x="752.429" y="663.429"/>
			<point x="752.429" y="825.143" type="curve" smooth="yes"/>
			<point x="752.429" y="940.286"/>
			<point x="691" y="1008.57"/>
			<point x="564.286" y="1039.57" type="curve"/>
			<point x="564.286" y="1047.86" type="line"/>
			<point x="676.714" y="1087.57"/>
			<point x="724.571" y="1159.29"/>
			<point x="724.571" y="1265.71" type="curve" smooth="yes"/>
			<point x="724.571" y="1399"/>
			<point x="605.714" y="1480.43"/>
			<point x="414.857" y="1480.43" type="curve" smooth="yes"/>
			<point x="288.571" y="1480.43"/>
			<point x="178.714" y="1442.29"/>
			<point x="82.2857" y="1369.86" type="curve"/>
			<point x="185.429" y="1217.71" type="line"/>
			<point x="257.429" y="1271.57"/>
			<point x="314.571" y="1292.14"/>
			<point x="384.857" y="1292.14" type="curve" smooth="yes"/>
			<point x="461.286" y="1292.14"/>
			<point x="492.143" y="1253.14"/>
			<point x="492.143" y="1210.86" type="curve" smooth="yes"/>
			<point x="492.143" y="1146.14"/>
			<point x="443.571" y="1116.43"/>
			<point x="340.429" y="1116.43" type="curve" smooth="yes"/>
			<point x="252.286" y="1116.43" type="line"/>
			<point x="252.286" y="942.857" type="line"/>
			<point x="361.857" y="942.857" type="line" smooth="yes"/>
			<point x="464.714" y="942.857"/>
			<point x="513" y="920.143"/>
			<point x="513" y="855.143" type="curve" smooth="yes"/>
			<point x="513" y="797.857"/>
			<point x="466.714" y="767.857"/>
			<point x="375.857" y="767.857" type="curve" smooth="yes"/>
			<point x="258.714" y="767.857"/>
			<point x="163.286" y="793.286"/>
			<point x="84.7143" y="845.429" type="curve"/>
			<point x="84.7143" y="637.571" type="line"/>
			<point x="166.714" y="592.857"/>
			<point x="267" y="570.286"/>
		</contour>
		<contour>
			<point x="1450.14" y="0" type="line"/>
			<point x="1693.14" y="0" type="line"/>
			<point x="1693.14" y="157.429" type="line"/>
			<point x="1822" y="157.429" type="line"/>
			<point x="1822" y="336.714" type="line"/>
			<point x="1693.14" y="336.714" type="line"/>
			<point x="1693.14" y="883" type="line"/>
			<point x="1432.14" y="883" type="line"/>
			<point x="1073.29" y="324.714" type="line"/>
			<point x="1073.29" y="157.429" type="line"/>
			<point x="1450.14" y="157.429" type="line"/>
		</contour>
		<contour>
			<point x="1265.29" y="336.714" type="line"/>
			<point x="1393.43" y="537.857" type="line"/>
			<point x="1410.29" y="562.571"/>
			<point x="1429.57" y="602.286"/>
			<point x="1456.43" y="667" type="curve"/>
			<point x="1452.71" y="622.571"/>
			<point x="1450.14" y="576.714"/>
			<point x="1450.14" y="527" type="curve" smooth="yes"/>
			<point x="1450.14" y="336.714" type="line"/>
		</contour>
	</outline>
</glyph>
<glyph name="Eth" format="2">
	<unicode hex="00D0"/>
	<advance width="1491"/>
	<outline>
		<contour>
			<point x="651" y="1462" type="curve" smooth="yes"/>
			<point x="165.571" y="1462" type="line"/>
			<point x="165.571" y="864.571" type="line"/>
			<point x="31.5714" y="864.571" type="line"/>
			<point x="31.5714" y="582.857" type="line"/>
			<point x="165.571" y="582.857" type="line"/>
			<point x="165.571" y="0" type="line"/>
			<point x="616" y="0" type="line" smooth="yes"/>
			<point x="1087.71" y="0"/>
			<point x="1382.86" y="252.571"/>
			<point x="1382.86" y="759.571" type="curve" smooth="yes"/>
			<point x="1382.86" y="1213.43"/>
			<point x="1123.86" y="1462"/>
		</contour>
		<contour>
			<point x="651.571" y="1181.29" type="line" smooth="yes"/>
			<point x="903.714" y="1181.29"/>
			<point x="1023.57" y="1037.43"/>
			<point x="1023.57" y="747.286" type="curve" smooth="yes"/>
			<point x="1023.57" y="435"/>
			<point x="898.143" y="285"/>
			<point x="625.429" y="285" type="curve" smooth="yes"/>
			<point x="511.714" y="285" type="line"/>
			<point x="511.714" y="582.857" type="line"/>
			<point x="752.857" y="582.857" type="line"/>
			<point x="752.857" y="864.571" type="line"/>
			<point x="511.714" y="864.571" type="line"/>
			<point x="511.714" y="1181.29" type="line"/>
		</contour>
	</outline>
	<anchor name="bottom" x="745.857" y="0"/>
	<anchor name="top" x="745.857" y="1462"/>
</glyph>
<glyph name="multiply" format="2">
	<unicode hex="00D7"/>
	<advance width="1195"/>
	<outline>
		<contour>
			<point x="885" y="1177.29" type="line"/>
			<point x="592.571" y="890.857" type="line"/>
			<point x="303.429" y="1177.29" type="line"/>
			<point x="141.571" y="1010.29" type="line"/>
			<point x="428.143" y="723" type="line"/>
			<point x="143.286" y="435.571" type="line"/>
			<point x="303.429" y="270.429" type="line"/>
			<point x="592.571" y="558.571" type="line"/>
			<point x="885" y="268.714" type="line"/>
			<point x="1048.57" y="432.143" type="line"/>
			<point x="758.571" y="723" type="line"/>
			<point x="1052" y="1015.43" type="line"/>
		</contour>
	</outline>
</glyph>
<glyph name="Oslash" format="2">
	<unicode hex="00D8"/>
	<advance width="1619"/>
	<outline>
		<contour>
			<point x="1509.86" y="733" type="curve" smooth="yes"/>
			<point x="1509.86" y="978.429"/>
			<point x="1448.86" y="1179.14"/>
			<point x="1315.86" y="1309.86" type="curve"/>
			<point x="1404" y="1441.29" type="line"/>
			<point x="1235.29" y="1543.43" type="line"/>
			<point x="1152.57" y="1418.57" type="line"/>
			<point x="1060.71" y="1462"/>
			<point x="946.286" y="1485"/>
			<point x="812" y="1485" type="curve" smooth="yes"/>
			<point x="329.429" y="1485"/>
			<point x="107.571" y="1188"/>
			<point x="107.571" y="735" type="curve" smooth="yes"/>
			<point x="107.571" y="482"/>
			<point x="173.286" y="277.857"/>
			<point x="314.714" y="144.571" type="curve"/>
			<point x="222.857" y="10.4286" type="line"/>
			<point x="394.143" y="-101" type="line"/>
			<point x="485.429" y="38.1429" type="line"/>
			<point x="575.571" y="-0.428571"/>
			<point x="683.143" y="-20"/>
			<point x="808.571" y="-20" type="curve" smooth="yes"/>
			<point x="1300.57" y="-20"/>
			<point x="1509.86" y="282.714"/>
		</contour>
		<contour>
			<point x="1145.43" y="733" type="curve" smooth="yes"/>
			<point x="1145.43" y="447.571"/>
			<point x="1052.29" y="269.286"/>
			<point x="808.857" y="269.286" type="curve" smooth="yes"/>
			<point x="748.286" y="269.286"/>
			<point x="694.429" y="281.714"/>
			<point x="652.714" y="302.286" type="curve"/>
			<point x="1106.29" y="990.571" type="line"/>
			<point x="1132" y="924.714"/>
			<point x="1145.43" y="837"/>
		</contour>
		<contour>
			<point x="472" y="733.286" type="curve" smooth="yes"/>
			<point x="472" y="1017.29"/>
			<point x="570.429" y="1200"/>
			<point x="812" y="1200" type="curve" smooth="yes"/>
			<point x="876" y="1200"/>
			<point x="934.143" y="1183.29"/>
			<point x="981" y="1157.86" type="curve"/>
			<point x="519.714" y="453.286" type="line"/>
			<point x="484.857" y="527.143"/>
			<point x="472" y="623.429"/>
		</contour>
	</outline>
	<anchor name="bottom" x="810.571" y="0"/>
	<anchor name="top" x="815.714" y="1462"/>
</glyph>
<glyph name="germandbls" format="2">
	<unicode hex="00DF"/>
	<advance width="1479"/>
	<outline>
		<contour>
			<point x="1276.14" y="1206.14" type="curve" smooth="yes"/>
			<point x="1276.14" y="1444.57"/>
			<point x="1048.29" y="1567"/>
			<point x="723.714" y="1567" type="curve" smooth="yes"/>
			<point x="384.571" y="1567"/>
			<point x="141.714" y="1403.29"/>
			<point x="141.714" y="1107.57" type="curve" smooth="yes"/>
			<point x="141.714" y="0" type="line"/>
			<point x="484.571" y="0" type="line"/>
			<point x="484.571" y="1072.43" type="line" smooth="yes"/>
			<point x="484.571" y="1219.43"/>
			<point x="560" y="1303.43"/>
			<point x="723.714" y="1303.43" type="curve" smooth="yes"/>
			<point x="851.429" y="1303.43"/>
			<point x="924.571" y="1248"/>
			<point x="924.571" y="1171" type="curve" smooth="yes"/>
			<point x="924.571" y="1004.14"/>
			<point x="645.286" y="988.571"/>
			<point x="645.286" y="770.857" type="curve" smooth="yes"/>
			<point x="645.286" y="659.286"/>
			<point x="709.429" y="593.429"/>
			<point x="868.571" y="506" type="curve" smooth="yes"/>
			<point x="1028.14" y="419.714"/>
			<point x="1055.57" y="388.286"/>
			<point x="1055.57" y="327.143" type="curve" smooth="yes"/>
			<point x="1055.57" y="259"/>
			<point x="989.286" y="218.714"/>
			<point x="897.429" y="218.714" type="curve" smooth="yes"/>
			<point x="812.571" y="218.714"/>
			<point x="690.286" y="255"/>
			<point x="619.143" y="296" type="curve"/>
			<point x="619.143" y="38.4286" type="line"/>
			<point x="703" y="-4.28571"/>
			<point x="800.143" y="-20"/>
			<point x="976.286" y="-20" type="curve" smooth="yes"/>
			<point x="1262" y="-20"/>
			<point x="1413.14" y="105.857"/>
			<point x="1413.14" y="325.429" type="curve" smooth="yes"/>
			<point x="1413.14" y="488.143"/>
			<point x="1343.71" y="564.714"/>
			<point x="1211.29" y="649.714" type="curve" smooth="yes"/>
			<point x="1078.57" y="734.857"/>
			<point x="1006.29" y="758.571"/>
			<point x="1006.29" y="818" type="curve" smooth="yes"/>
			<point x="1006.29" y="897.857"/>
			<point x="1276.14" y="973.286"/>
		</contour>
	</outline>
	<anchor name="bottom" x="739.286" y="0"/>
	<anchor name="top" x="739.286" y="1567"/>
</glyph>
<glyph name="adieresis" format="2">
	<unicode hex="00E4"/>
	<advance width="1243"/>
	<outline>
		<contour>
			<point x="667" y="1145.43" type="curve" smooth="yes"/>
			<point x="474" y="1145.43"/>
			<point x="317.286" y="1111"/>
			<point x="189.571" y="1046.57" type="curve"/>
			<point x="289" y="817.857" type="line"/>
			<point x="400.857" y="868.286"/>
			<point x="512.571" y="901.571"/>
			<point x="605.286" y="901.571" type="curve" smooth="yes"/>
			<point x="704.429" y="901.571"/>
			<point x="763.857" y="853.714"/>
			<point x="763.857" y="732" type="curve" smooth="yes"/>
			<point x="763.857" y="705.714" type="line"/>
			<point x="571.714" y="698.857" type="line"/>
			<point x="252.429" y="683.429"/>
			<point x="77.4286" y="572.429"/>
			<point x="77.4286" y="334.286" type="curve" smooth="yes"/>
			<point x="77.4286" y="97.1429"/>
			<point x="219.286" y="-20"/>
			<point x="419.143" y="-20" type="curve" smooth="yes"/>
			<point x="611.857" y="-20"/>
			<point x="703.714" y="37.1429"/>
			<point x="795" y="158.714" type="curve"/>
			<point x="802.429" y="158.714" type="line"/>
			<point x="867.857" y="0" type="line"/>
			<point x="1106.71" y="0" type="line"/>
			<point x="1106.71" y="739.286" type="line" smooth="yes"/>
			<point x="1106.71" y="1002.71"/>
			<point x="944.857" y="1145.43"/>
		</contour>
		<contour>
			<point x="765.571" y="514.143" type="line"/>
			<point x="765.571" y="422.714" type="line"/>
			<point x="765" y="305"/>
			<point x="680.857" y="223.857"/>
			<point x="561.429" y="223.857" type="curve" smooth="yes"/>
			<point x="478.286" y="223.857"/>
			<point x="426" y="266.429"/>
			<point x="426" y="354" type="curve" smooth="yes"/>
			<point x="426" y="451.571"/>
			<point x="495.714" y="502.143"/>
			<point x="658.857" y="509.286" type="curve" smooth="yes"/>
		</contour>
		<contour>
			<point x="233.714" y="1409.57" type="curve" smooth="yes"/>
			<point x="233.714" y="1313.71"/>
			<point x="298.571" y="1266.71"/>
			<point x="386.143" y="1266.71" type="curve" smooth="yes"/>
			<point x="471.429" y="1266.71"/>
			<point x="540.857" y="1313.71"/>
			<point x="540.857" y="1409.57" type="curve" smooth="yes"/>
			<point x="540.857" y="1507.57"/>
			<point x="471.429" y="1554"/>
			<point x="386.143" y="1554" type="curve" smooth="yes"/>
			<point x="298.571" y="1554"/>
			<point x="233.714" y="1507.57"/>
		</contour>
		<contour>
			<point x="698.429" y="1409.57" type="curve" smooth="yes"/>
			<point x="698.429" y="1313.71"/>
			<point x="763.286" y="1266.71"/>
			<point x="852.571" y="1266.71" type="curve" smooth="yes"/>
			<point x="938.714" y="1266.71"/>
			<point x="1008.14" y="1313.71"/>
			<point x="1008.14" y="1409.57" type="curve" smooth="yes"/>
			<point x="1008.14" y="1507.57"/>
			<point x="938.714" y="1554"/>
			<point x="852.571" y="1554" type="curve" smooth="yes"/>
			<point x="763.286" y="1554"/>
			<point x="698.429" y="1507.57"/>
		</contour>
	</outline>
	<anchor name="bottom" x="622.571" y="0"/>
	<anchor name="top" x="622.571" y="1554"/>
</glyph>
<glyph name="ccedilla" format="2">
	<unicode hex="00E7"/>
	<advance width="1084"/>
	<outline>
		<contour>
			<point x="646.286" y="-20" type="curve" smooth="yes"/>
			<point x="796.143" y="-20"/>
			<point x="907" y="16"/>
			<point x="997.286" y="73.2857" type="curve"/>
			<point x="997.286" y="347.143" type="line"/>
			<point x="899.286" y="288.429"/>
			<point x="785.571" y="253.857"/>
			<point x="674.571" y="253.857" type="curve" smooth="yes"/>
			<point x="528.143" y="253.857"/>
			<point x="439.143" y="351.143"/>
			<point x="439.143" y="559" type="curve" smooth="yes"/>
			<point x="439.143" y="766"/>
			<point x="533.714" y="875.286"/>
			<point x="677.857" y="875.286" type="curve" smooth="yes"/>
			<point x="762.714" y="875.286"/>
			<point x="839.571" y="850.286"/>
			<point x="931.857" y="809.857" type="curve"/>
			<point x="1031.86" y="1065" type="line"/>
			<point x="929.286" y="1115"/>
			<point x="811.143" y="1145.71"/>
			<point x="677.857" y="1145.71" type="curve" smooth="yes"/>
			<point x="337.429" y="1145.71"/>
			<point x="91" y="957.429"/>
			<point x="91" y="557.286" type="curve" smooth="yes"/>
			<point x="91" y="166.429"/>
			<point x="302" y="-20"/>
		</contour>
		<contour>
			<point x="860" y="-258.429" type="curve" smooth="yes"/>
			<point x="860" y="-132.143"/>
			<point x="758.286" y="-88.4286"/>
			<point x="671" y="-71.2857" type="curve"/>
			<point x="697" y="0" type="line"/>
			<point x="522.571" y="0" type="line"/>
			<point x="457.286" y="-144" type="line"/>
			<point x="567.286" y="-160.286"/>
			<point x="611.714" y="-186.429"/>
			<point x="611.714" y="-239" type="curve" smooth="yes"/>
			<point x="611.714" y="-282.143"/>
			<point x="574.429" y="-309.143"/>
			<point x="515.714" y="-309.143" type="curve" smooth="yes"/>
			<point x="469.857" y="-309.143"/>
			<point x="428.571" y="-302"/>
			<point x="385" y="-287.714" type="curve"/>
			<point x="385" y="-460.143" type="line"/>
			<point x="431.429" y="-476.714"/>
			<point x="503.286" y="-492"/>
			<point x="591.143" y="-492" type="curve" smooth="yes"/>
			<point x="752.429" y="-492"/>
			<point x="860" y="-399.714"/>
		</contour>
	</outline>
	<anchor name="bottom" x="639.429" y="-492"/>
	<anchor name="top" x="603.857" y="1125.57"/>
</glyph>
<glyph name="odieresis" format="2">
	<unicode hex="00F6"/>
	<advance width="1287"/>
	<outline>
		<contour>
			<point x="1193.86" y="565" type="curve" smooth="yes"/>
			<point x="1193.86" y="931.143"/>
			<point x="972.857" y="1145.71"/>
			<point x="646.857" y="1145.71" type="curve" smooth="yes"/>
			<point x="300.429" y="1145.71"/>
			<point x="91" y="935.571"/>
			<point x="91" y="565" type="curve" smooth="yes"/>
			<point x="91" y="194.143"/>
			<point x="315.143" y="-20"/>
			<point x="640" y="-20" type="curve" smooth="yes"/>
			<point x="987.571" y="-20"/>
			<point x="1193.86" y="194.714"/>
		</contour>
		<contour>
			<point x="439.143" y="565" type="curve" smooth="yes"/>
			<point x="439.143" y="776"/>
			<point x="502.857" y="889"/>
			<point x="643.429" y="889" type="curve" smooth="yes"/>
			<point x="790.143" y="889"/>
			<point x="844.714" y="770.714"/>
			<point x="844.714" y="565" type="curve" smooth="yes"/>
			<point x="844.714" y="356.286"/>
			<point x="788" y="235.857"/>
			<point x="643.429" y="235.857" type="curve" smooth="yes"/>
			<point x="498.429" y="235.857"/>
			<point x="439.143" y="355.714"/>
		</contour>
		<contour>
			<point x="256.286" y="1409.57" type="curve" smooth="yes"/>
			<point x="256.286" y="1313.71"/>
			<point x="321.143" y="1266.71"/>
			<point x="408.714" y="1266.71" type="curve" smooth="yes"/>
			<point x="494" y="1266.71"/>
			<point x="563.429" y="1313.71"/>
			<point x="563.429" y="1409.57" type="curve" smooth="yes"/>
			<point x="563.429" y="1507.57"/>
			<point x="494" y="1554"/>
			<point x="408.714" y="1554" type="curve" smooth="yes"/>
			<point x="321.143" y="1554"/>
			<point x="256.286" y="1507.57"/>
		</contour>
		<contour>
			<point x="721" y="1409.57" type="curve" smooth="yes"/>
			<point x="721" y="1313.71"/>
			<point x="785.857" y="1266.71"/>
			<point x="875.143" y="1266.71" type="curve" smooth="yes"/>
			<point x="961.286" y="1266.71"/>
			<point x="1030.71" y="1313.71"/>
			<point x="1030.71" y="1409.57" type="curve" smooth="yes"/>
			<point x="1030.71" y="1507.57"/>
			<point x="961.286" y="1554"/>
			<point x="875.143" y="1554" type="curve" smooth="yes"/>
			<point x="785.857" y="1554"/>
			<point x="721" y="1507.57"/>
		</contour>
	</outline>
	<anchor name="bottom" x="640.571" y="0"/>
	<anchor name="top" x="644" y="1554"/>
</glyph>
<glyph name="divide" format="2">
	<unicode hex="00F7"/>
	<advance width="1195"/>
	<outline>
		<contour>
			<point x="95" y="603.714" type="line"/>
			<point x="1098.71" y="603.714" type="line"/>
			<point x="1098.71" y="840.571" type="line"/>
			<point x="95" y="840.571" type="line"/>
		</contour>
		<contour>
			<point x="595.714" y="181" type="curve" smooth="yes"/>
			<point x="673" y="181"/>
			<point x="739" y="228.857"/>
			<point x="739" y="335.714" type="curve" smooth="yes"/>
			<point x="739" y="449.286"/>
			<point x="673" y="490.571"/>
			<point x="595.714" y="490.571" type="curve" smooth="yes"/>
			<point x="517.857" y="490.571"/>
			<point x="454.571" y="449.286"/>
			<point x="454.571" y="335.714" type="curve" smooth="yes"/>
			<point x="454.571" y="228.857"/>
			<point x="517.857" y="181"/>
		</contour>
		<contour>
			<point x="595.714" y="953.714" type="curve" smooth="yes"/>
			<point x="673" y="953.714"/>
			<point x="739" y="1001.57"/>
			<point x="739" y="1108.43" type="curve" smooth="yes"/>
			<point x="739" y="1222"/>
			<point x="673" y="1263.29"/>
			<point x="595.714" y="1263.29" type="curve" smooth="yes"/>
			<point x="517.857" y="1263.29"/>
			<point x="454.571" y="1222"/>
			<point x="454.571" y="1108.43" type="curve" smooth="yes"/>
			<point x="454.571" y="1001.57"/>
			<point x="517.857" y="953.714"/>
		</contour>
	</outline>
</glyph>
<glyph name="udieresis" format="2">
	<unicode hex="00FC"/>
	<advance width="1344"/>
	<outline>
		<contour>
			<point x="1201" y="1125.57" type="line"/>
			<point x="858.286" y="1125.57" type="line"/>
			<point x="858.286" y="612.143" type="line" smooth="yes"/>
			<point x="858.286" y="377.143"/>
			<point x="802" y="252.143"/>
			<point x="641.571" y="252.143" type="curve" smooth="yes"/>
			<point x="530.286" y="252.143"/>
			<point x="480.714" y="334.429"/>
			<point x="480.714" y="495" type="curve" smooth="yes"/>
			<point x="480.714" y="1125.57" type="line"/>
			<point x="138" y="1125.57" type="line"/>
			<point x="138" y="391.857" type="line" smooth="yes"/>
			<point x="138" y="105.857"/>
			<point x="303.571" y="-20"/>
			<point x="529.286" y="-20" type="curve" smooth="yes"/>
			<point x="682" y="-20"/>
			<point x="811" y="37.7143"/>
			<point x="878.571" y="153.286" type="curve"/>
			<point x="898.857" y="153.286" type="line"/>
			<point x="942" y="0" type="line"/>
			<point x="1201" y="0" type="line"/>
		</contour>
		<contour>
			<point x="284.571" y="1409.57" type="curve" smooth="yes"/>
			<point x="284.571" y="1313.71"/>
			<point x="349.429" y="1266.71"/>
			<point x="437" y="1266.71" type="curve" smooth="yes"/>
			<point x="522.286" y="1266.71"/>
			<point x="591.714" y="1313.71"/>
			<point x="591.714" y="1409.57" type="curve" smooth="yes"/>
			<point x="591.714" y="1507.57"/>
			<point x="522.286" y="1554"/>
			<point x="437" y="1554" type="curve" smooth="yes"/>
			<point x="349.429" y="1554"/>
			<point x="284.571" y="1507.57"/>
		</contour>
		<contour>
			<point x="749.286" y="1409.57" type="curve" smooth="yes"/>
			<point x="749.286" y="1313.71"/>
			<point x="814.143" y="1266.71"/>
			<point x="903.429" y="1266.71" type="curve" smooth="yes"/>
			<point x="989.571" y="1266.71"/>
			<point x="1059" y="1313.71"/>
			<point x="1059" y="1409.57" type="curve" smooth="yes"/>
			<point x="1059" y="1507.57"/>
			<point x="989.571" y="1554"/>
			<point x="903.429" y="1554" type="curve" smooth="yes"/>
			<point x="814.143" y="1554"/>
			<point x="749.286" y="1507.57"/>
		</contour>
	</outline>
	<anchor name="bottom" x="661.714" y="0"/>
	<anchor name="top" x="672" y="1554"/>
</glyph>
<glyph name="thorn" format="2">
	<unicode hex="00FE"/>
	<advance width="1299"/>
	<outline>
		<contour>
			<point x="1207.29" y="566.429" type="curve" smooth="yes"/>
			<point x="1207.29" y="946.143"/>
			<point x="1043.71" y="1145.71"/>
			<point x="800.429" y="1145.71" type="curve" smooth="yes"/>
			<point x="640.571" y="1145.71"/>
			<point x="536.143" y="1064.14"/>
			<point x="485.143" y="964.714" type="curve"/>
			<point x="469.143" y="964.714" type="line"/>
			<point x="476.286" y="1009.57"/>
			<point x="485.143" y="1088.86"/>
			<point x="485.143" y="1192.43" type="curve" smooth="yes"/>
			<point x="485.143" y="1556" type="line"/>
			<point x="142.286" y="1556" type="line"/>
			<point x="142.286" y="-489.571" type="line"/>
			<point x="485.143" y="-489.571" type="line"/>
			<point x="485.143" y="-41.2857" type="line" smooth="yes"/>
			<point x="485.143" y="7.85714"/>
			<point x="480" y="79"/>
			<point x="472.571" y="127.429" type="curve"/>
			<point x="485.143" y="127.429" type="line"/>
			<point x="541.286" y="50.2857"/>
			<point x="634" y="-20"/>
			<point x="785.571" y="-20" type="curve" smooth="yes"/>
			<point x="1032.43" y="-20"/>
			<point x="1207.29" y="182.571"/>
		</contour>
		<contour>
			<point x="858.286" y="569.857" type="curve" smooth="yes"/>
			<point x="858.286" y="364.714"/>
			<point x="806" y="257.286"/>
			<point x="678.429" y="257.286" type="curve" smooth="yes"/>
			<point x="541.286" y="257.286"/>
			<point x="485.429" y="362"/>
			<point x="485.429" y="566.143" type="curve" smooth="yes"/>
			<point x="485.429" y="591.857" type="line"/>
			<point x="488.857" y="778"/>
			<point x="541.857" y="875.286"/>
			<point x="676.143" y="875.286" type="curve" smooth="yes"/>
			<point x="807" y="875.286"/>
			<point x="858.286" y="771.571"/>
		</contour>
	</outline>
	<anchor name="bottom" x="650.286" y="-489.571"/>
	<anchor name="top" x="650.286" y="1556"/>
</glyph>
<glyph name="dcroat" format="2">
	<unicode hex="0111"/>
	<advance width="1334"/>
	<outline>
		<contour>
			<point x="486.571" y="-20" type="curve" smooth="yes"/>
			<point x="641.571" y="-20"/>
			<point x="731.571" y="58.8571"/>
			<point x="788.286" y="155.571" type="curve"/>
			<point x="801" y="155.571" type="line"/>
			<point x="877" y="0" type="line"/>
			<point x="1157.71" y="0" type="line"/>
			<point x="1157.71" y="1184.57" type="line"/>
			<point x="1312.14" y="1184.57" type="line"/>
			<point x="1312.14" y="1399.29" type="line"/>
			<point x="1157.71" y="1399.29" type="line"/>
			<point x="1157.71" y="1556" type="line"/>
			<point x="812.286" y="1556" type="line"/>
			<point x="812.286" y="1399.29" type="line"/>
			<point x="543.571" y="1399.29" type="line"/>
			<point x="543.571" y="1184.57" type="line"/>
			<point x="812.286" y="1184.57" type="line"/>
			<point x="812.286" y="1150.57" type="line" smooth="yes"/>
			<point x="812.286" y="1032.86"/>
			<point x="832" y="924.571"/>
			<point x="839.571" y="883.143" type="curve"/>
			<point x="832" y="883.143" type="line"/>
			<point x="775" y="982.429"/>
			<point x="680.714" y="1060"/>
			<point x="520.571" y="1060" type="curve" smooth="yes"/>
			<point x="265.857" y="1060"/>
			<point x="91" y="884.714"/>
			<point x="91" y="514.857" type="curve" smooth="yes"/>
			<point x="91" y="166.571"/>
			<point x="250.857" y="-20"/>
		</contour>
		<contour>
			<point x="655.429" y="252.143" type="curve" smooth="yes"/>
			<point x="526.143" y="252.143"/>
			<point x="469.143" y="366.143"/>
			<point x="469.143" y="511.429" type="curve" smooth="yes"/>
			<point x="469.143" y="707.714"/>
			<point x="543.714" y="781.857"/>
			<point x="652.571" y="781.857" type="curve" smooth="yes"/>
			<point x="769.714" y="781.857"/>
			<point x="840.286" y="687.714"/>
			<point x="840.286" y="516.714" type="curve" smooth="yes"/>
			<point x="840.286" y="494.429" type="line"/>
			<point x="836.857" y="334.714"/>
			<point x="790.286" y="252.143"/>
		</contour>
	</outline>
	<anchor name="bottom" x="668" y="0"/>
	<anchor name="top" x="668" y="1556"/>
</glyph>
<glyph name="eogonek" format="2">
	<unicode hex="0119"/>
	<advance width="1243"/>
	<outline>
		<component base="e"/>
		<contour>
			<point x="886.714" y="-197.714" type="curve" smooth="yes"/>
			<point x="886.714" y="-132.286"/>
			<point x="920.429" y="-76.2857"/>
			<point x="1079.43" y="59.8571" type="curve"/>
			<point x="891.143" y="50.1429" type="line"/>
			<point x="714.143" y="-72.8571"/>
			<point x="662.286" y="-169.429"/>
			<point x="662.286" y="-262.286" type="curve" smooth="yes"/>
			<point x="662.286" y="-401"/>
			<point x="775.571" y="-485.143"/>
			<point x="922.714" y="-485.143" type="curve" smooth="yes"/>
			<point x="992.286" y="-485.143"/>
			<point x="1044.71" y="-472.857"/>
			<point x="1086.57" y="-459.714" type="curve"/>
			<point x="1086.57" y="-263.286" type="line"/>
			<point x="1058.43" y="-274.714"/>
			<point x="1016.29" y="-284.143"/>
			<point x="975.714" y="-284.143" type="curve" smooth="yes"/>
			<point x="924" y="-284.143"/>
			<point x="886.714" y="-253.714"/>
		</contour>
	</outline>
	<anchor name="bottom" x="663.571" y="-485.143"/>
	<anchor name="top" x="621.571" y="1125.57"/>
</glyph>
<glyph name="Hbar" format="2">
	<unicode hex="0126"/>
	<advance width="1580"/>
	<outline>
		<contour>
			<point x="179.286" y="0" type="line"/>
			<point x="525.429" y="0" type="line"/>
			<point x="525.429" y="617" type="line"/>
			<point x="1051.71" y="617" type="line"/>
			<point x="1051.71" y="0" type="line"/>
			<point x="1399.57" y="0" type="line"/>
			<point x="1399.57" y="1075.14" type="line"/>
			<point x="1579.71" y="1075.14" type="line"/>
			<point x="1579.71" y="1282.29" type="line"/>
			<point x="1399.57" y="1282.29" type="line"/>
			<point x="1399.57" y="1462" type="line"/>
			<point x="1051.71" y="1462" type="line"/>
			<point x="1051.71" y="1282.29" type="line"/>
			<point x="525.429" y="1282.29" type="line"/>
			<point x="525.429" y="1462" type="line"/>
			<point x="179.286" y="1462" type="line"/>
			<point x="179.286" y="1282.29" type="line"/>
			<point x="0" y="1282.29" type="line"/>
			<point x="0" y="1075.14" type="line"/>
			<point x="179.286" y="1075.14" type="line"/>
		</contour>
		<contour>
			<point x="525.429" y="902.143" type="line"/>
			<point x="525.429" y="1075.14" type="line"/>
			<point x="1051.71" y="1075.14" type="line"/>
			<point x="1051.71" y="902.143" type="line"/>
		</contour>
	</outline>
	<anchor name="bottom" x="789.857" y="0"/>
	<anchor name="top" x="789.857" y="1462"/>
</glyph>
<glyph name="hbar" format="2">
	<unicode hex="0127"/>
	<advance width="1362"/>
	<outline>
		<contour>
			<point x="502.857" y="1556" type="line"/>
			<point x="160" y="1556" type="line"/>
			<point x="160" y="1399.29" type="line"/>
			<point x="4.71429" y="1399.29" type="line"/>
			<point x="4.71429" y="1184.57" type="line"/>
			<point x="160" y="1184.57" type="line"/>
			<point x="160" y="0" type="line"/>
			<point x="502.857" y="0" type="line"/>
			<point x="502.857" y="426.857" type="line" smooth="yes"/>
			<point x="502.857" y="662.714"/>
			<point x="564.143" y="788.714"/>
			<point x="718.714" y="788.714" type="curve" smooth="yes"/>
			<point x="825.857" y="788.714"/>
			<point x="879.429" y="707.714"/>
			<point x="879.429" y="545" type="curve" smooth="yes"/>
			<point x="879.429" y="0" type="line"/>
			<point x="1224.71" y="0" type="line"/>
			<point x="1224.71" y="649" type="line" smooth="yes"/>
			<point x="1224.71" y="935"/>
			<point x="1055.43" y="1060"/>
			<point x="829.286" y="1060" type="curve" smooth="yes"/>
			<point x="679" y="1060"/>
			<point x="577.571" y="1004.43"/>
			<point x="508" y="887.429" type="curve"/>
			<point x="487.571" y="887.429" type="line"/>
			<point x="494" y="949.857"/>
			<point x="501.143" y="1047.43"/>
			<point x="501.143" y="1110.29" type="curve" smooth="yes"/>
			<point x="501.143" y="1184.57" type="line"/>
			<point x="773.286" y="1184.57" type="line"/>
			<point x="773.286" y="1399.29" type="line"/>
			<point x="502.857" y="1399.29" type="line"/>
		</contour>
	</outline>
	<anchor name="bottom" x="680.571" y="0"/>
	<anchor name="top" x="372" y="1556"/>
</glyph>
<glyph name="idotless" format="2">
	<unicode hex="0131"/>
	<advance width="631"/>
	<outline>
		<contour>
			<point x="486.571" y="0" type="line"/>
			<point x="486.571" y="1125.57" type="line"/>
			<point x="143.714" y="1125.57" type="line"/>
			<point x="143.714" y="0" type="line"/>
		</contour>
	</outline>
	<anchor name="bottom" x="315" y="0"/>
	<anchor name="top" x="316.714" y="1125.57"/>
</glyph>
<glyph name="Lslash" format="2">
	<unicode hex="0141"/>
	<advance width="1217"/>
	<outline>
		<contour>
			<point x="212.714" y="0" type="line"/>
			<point x="1145.86" y="0" type="line"/>
			<point x="1145.86" y="280.714" type="line"/>
			<point x="558.857" y="280.714" type="line"/>
			<point x="558.857" y="709.143" type="line"/>
			<point x="921" y="935.429" type="line"/>
			<point x="789.714" y="1150.71" type="line"/>
			<point x="558.857" y="1006.29" type="line"/>
			<point x="558.857" y="1462" type="line"/>
			<point x="212.714" y="1462" type="line"/>
			<point x="212.714" y="792.143" type="line"/>
			<point x="-23.7143" y="650.286" type="line"/>
			<point x="102.429" y="431.571" type="line"/>
			<point x="212.714" y="495.143" type="line"/>
		</contour>
	</outline>
	<anchor name="bottom" x="625.429" y="0"/>
	<anchor name="top" x="332.286" y="1462"/>
</glyph>
<glyph name="Eng" format="2">
	<unicode hex="014A"/>
	<advance width="1668"/>
	<outline>
		<contour>
			<point x="1011.29" y="-470" type="curve" smooth="yes"/>
			<point x="1303.14" y="-470"/>
			<point x="1502.43" y="-307.571"/>
			<point x="1502.43" y="-6" type="curve" smooth="yes"/>
			<point x="1502.43" y="1462" type="line"/>
			<point x="1193" y="1462" type="line"/>
			<point x="1193" y="983.143" type="line" smooth="yes"/>
			<point x="1193" y="852.286"/>
			<point x="1201.57" y="659"/>
			<point x="1207" y="577.571" type="curve"/>
			<point x="1199.57" y="577.571" type="line"/>
			<point x="578.571" y="1462" type="line"/>
			<point x="165.571" y="1462" type="line"/>
			<point x="165.571" y="0" type="line"/>
			<point x="473.143" y="0" type="line"/>
			<point x="473.143" y="673.143" type="line" smooth="yes"/>
			<point x="473.143" y="817.286"/>
			<point x="464.571" y="989"/>
			<point x="456.571" y="1074.43" type="curve"/>
			<point x="464.857" y="1074.43" type="line"/>
			<point x="1211" y="2.85714" type="line"/>
			<point x="1201.57" y="-132.714"/>
			<point x="1127.29" y="-199.286"/>
			<point x="967.286" y="-199.286" type="curve" smooth="yes"/>
			<point x="900.571" y="-199.286"/>
			<point x="846.714" y="-187.571"/>
			<point x="796.857" y="-178.714" type="curve"/>
			<point x="796.857" y="-449.143" type="line"/>
			<point x="844.857" y="-459.429"/>
			<point x="918.286" y="-470"/>
		</contour>
	</outline>
	<anchor name="bottom" x="834.143" y="-470"/>
	<anchor name="top" x="834.143" y="1462"/>
</glyph>
<glyph name="Tbar" format="2">
	<unicode hex="0166"/>
	<advance width="1185"/>
	<outline>
		<contour>
			<point x="419.571" y="0" type="line"/>
			<point x="765.857" y="0" type="line"/>
			<point x="765.857" y="572.714" type="line"/>
			<point x="1002" y="572.714" type="line"/>
			<point x="1002" y="858.571" type="line"/>
			<point x="765.857" y="858.571" type="line"/>
			<point x="765.857" y="1177.86" type="line"/>
			<point x="1140.57" y="1177.86" type="line"/>
			<point x="1140.57" y="1462" type="line"/>
			<point x="44.2857" y="1462" type="line"/>
			<point x="44.2857" y="1177.86" type="line"/>
			<point x="419.571" y="1177.86" type="line"/>
			<point x="419.571" y="858.571" type="line"/>
			<point x="186.571" y="858.571" type="line"/>
			<point x="186.571" y="572.714" type="line"/>
			<point x="419.571" y="572.714" type="line"/>
		</contour>
	</outline>
	<anchor name="bottom" x="593.429" y="0"/>
	<anchor name="top" x="593.429" y="1462"/>
</glyph>
<glyph name="tbar" format="2">
	<unicode hex="0167"/>
	<advance width="936"/>
	<outline>
		<component base="t"/>
		<contour>
			<point x="68.7143" y="464" type="line"/>
			<point x="787.857" y="464" type="line"/>
			<point x="787.857" y="680.429" type="line"/>
			<point x="68.7143" y="680.429" type="line"/>
		</contour>
	</outline>
	<anchor name="bottom" x="519.571" y="0"/>
	<anchor name="top" x="416.714" y="1358.57"/>
</glyph>
<glyph name="uni0180" format="2">
	<unicode hex="0180"/>
	<advance width="1311"/>
	<outline>
		<contour>
			<point x="802.857" y="-20" type="curve" smooth="yes"/>
			<point x="1048" y="-20"/>
			<point x="1225.57" y="173.857"/>
			<point x="1225.57" y="565.571" type="curve" smooth="yes"/>
			<point x="1225.57" y="970.714"/>
			<point x="1050" y="1119.43"/>
			<point x="816.143" y="1119.43" type="curve" smooth="yes"/>
			<point x="647.714" y="1119.43"/>
			<point x="551" y="1034.43"/>
			<point x="502.571" y="949.286" type="curve"/>
			<point x="489" y="949.286" type="line"/>
			<point x="498.714" y="1011.29"/>
			<point x="502.571" y="1078.57"/>
			<point x="502.571" y="1153.86" type="curve" smooth="yes"/>
			<point x="502.571" y="1179.43" type="line"/>
			<point x="784.143" y="1179.43" type="line"/>
			<point x="784.143" y="1402.71" type="line"/>
			<point x="502.571" y="1402.71" type="line"/>
			<point x="502.571" y="1556" type="line"/>
			<point x="154.571" y="1556" type="line"/>
			<point x="154.571" y="1402.71" type="line"/>
			<point x="-0.714286" y="1402.71" type="line"/>
			<point x="-0.714286" y="1179.43" type="line"/>
			<point x="154.571" y="1179.43" type="line"/>
			<point x="154.571" y="0" type="line"/>
			<point x="427.571" y="0" type="line"/>
			<point x="481.143" y="119.571" type="line"/>
			<point x="503.143" y="119.571" type="line"/>
			<point x="557.286" y="53.1429"/>
			<point x="631.143" y="-20"/>
		</contour>
		<contour>
			<point x="695.714" y="260.714" type="curve" smooth="yes"/>
			<point x="551.429" y="260.714"/>
			<point x="502.571" y="370.714"/>
			<point x="502.571" y="571.143" type="curve" smooth="yes"/>
			<point x="502.571" y="582.714" type="line"/>
			<point x="507.714" y="759.429"/>
			<point x="589.571" y="843.857"/>
			<point x="695.286" y="843.857" type="curve" smooth="yes"/>
			<point x="799.286" y="843.857"/>
			<point x="870.571" y="768.714"/>
			<point x="870.571" y="569" type="curve" smooth="yes"/>
			<point x="870.571" y="367.857"/>
			<point x="796.857" y="260.714"/>
		</contour>
	</outline>
	<anchor name="bottom" x="656.286" y="0"/>
	<anchor name="top" x="656.286" y="1556"/>
</glyph>
<glyph name="uni0184" format="2">
	<unicode hex="0184"/>
	<advance width="1377"/>
	<outline>
		<contour>
			<point x="727.286" y="-26.5714" type="curve" smooth="yes"/>
			<point x="1108.71" y="-26.5714"/>
			<point x="1290.71" y="162.286"/>
			<point x="1290.71" y="452.857" type="curve" smooth="yes"/>
			<point x="1290.71" y="721.286"/>
			<point x="1101.43" y="919"/>
			<point x="676.429" y="919" type="curve" smooth="yes"/>
			<point x="518.571" y="919" type="line"/>
			<point x="518.571" y="1462" type="line"/>
			<point x="167.286" y="1462" type="line"/>
			<point x="167.286" y="441.571" type="line" smooth="yes"/>
			<point x="167.286" y="111.143"/>
			<point x="370" y="-26.5714"/>
		</contour>
		<contour>
			<point x="715.571" y="261.857" type="curve" smooth="yes"/>
			<point x="585.286" y="261.857"/>
			<point x="518.571" y="326.143"/>
			<point x="518.571" y="458.571" type="curve" smooth="yes"/>
			<point x="518.571" y="630.571" type="line"/>
			<point x="627.857" y="630.571" type="line" smooth="yes"/>
			<point x="818" y="630.571"/>
			<point x="935.571" y="604.286"/>
			<point x="935.571" y="452.857" type="curve" smooth="yes"/>
			<point x="935.571" y="318.286"/>
			<point x="843.429" y="261.857"/>
		</contour>
	</outline>
	<anchor name="bottom" x="689.143" y="0"/>
	<anchor name="top" x="689.143" y="1462"/>
</glyph>
<glyph name="uni0186" format="2">
	<unicode hex="0186"/>
	<advance width="1319"/>
	<outline>
		<contour>
			<point x="499.143" y="-20" type="curve" smooth="yes"/>
			<point x="974.429" y="-20"/>
			<point x="1211.14" y="310.857"/>
			<point x="1211.14" y="756.286" type="curve" smooth="yes"/>
			<point x="1211.14" y="1196"/>
			<point x="993.143" y="1483"/>
			<point x="538.429" y="1483" type="curve" smooth="yes"/>
			<point x="395.714" y="1483"/>
			<point x="214.571" y="1451.14"/>
			<point x="71.4286" y="1382.14" type="curve"/>
			<point x="156.571" y="1113.29" type="line"/>
			<point x="264.143" y="1165.86"/>
			<point x="392" y="1198"/>
			<point x="515" y="1198" type="curve" smooth="yes"/>
			<point x="732.714" y="1198"/>
			<point x="855.286" y="1019.86"/>
			<point x="855.286" y="729.714" type="curve" smooth="yes"/>
			<point x="855.286" y="431.714"/>
			<point x="727.429" y="264.143"/>
			<point x="480" y="264.143" type="curve" smooth="yes"/>
			<point x="348" y="264.143"/>
			<point x="234.857" y="302.714"/>
			<point x="115.429" y="351.429" type="curve"/>
			<point x="115.429" y="57.8571" type="line"/>
			<point x="232" y="9.14286"/>
			<point x="352.857" y="-20"/>
		</contour>
	</outline>
	<anchor name="bottom" x="572.429" y="0"/>
	<anchor name="top" x="572.429" y="1462"/>
</glyph>
<glyph name="uni0187" format="2">
	<unicode hex="0187"/>
	<advance width="1310"/>
	<outline>
		<contour>
			<point x="1299.29" y="1810.14" type="curve" smooth="yes"/>
			<point x="1114.57" y="1810.14"/>
			<point x="958.714" y="1707.14"/>
			<point x="958.714" y="1472.71" type="curve" smooth="yes"/>
			<point x="958.714" y="1462.14" type="line"/>
			<point x="907.714" y="1475.14"/>
			<point x="854.571" y="1483"/>
			<point x="799.857" y="1483" type="curve" smooth="yes"/>
			<point x="350.714" y="1483"/>
			<point x="117" y="1166.43"/>
			<point x="117" y="728.429" type="curve" smooth="yes"/>
			<point x="117" y="277.286"/>
			<point x="314" y="-20"/>
			<point x="773" y="-20" type="curve" smooth="yes"/>
			<point x="933.143" y="-20"/>
			<point x="1048.71" y="4.57143"/>
			<point x="1185" y="62.7143" type="curve"/>
			<point x="1185" y="358.286" type="line"/>
			<point x="1037.29" y="304.429"/>
			<point x="922.286" y="271"/>
			<point x="799.571" y="271" type="curve" smooth="yes"/>
			<point x="571.286" y="271"/>
			<point x="478.857" y="433"/>
			<point x="478.857" y="726.714" type="curve" smooth="yes"/>
			<point x="478.857" y="1013.57"/>
			<point x="592" y="1191.14"/>
			<point x="798.143" y="1191.14" type="curve" smooth="yes"/>
			<point x="901.714" y="1191.14"/>
			<point x="1015" y="1141.86"/>
			<point x="1124.29" y="1091.14" type="curve"/>
			<point x="1236" y="1350.43" type="line"/>
			<point x="1236" y="1422.29" type="line" smooth="yes"/>
			<point x="1236" y="1503.57"/>
			<point x="1272.71" y="1534"/>
			<point x="1335" y="1534" type="curve" smooth="yes"/>
			<point x="1382.29" y="1534"/>
			<point x="1424.71" y="1522"/>
			<point x="1449.43" y="1513.71" type="curve"/>
			<point x="1449.43" y="1779.29" type="line"/>
			<point x="1427.57" y="1790.71"/>
			<point x="1363.71" y="1810.14"/>
		</contour>
	</outline>
	<anchor name="bottom" x="755" y="0"/>
	<anchor name="top" x="731" y="1743.14"/>
</glyph>
<glyph name="uni0188" format="2">
	<unicode hex="0188"/>
	<advance width="1068"/>
	<outline>
		<contour>
			<point x="614.571" y="-20" type="curve" smooth="yes"/>
			<point x="779.857" y="-20"/>
			<point x="871.857" y="5.71429"/>
			<point x="970.714" y="71.5714" type="curve"/>
			<point x="970.714" y="366.857" type="line"/>
			<point x="875.286" y="298.714"/>
			<point x="782.143" y="260.714"/>
			<point x="648" y="260.714" type="curve" smooth="yes"/>
			<point x="517.857" y="260.714"/>
			<point x="440.857" y="346.857"/>
			<point x="440.857" y="559" type="curve" smooth="yes"/>
			<point x="440.857" y="762.571"/>
			<point x="509.714" y="868.429"/>
			<point x="647.857" y="868.429" type="curve" smooth="yes"/>
			<point x="732.714" y="868.429"/>
			<point x="813" y="838.286"/>
			<point x="907" y="796.143" type="curve"/>
			<point x="1010.43" y="1051.29" type="line"/>
			<point x="1010.43" y="1173.71" type="line" smooth="yes"/>
			<point x="1010.43" y="1258.71"/>
			<point x="1047.71" y="1288.86"/>
			<point x="1110.86" y="1288.86" type="curve" smooth="yes"/>
			<point x="1157.71" y="1288.86"/>
			<point x="1198.86" y="1277.14"/>
			<point x="1223.29" y="1269" type="curve"/>
			<point x="1223.29" y="1534.43" type="line"/>
			<point x="1200.29" y="1545.86"/>
			<point x="1141.43" y="1566.71"/>
			<point x="1077.43" y="1566.71" type="curve" smooth="yes"/>
			<point x="875.143" y="1566.71"/>
			<point x="733.143" y="1463.57"/>
			<point x="733.143" y="1183.71" type="curve" smooth="yes"/>
			<point x="733.143" y="1138.14" type="line"/>
			<point x="706.714" y="1144.29"/>
			<point x="676.714" y="1145.71"/>
			<point x="646.143" y="1145.71" type="curve" smooth="yes"/>
			<point x="323.714" y="1145.71"/>
			<point x="85.8571" y="979.714"/>
			<point x="85.8571" y="557.286" type="curve" smooth="yes"/>
			<point x="85.8571" y="148.429"/>
			<point x="275.429" y="-20"/>
		</contour>
	</outline>
	<anchor name="bottom" x="619.857" y="0"/>
	<anchor name="top" x="581.286" y="1566.71"/>
</glyph>
<glyph name="uni018A" format="2">
	<unicode hex="018A"/>
	<advance width="1790"/>
	<outline>
		<contour>
			<point x="450.857" y="0" type="line"/>
			<point x="874.857" y="0" type="line" smooth="yes"/>
			<point x="1381.71" y="0"/>
			<point x="1682" y="252.571"/>
			<point x="1682" y="745" type="curve" smooth="yes"/>
			<point x="1682" y="1213.43"/>
			<point x="1379.14" y="1462"/>
			<point x="920.143" y="1462" type="curve" smooth="yes"/>
			<point x="408.714" y="1462" type="line" smooth="yes"/>
			<point x="107.857" y="1462"/>
			<point x="7.71429" y="1291.43"/>
			<point x="7.71429" y="1092.29" type="curve" smooth="yes"/>
			<point x="7.71429" y="1035.29"/>
			<point x="23.5714" y="992.286"/>
			<point x="33.8571" y="972" type="curve"/>
			<point x="304.571" y="972" type="line"/>
			<point x="296.571" y="992.571"/>
			<point x="283.714" y="1019.86"/>
			<point x="283.714" y="1066.57" type="curve" smooth="yes"/>
			<point x="283.714" y="1125.86"/>
			<point x="320.143" y="1174.43"/>
			<point x="399" y="1174.43" type="curve" smooth="yes"/>
			<point x="450.857" y="1174.43" type="line"/>
		</contour>
		<contour>
			<point x="802.286" y="290.143" type="line"/>
			<point x="802.286" y="1174.43" type="line"/>
			<point x="947.143" y="1174.43" type="line" smooth="yes"/>
			<point x="1192.43" y="1174.43"/>
			<point x="1318.29" y="1039.14"/>
			<point x="1318.29" y="736.143" type="curve" smooth="yes"/>
			<point x="1318.29" y="440.143"/>
			<point x="1188.71" y="290.143"/>
			<point x="912.571" y="290.143" type="curve" smooth="yes"/>
		</contour>
	</outline>
	<anchor name="bottom" x="900.571" y="0"/>
	<anchor name="top" x="900.571" y="1462"/>
</glyph>
<glyph name="uni018C" format="2">
	<unicode hex="018C"/>
	<advance width="1311"/>
	<outline>
		<contour>
			<point x="496.857" y="-20" type="curve" smooth="yes"/>
			<point x="668.143" y="-20"/>
			<point x="759.857" y="62.2857"/>
			<point x="808.857" y="148.714" type="curve"/>
			<point x="820.714" y="148.714" type="line"/>
			<point x="885.571" y="0" type="line"/>
			<point x="1157.71" y="0" type="line"/>
			<point x="1157.71" y="1556" type="line"/>
			<point x="194.571" y="1556" type="line"/>
			<point x="194.571" y="1296.71" type="line"/>
			<point x="808.857" y="1296.71" type="line"/>
			<point x="808.857" y="1173.71" type="line" smooth="yes"/>
			<point x="808.857" y="1082.57"/>
			<point x="835.429" y="934.857"/>
			<point x="834.429" y="953.429" type="curve"/>
			<point x="823.429" y="953.429" type="line"/>
			<point x="776.714" y="1034.71"/>
			<point x="676.429" y="1119.14"/>
			<point x="510.286" y="1119.14" type="curve" smooth="yes"/>
			<point x="264.143" y="1119.14"/>
			<point x="85.8571" y="919.857"/>
			<point x="85.8571" y="562" type="curve" smooth="yes"/>
			<point x="85.8571" y="180.286"/>
			<point x="257.714" y="-20"/>
		</contour>
		<contour>
			<point x="630.571" y="255.571" type="curve" smooth="yes"/>
			<point x="510.714" y="255.571"/>
			<point x="437.429" y="357.571"/>
			<point x="437.429" y="556.857" type="curve" smooth="yes"/>
			<point x="437.429" y="739.429"/>
			<point x="513.714" y="840.143"/>
			<point x="627.714" y="840.143" type="curve" smooth="yes"/>
			<point x="780" y="840.143"/>
			<point x="833.714" y="735.714"/>
			<point x="833.714" y="557" type="curve" smooth="yes"/>
			<point x="833.714" y="522.714" type="line"/>
			<point x="828.571" y="339.857"/>
			<point x="773.143" y="255.571"/>
		</contour>
	</outline>
	<anchor name="bottom" x="656.286" y="0"/>
	<anchor name="top" x="656.286" y="1556"/>
</glyph>
<glyph name="uni0191" format="2">
	<unicode hex="0191"/>
	<advance width="1412"/>
	<outline>
		<contour>
			<point x="410.286" y="-31" type="curve" smooth="yes"/>
			<point x="655.571" y="-31"/>
			<point x="842.571" y="103.857"/>
			<point x="842.571" y="386.429" type="curve" smooth="yes"/>
			<point x="842.571" y="605.571" type="line"/>
			<point x="1270" y="605.571" type="line"/>
			<point x="1270" y="891.429" type="line"/>
			<point x="842.571" y="891.429" type="line"/>
			<point x="842.571" y="1176.14" type="line"/>
			<point x="1305.57" y="1176.14" type="line"/>
			<point x="1305.57" y="1462" type="line"/>
			<point x="501.571" y="1462" type="line"/>
			<point x="501.571" y="381.571" type="line" smooth="yes"/>
			<point x="501.571" y="273.857"/>
			<point x="454.429" y="215.143"/>
			<point x="374.571" y="215.143" type="curve" smooth="yes"/>
			<point x="305.857" y="215.143"/>
			<point x="255.571" y="258"/>
			<point x="255.571" y="337" type="curve" smooth="yes"/>
			<point x="255.571" y="382.714"/>
			<point x="264.143" y="414.571"/>
			<point x="282.429" y="454.571" type="curve"/>
			<point x="36.2857" y="541.143" type="line"/>
			<point x="4.85714" y="494"/>
			<point x="-23.1429" y="426.714"/>
			<point x="-23.1429" y="342.429" type="curve" smooth="yes"/>
			<point x="-23.1429" y="115.143"/>
			<point x="129.143" y="-31"/>
		</contour>
	</outline>
	<anchor name="bottom" x="396.571" y="-1.42857"/>
	<anchor name="top" x="908.286" y="1462"/>
	<anchor name="topright" x="1371" y="1462"/>
</glyph>
<glyph name="uni0194" format="2">
	<unicode hex="0194"/>
	<advance width="1360"/>
	<outline>
		<contour>
			<point x="669.714" y="-492" type="curve" smooth="yes"/>
			<point x="883" y="-492"/>
			<point x="1004" y="-353.286"/>
			<point x="1004" y="-160" type="curve" smooth="yes"/>
			<point x="1004" y="8.85714"/>
			<point x="919.857" y="153"/>
			<point x="838.143" y="295" type="curve"/>
			<point x="1372.29" y="1462" type="line"/>
			<point x="1001.71" y="1462" type="line"/>
			<point x="755.143" y="850" type="line"/>
			<point x="717.571" y="759.143"/>
			<point x="694.857" y="696"/>
			<point x="672.286" y="609.429" type="curve"/>
			<point x="653.571" y="694.286"/>
			<point x="631.143" y="758.286"/>
			<point x="595.571" y="853.143" type="curve" smooth="yes"/>
			<point x="369.571" y="1462" type="line"/>
			<point x="-0.857143" y="1462" type="line"/>
			<point x="498.714" y="299.857" type="line"/>
			<point x="419" y="144.429"/>
			<point x="341" y="-4.42857"/>
			<point x="341" y="-158.286" type="curve" smooth="yes"/>
			<point x="341" y="-362.143"/>
			<point x="457" y="-492"/>
		</contour>
		<contour>
			<point x="672" y="-248.857" type="curve" smooth="yes"/>
			<point x="627.429" y="-248.857"/>
			<point x="601.714" y="-213.571"/>
			<point x="601.714" y="-144" type="curve" smooth="yes"/>
			<point x="601.714" y="-70.1429"/>
			<point x="629.714" y="9.42857"/>
			<point x="672.286" y="86" type="curve"/>
			<point x="716" y="4.28571"/>
			<point x="743.286" y="-75"/>
			<point x="743.286" y="-142.286" type="curve" smooth="yes"/>
			<point x="743.286" y="-214.714"/>
			<point x="716.857" y="-248.857"/>
		</contour>
	</outline>
	<anchor name="bottom" x="680.143" y="-492"/>
	<anchor name="top" x="680.143" y="1462"/>
</glyph>
<glyph name="uni0197" format="2">
	<unicode hex="0197"/>
	<advance width="832"/>
	<outline>
		<contour>
			<point x="775.857" y="1462" type="line"/>
			<point x="58.1429" y="1462" type="line"/>
			<point x="58.1429" y="1263.29" type="line"/>
			<point x="240" y="1167" type="line"/>
			<point x="240" y="872.429" type="line"/>
			<point x="50.8571" y="872.429" type="line"/>
			<point x="50.8571" y="580.429" type="line"/>
			<point x="240" y="580.429" type="line"/>
			<point x="240" y="294.714" type="line"/>
			<point x="58.1429" y="198.714" type="line"/>
			<point x="58.1429" y="0" type="line"/>
			<point x="775.857" y="0" type="line"/>
			<point x="775.857" y="198.714" type="line"/>
			<point x="593" y="294.714" type="line"/>
			<point x="593" y="580.429" type="line"/>
			<point x="782.857" y="580.429" type="line"/>
			<point x="782.857" y="872.429" type="line"/>
			<point x="593" y="872.429" type="line"/>
			<point x="593" y="1167" type="line"/>
			<point x="775.857" y="1263.29" type="line"/>
		</contour>
	</outline>
	<anchor name="bottom" x="417" y="0"/>
	<anchor name="top" x="417" y="1462"/>
</glyph>
<glyph name="uni019C" format="2">
	<unicode hex="019C"/>
	<advance width="2137"/>
	<outline>
		<contour>
			<point x="582.429" y="-20" type="curve" smooth="yes"/>
			<point x="726.429" y="-20"/>
			<point x="845.571" y="38.5714"/>
			<point x="920.714" y="153.857" type="curve"/>
			<point x="937.571" y="153.857" type="line"/>
			<point x="1007.14" y="43.1429"/>
			<point x="1112" y="-20"/>
			<point x="1267.86" y="-20" type="curve" smooth="yes"/>
			<point x="1414.43" y="-20"/>
			<point x="1546.14" y="44.8571"/>
			<point x="1619.14" y="160.714" type="curve"/>
			<point x="1638.57" y="160.714" type="line"/>
			<point x="1685.29" y="0" type="line"/>
			<point x="1951.14" y="0" type="line"/>
			<point x="1951.14" y="1462" type="line"/>
			<point x="1596.29" y="1462" type="line"/>
			<point x="1596.29" y="626.143" type="line" smooth="yes"/>
			<point x="1596.29" y="400.714"/>
			<point x="1542.14" y="272.714"/>
			<point x="1382.71" y="272.714" type="curve" smooth="yes"/>
			<point x="1282.29" y="272.714"/>
			<point x="1235.71" y="344.429"/>
			<point x="1235.71" y="495.143" type="curve" smooth="yes"/>
			<point x="1235.71" y="1462" type="line"/>
			<point x="883.429" y="1462" type="line"/>
			<point x="883.429" y="602.143" type="line" smooth="yes"/>
			<point x="883.429" y="390.429"/>
			<point x="822.429" y="272.714"/>
			<point x="669.857" y="272.714" type="curve" smooth="yes"/>
			<point x="572.857" y="272.714"/>
			<point x="524.429" y="346.143"/>
			<point x="524.429" y="495.143" type="curve" smooth="yes"/>
			<point x="524.429" y="1462" type="line"/>
			<point x="171.429" y="1462" type="line"/>
			<point x="171.429" y="387.571" type="line" smooth="yes"/>
			<point x="171.429" y="94"/>
			<point x="341.571" y="-20"/>
		</contour>
	</outline>
	<anchor name="bottom" x="1069" y="0"/>
	<anchor name="top" x="1069" y="1462"/>
</glyph>
<glyph name="uni019D" format="2">
	<unicode hex="019D"/>
	<advance width="1703"/>
	<outline>
		<contour>
			<point x="119.571" y="-511" type="curve" smooth="yes"/>
			<point x="339.714" y="-511"/>
			<point x="492" y="-399.571"/>
			<point x="492" y="-129.143" type="curve" smooth="yes"/>
			<point x="492" y="636.286" type="line" smooth="yes"/>
			<point x="492" y="808.714"/>
			<point x="480" y="982.143"/>
			<point x="474.571" y="1065.86" type="curve"/>
			<point x="482" y="1065.86" type="line"/>
			<point x="1069.14" y="0" type="line"/>
			<point x="1523.86" y="0" type="line"/>
			<point x="1523.86" y="1462" type="line"/>
			<point x="1209.29" y="1462" type="line"/>
			<point x="1209.29" y="823.714" type="line" smooth="yes"/>
			<point x="1209.29" y="680"/>
			<point x="1221.29" y="461"/>
			<point x="1223.29" y="409.571" type="curve"/>
			<point x="1217.57" y="409.571" type="line"/>
			<point x="630.857" y="1462" type="line"/>
			<point x="179.286" y="1462" type="line"/>
			<point x="179.286" y="-115.857" type="line" smooth="yes"/>
			<point x="179.286" y="-197.429"/>
			<point x="133.143" y="-237.143"/>
			<point x="74.5714" y="-237.143" type="curve" smooth="yes"/>
			<point x="27.4286" y="-237.143"/>
			<point x="-17.4286" y="-223.143"/>
			<point x="-39" y="-216.143" type="curve"/>
			<point x="-39" y="-478.714" type="line"/>
			<point x="-9.42857" y="-490.429"/>
			<point x="47.1429" y="-511"/>
		</contour>
	</outline>
	<anchor name="bottom" x="851.286" y="-511"/>
	<anchor name="top" x="851.286" y="1462"/>
</glyph>
<glyph name="Ohorn" format="2">
	<unicode hex="01A0"/>
	<advance width="1704"/>
	<outline>
		<contour>
			<point x="1511.57" y="733" type="curve" smooth="yes"/>
			<point x="1511.57" y="867.429"/>
			<point x="1495.71" y="983.286"/>
			<point x="1463" y="1086.29" type="curve"/>
			<point x="1626.71" y="1155.57"/>
			<point x="1721.86" y="1277.29"/>
			<point x="1769.29" y="1535.71" type="curve"/>
			<point x="1755.86" y="1556" type="line"/>
			<point x="1428" y="1556" type="line"/>
			<point x="1428" y="1420"/>
			<point x="1390" y="1344.57"/>
			<point x="1346.57" y="1283.86" type="curve"/>
			<point x="1234.43" y="1413"/>
			<point x="1056.29" y="1485"/>
			<point x="815.429" y="1485" type="curve" smooth="yes"/>
			<point x="332.857" y="1485"/>
			<point x="107.571" y="1188"/>
			<point x="107.571" y="735" type="curve" smooth="yes"/>
			<point x="107.571" y="281"/>
			<point x="328.571" y="-20"/>
			<point x="808.571" y="-20" type="curve" smooth="yes"/>
			<point x="1300.57" y="-20"/>
			<point x="1511.57" y="282.714"/>
		</contour>
		<contour>
			<point x="472" y="733.286" type="curve" smooth="yes"/>
			<point x="472" y="1019"/>
			<point x="573.857" y="1200"/>
			<point x="812" y="1200" type="curve" smooth="yes"/>
			<point x="1047.29" y="1200"/>
			<point x="1147.14" y="1024.57"/>
			<point x="1147.14" y="733" type="curve" smooth="yes"/>
			<point x="1147.14" y="447.571"/>
			<point x="1050.57" y="269.286"/>
			<point x="808.857" y="269.286" type="curve" smooth="yes"/>
			<point x="572.714" y="269.286"/>
			<point x="472" y="448.571"/>
		</contour>
	</outline>
	<anchor name="bottom" x="808.571" y="0"/>
	<anchor name="top" x="815.429" y="1462"/>
</glyph>
<glyph name="ohorn" format="2">
	<unicode hex="01A1"/>
	<advance width="1434"/>
	<outline>
		<contour>
			<point x="1193.86" y="565" type="curve" smooth="yes"/>
			<point x="1193.86" y="666.571"/>
			<point x="1178.57" y="754.143"/>
			<point x="1149.86" y="831.286" type="curve"/>
			<point x="1397.57" y="899.429"/>
			<point x="1463.29" y="1067.14"/>
			<point x="1494.43" y="1272.43" type="curve"/>
			<point x="1481" y="1292.71" type="line"/>
			<point x="1151.43" y="1292.71" type="line"/>
			<point x="1151.43" y="1139.57"/>
			<point x="1108" y="1039.57"/>
			<point x="1040.29" y="1008.29" type="curve"/>
			<point x="944.857" y="1098.86"/>
			<point x="801.429" y="1145.71"/>
			<point x="646.857" y="1145.71" type="curve" smooth="yes"/>
			<point x="300.429" y="1145.71"/>
			<point x="91" y="935.571"/>
			<point x="91" y="565" type="curve" smooth="yes"/>
			<point x="91" y="194.143"/>
			<point x="315.143" y="-20"/>
			<point x="640" y="-20" type="curve" smooth="yes"/>
			<point x="987.571" y="-20"/>
			<point x="1193.86" y="194.714"/>
		</contour>
		<contour>
			<point x="440.857" y="565" type="curve" smooth="yes"/>
			<point x="440.857" y="769.143"/>
			<point x="502.857" y="871.857"/>
			<point x="643.429" y="871.857" type="curve" smooth="yes"/>
			<point x="788.429" y="871.857"/>
			<point x="844.714" y="763.857"/>
			<point x="844.714" y="565" type="curve" smooth="yes"/>
			<point x="844.714" y="364.857"/>
			<point x="784.571" y="253.857"/>
			<point x="643.429" y="253.857" type="curve" smooth="yes"/>
			<point x="500.143" y="253.857"/>
			<point x="440.857" y="364.286"/>
		</contour>
	</outline>
	<anchor name="bottom" x="641.143" y="0"/>
	<anchor name="top" x="646.286" y="1125.57"/>
</glyph>
<glyph name="uni01A2" format="2">
	<unicode hex="01A2"/>
	<advance width="2348"/>
	<outline>
		<contour>
			<point x="1492.86" y="733" type="curve" smooth="yes"/>
			<point x="1492.86" y="881.143"/>
			<point x="1471.29" y="1013.71"/>
			<point x="1423.57" y="1123" type="curve"/>
			<point x="1467.29" y="1158.57"/>
			<point x="1524.29" y="1192.57"/>
			<point x="1633.57" y="1192.57" type="curve" smooth="yes"/>
			<point x="1756.57" y="1192.57"/>
			<point x="1823.57" y="1112"/>
			<point x="1823.57" y="964.286" type="curve" smooth="yes"/>
			<point x="1823.57" y="0" type="line"/>
			<point x="2177.43" y="0" type="line"/>
			<point x="2177.43" y="994.429" type="line" smooth="yes"/>
			<point x="2177.43" y="1337.86"/>
			<point x="1987" y="1484.43"/>
			<point x="1734.43" y="1484.43" type="curve" smooth="yes"/>
			<point x="1538.43" y="1484.43"/>
			<point x="1404.86" y="1406.14"/>
			<point x="1303.29" y="1305.71" type="curve"/>
			<point x="1191.43" y="1419.57"/>
			<point x="1027" y="1485"/>
			<point x="807.429" y="1485" type="curve" smooth="yes"/>
			<point x="331.143" y="1485"/>
			<point x="117" y="1188"/>
			<point x="117" y="735" type="curve" smooth="yes"/>
			<point x="117" y="271.571"/>
			<point x="328.571" y="-20"/>
			<point x="804" y="-20" type="curve" smooth="yes"/>
			<point x="1282.71" y="-20"/>
			<point x="1492.86" y="271.571"/>
		</contour>
		<contour>
			<point x="486.571" y="733.286" type="curve" smooth="yes"/>
			<point x="486.571" y="1023.29"/>
			<point x="580.714" y="1194.86"/>
			<point x="807.429" y="1194.86" type="curve" smooth="yes"/>
			<point x="1039.71" y="1194.86"/>
			<point x="1124.14" y="1016"/>
			<point x="1124.14" y="733" type="curve" smooth="yes"/>
			<point x="1124.14" y="445.857"/>
			<point x="1032.71" y="272.714"/>
			<point x="804.286" y="272.714" type="curve" smooth="yes"/>
			<point x="581.286" y="272.714"/>
			<point x="486.571" y="445.143"/>
		</contour>
	</outline>
	<anchor name="bottom" x="1174.71" y="0"/>
	<anchor name="top" x="1174.71" y="1462"/>
</glyph>
<glyph name="uni01A3" format="2">
	<unicode hex="01A3"/>
	<advance width="1930"/>
	<outline>
		<contour>
			<point x="1144.14" y="565" type="curve" smooth="yes"/>
			<point x="1144.14" y="654.571"/>
			<point x="1130.29" y="735.143"/>
			<point x="1109.14" y="803.714" type="curve"/>
			<point x="1145" y="849.429"/>
			<point x="1196.71" y="870.143"/>
			<point x="1273.71" y="870.143" type="curve" smooth="yes"/>
			<point x="1392.29" y="870.143"/>
			<point x="1444.86" y="787.143"/>
			<point x="1444.86" y="637.286" type="curve" smooth="yes"/>
			<point x="1444.86" y="-492" type="line"/>
			<point x="1792.71" y="-492" type="line"/>
			<point x="1792.71" y="730.714" type="line" smooth="yes"/>
			<point x="1792.71" y="1022.14"/>
			<point x="1625.14" y="1145.71"/>
			<point x="1379.14" y="1145.71" type="curve" smooth="yes"/>
			<point x="1230.14" y="1145.71"/>
			<point x="1103" y="1100.29"/>
			<point x="1007.57" y="979.857" type="curve"/>
			<point x="911.429" y="1094.14"/>
			<point x="780.429" y="1145.71"/>
			<point x="619.429" y="1145.71" type="curve" smooth="yes"/>
			<point x="295.286" y="1145.71"/>
			<point x="85.8571" y="944.143"/>
			<point x="85.8571" y="565" type="curve" smooth="yes"/>
			<point x="85.8571" y="173.571"/>
			<point x="304" y="-20"/>
			<point x="611.714" y="-20" type="curve" smooth="yes"/>
			<point x="937" y="-20"/>
			<point x="1144.14" y="184.429"/>
		</contour>
		<contour>
			<point x="440.857" y="565" type="curve" smooth="yes"/>
			<point x="440.857" y="769.143"/>
			<point x="489.143" y="868.429"/>
			<point x="615.143" y="868.429" type="curve" smooth="yes"/>
			<point x="741.286" y="868.429"/>
			<point x="789" y="772.429"/>
			<point x="789" y="565" type="curve" smooth="yes"/>
			<point x="789" y="354.571"/>
			<point x="737.429" y="257.286"/>
			<point x="616" y="257.286" type="curve" smooth="yes"/>
			<point x="491.571" y="257.286"/>
			<point x="440.857" y="355.714"/>
		</contour>
	</outline>
	<anchor name="bottom" x="974" y="-492"/>
	<anchor name="top" x="974" y="1125.57"/>
</glyph>
<glyph name="uni01A5" format="2">
	<unicode hex="01A5"/>
	<advance width="1311"/>
	<outline>
		<contour>
			<point x="537.714" y="1567" type="curve" smooth="yes"/>
			<point x="309.857" y="1567"/>
			<point x="155.429" y="1465.14"/>
			<point x="155.429" y="1197.71" type="curve" smooth="yes"/>
			<point x="155.429" y="-489.571" type="line"/>
			<point x="503.429" y="-489.571" type="line"/>
			<point x="503.429" y="-31" type="line" smooth="yes"/>
			<point x="503.429" y="31"/>
			<point x="501.714" y="89.2857"/>
			<point x="494.286" y="114.571" type="curve"/>
			<point x="506.857" y="114.571" type="line"/>
			<point x="557" y="48.5714"/>
			<point x="644.571" y="-20"/>
			<point x="812.429" y="-20" type="curve" smooth="yes"/>
			<point x="1048.14" y="-20"/>
			<point x="1226.43" y="168.857"/>
			<point x="1226.43" y="566.429" type="curve" smooth="yes"/>
			<point x="1226.43" y="946.143"/>
			<point x="1052.57" y="1145.71"/>
			<point x="813.571" y="1145.71" type="curve" smooth="yes"/>
			<point x="652.857" y="1145.71"/>
			<point x="557" y="1060.71"/>
			<point x="503.429" y="971.571" type="curve"/>
			<point x="492.571" y="971.571" type="line"/>
			<point x="498" y="1044.71"/>
			<point x="503.429" y="1092.29"/>
			<point x="503.429" y="1148.71" type="curve" smooth="yes"/>
			<point x="503.429" y="1188.29" type="line" smooth="yes"/>
			<point x="503.429" y="1261.14"/>
			<point x="539.571" y="1290.57"/>
			<point x="597.714" y="1290.57" type="curve" smooth="yes"/>
			<point x="644.286" y="1290.57"/>
			<point x="690.714" y="1275.57"/>
			<point x="703.571" y="1270.71" type="curve"/>
			<point x="703.571" y="1534.57" type="line"/>
			<point x="678.143" y="1546.14"/>
			<point x="611.143" y="1567"/>
		</contour>
		<contour>
			<point x="691.857" y="870.143" type="curve" smooth="yes"/>
			<point x="815.857" y="870.143"/>
			<point x="871.429" y="771.571"/>
			<point x="871.429" y="574.143" type="curve" smooth="yes"/>
			<point x="871.429" y="356.143"/>
			<point x="809.714" y="260.714"/>
			<point x="695" y="260.714" type="curve" smooth="yes"/>
			<point x="559.571" y="260.714"/>
			<point x="503.714" y="367.143"/>
			<point x="503.714" y="567.857" type="curve" smooth="yes"/>
			<point x="503.714" y="597" type="line"/>
			<point x="508.857" y="779.714"/>
			<point x="558.429" y="870.143"/>
		</contour>
	</outline>
	<anchor name="bottom" x="656.286" y="-489.571"/>
	<anchor name="top" x="656.286" y="1567"/>
</glyph>
<glyph name="uni01A7" format="2">
	<unicode hex="01A7"/>
	<advance width="1132"/>
	<outline>
		<contour>
			<point x="582.143" y="1483" type="curve" smooth="yes"/>
			<point x="407.714" y="1483"/>
			<point x="246.143" y="1440"/>
			<point x="100.286" y="1374.14" type="curve"/>
			<point x="202.857" y="1101.14" type="line"/>
			<point x="341.286" y="1157.57"/>
			<point x="447.143" y="1189.43"/>
			<point x="551.857" y="1189.43" type="curve" smooth="yes"/>
			<point x="655.143" y="1189.43"/>
			<point x="704.286" y="1151.43"/>
			<point x="704.286" y="1081.57" type="curve" smooth="yes"/>
			<point x="704.286" y="987.429"/>
			<point x="623.429" y="939.714"/>
			<point x="421.857" y="852" type="curve"/>
			<point x="198.143" y="748.571"/>
			<point x="83.1429" y="617.143"/>
			<point x="83.1429" y="398.571" type="curve" smooth="yes"/>
			<point x="83.1429" y="141.143"/>
			<point x="233.286" y="-20"/>
			<point x="582.429" y="-20" type="curve" smooth="yes"/>
			<point x="756.857" y="-20"/>
			<point x="918.714" y="19.4286"/>
			<point x="1042.14" y="80.4286" type="curve"/>
			<point x="1042.14" y="369.429" type="line"/>
			<point x="889.571" y="310.714"/>
			<point x="747.286" y="269.286"/>
			<point x="603.714" y="269.286" type="curve" smooth="yes"/>
			<point x="476.286" y="269.286"/>
			<point x="426.286" y="317"/>
			<point x="426.286" y="397.429" type="curve" smooth="yes"/>
			<point x="426.286" y="492.143"/>
			<point x="532" y="549.857"/>
			<point x="687.286" y="619" type="curve"/>
			<point x="852.429" y="695.286"/>
			<point x="1049" y="796.429"/>
			<point x="1049" y="1070.43" type="curve" smooth="yes"/>
			<point x="1049" y="1336.86"/>
			<point x="875.857" y="1483"/>
		</contour>
	</outline>
	<anchor name="bottom" x="565.571" y="0"/>
	<anchor name="top" x="565.571" y="1462"/>
</glyph>
<glyph name="uni01A8" format="2">
	<unicode hex="01A8"/>
	<advance width="1031"/>
	<outline>
		<contour>
			<point x="525.286" y="1145.71" type="curve" smooth="yes"/>
			<point x="381.714" y="1145.71"/>
			<point x="236.714" y="1118.71"/>
			<point x="97.5714" y="1054.57" type="curve"/>
			<point x="190.143" y="806.429" type="line"/>
			<point x="303.857" y="857.143"/>
			<point x="394.286" y="892.429"/>
			<point x="489.571" y="892.429" type="curve" smooth="yes"/>
			<point x="561.286" y="892.429"/>
			<point x="610.857" y="869.286"/>
			<point x="610.857" y="825.429" type="curve" smooth="yes"/>
			<point x="610.857" y="790.857"/>
			<point x="579.714" y="763.571"/>
			<point x="382.857" y="689.714" type="curve"/>
			<point x="188.571" y="615.429"/>
			<point x="77.1429" y="508.429"/>
			<point x="77.1429" y="320" type="curve" smooth="yes"/>
			<point x="77.1429" y="96.8571"/>
			<point x="234.571" y="-20"/>
			<point x="546.714" y="-20" type="curve" smooth="yes"/>
			<point x="693.143" y="-20"/>
			<point x="806.571" y="0.571429"/>
			<point x="926.571" y="63.8571" type="curve"/>
			<point x="926.571" y="320" type="line"/>
			<point x="799.857" y="251.286"/>
			<point x="669.429" y="229"/>
			<point x="569" y="229" type="curve" smooth="yes"/>
			<point x="470.143" y="229"/>
			<point x="420.143" y="252.714"/>
			<point x="420.143" y="309.429" type="curve" smooth="yes"/>
			<point x="420.143" y="348"/>
			<point x="425.143" y="381"/>
			<point x="659" y="473.571" type="curve" smooth="yes"/>
			<point x="872.143" y="559.143"/>
			<point x="957.286" y="646.143"/>
			<point x="957.286" y="831.143" type="curve" smooth="yes"/>
			<point x="957.286" y="1046.29"/>
			<point x="771.429" y="1145.71"/>
		</contour>
	</outline>
	<anchor name="bottom" x="516.143" y="0"/>
	<anchor name="top" x="516.143" y="1125.57"/>
</glyph>
<glyph name="uni01AA" format="2">
	<unicode hex="01AA"/>
	<advance width="880"/>
	<outline>
		<contour>
			<point x="288.286" y="1579" type="curve" smooth="yes"/>
			<point x="84.5714" y="1579"/>
			<point x="-20" y="1469.71"/>
			<point x="-20" y="1338.43" type="curve" smooth="yes"/>
			<point x="-20" y="1185.43"/>
			<point x="74" y="1079.14"/>
			<point x="281.714" y="1079.14" type="curve" smooth="yes"/>
			<point x="311.429" y="1079.14" type="line"/>
			<point x="311.429" y="-109.286" type="line" smooth="yes"/>
			<point x="311.429" y="-410.429"/>
			<point x="479.429" y="-491"/>
			<point x="696.286" y="-491" type="curve" smooth="yes"/>
			<point x="812.286" y="-491"/>
			<point x="918.286" y="-466.714"/>
			<point x="985.857" y="-435" type="curve"/>
			<point x="985.857" y="-178.286" type="line"/>
			<point x="914.857" y="-201.429"/>
			<point x="851.429" y="-216.286"/>
			<point x="779.143" y="-216.286" type="curve" smooth="yes"/>
			<point x="707.857" y="-216.286"/>
			<point x="659.286" y="-181"/>
			<point x="659.286" y="-112.286" type="curve" smooth="yes"/>
			<point x="659.286" y="1189.14" type="line" smooth="yes"/>
			<point x="659.286" y="1423.43"/>
			<point x="563.571" y="1579"/>
		</contour>
		<contour>
			<point x="238.714" y="1397.71" type="curve" smooth="yes"/>
			<point x="279.143" y="1397.71"/>
			<point x="311.429" y="1368.57"/>
			<point x="311.429" y="1309.43" type="curve" smooth="yes"/>
			<point x="311.429" y="1250.14" type="line"/>
			<point x="283.714" y="1250.14" type="line" smooth="yes"/>
			<point x="217.429" y="1250.14"/>
			<point x="179" y="1293.29"/>
			<point x="179" y="1335.29" type="curve" smooth="yes"/>
			<point x="179" y="1369.71"/>
			<point x="206" y="1397.71"/>
		</contour>
	</outline>
	<anchor name="bottom" x="441.429" y="-491"/>
	<anchor name="top" x="441.429" y="1579"/>
</glyph>
<glyph name="uni01AC" format="2">
	<unicode hex="01AC"/>
	<advance width="1303"/>
	<outline>
		<contour>
			<point x="525.857" y="0" type="line"/>
			<point x="879.857" y="0" type="line"/>
			<point x="879.857" y="1170.14" type="line"/>
			<point x="1259.71" y="1170.14" type="line"/>
			<point x="1259.71" y="1462" type="line"/>
			<point x="410.143" y="1462" type="line" smooth="yes"/>
			<point x="106.429" y="1462"/>
			<point x="7.71429" y="1289.43"/>
			<point x="7.71429" y="1092" type="curve" smooth="yes"/>
			<point x="7.71429" y="1033.86"/>
			<point x="24.1429" y="991.143"/>
			<point x="34.1429" y="971.286" type="curve"/>
			<point x="305.429" y="971.286" type="line"/>
			<point x="297.429" y="992"/>
			<point x="284" y="1019"/>
			<point x="284" y="1061.71" type="curve" smooth="yes"/>
			<point x="284" y="1119.86"/>
			<point x="320.714" y="1170.14"/>
			<point x="400.429" y="1170.14" type="curve" smooth="yes"/>
			<point x="525.857" y="1170.14" type="line"/>
		</contour>
	</outline>
	<anchor name="bottom" x="651.714" y="0"/>
	<anchor name="top" x="651.714" y="1462"/>
</glyph>
<glyph name="uhorn" format="2">
	<unicode hex="01B0"/>
	<advance width="1590"/>
	<outline>
		<contour>
			<point x="1642.57" y="1291" type="line"/>
			<point x="1313" y="1291" type="line"/>
			<point x="1313" y="1150.14"/>
			<point x="1274.14" y="1030.43"/>
			<point x="1201" y="992.286" type="curve"/>
			<point x="1201" y="1125.57" type="line"/>
			<point x="856.571" y="1125.57" type="line"/>
			<point x="856.571" y="612.143" type="line" smooth="yes"/>
			<point x="856.571" y="377.143"/>
			<point x="802" y="252.143"/>
			<point x="641.571" y="252.143" type="curve" smooth="yes"/>
			<point x="530.286" y="252.143"/>
			<point x="480.714" y="334.429"/>
			<point x="480.714" y="495" type="curve" smooth="yes"/>
			<point x="480.714" y="1125.57" type="line"/>
			<point x="138" y="1125.57" type="line"/>
			<point x="138" y="391.857" type="line" smooth="yes"/>
			<point x="138" y="105.857"/>
			<point x="303.571" y="-20"/>
			<point x="527.571" y="-20" type="curve" smooth="yes"/>
			<point x="676.857" y="-20"/>
			<point x="807.571" y="37.7143"/>
			<point x="875.143" y="153.286" type="curve"/>
			<point x="898.857" y="153.286" type="line"/>
			<point x="942" y="0" type="line"/>
			<point x="1201" y="0" type="line"/>
			<point x="1201" y="792.143" type="line"/>
			<point x="1535.71" y="851.143"/>
			<point x="1616.29" y="1034.14"/>
			<point x="1656.86" y="1270.71" type="curve"/>
		</contour>
	</outline>
	<anchor name="bottom" x="656.571" y="0"/>
	<anchor name="top" x="668.571" y="1125.57"/>
</glyph>
<glyph name="uni01B1" format="2">
	<unicode hex="01B1"/>
	<advance width="1614"/>
	<outline>
		<contour>
			<point x="806.714" y="272.429" type="curve" smooth="yes"/>
			<point x="598.857" y="272.429"/>
			<point x="464.714" y="401.143"/>
			<point x="464.714" y="663.714" type="curve" smooth="yes"/>
			<point x="464.714" y="881.571"/>
			<point x="517.714" y="1065.29"/>
			<point x="709.571" y="1138.14" type="curve"/>
			<point x="709.571" y="1462" type="line"/>
			<point x="49.1429" y="1462" type="line"/>
			<point x="49.1429" y="1168.43" type="line"/>
			<point x="426.429" y="1168.43" type="line"/>
			<point x="236.429" y="1082"/>
			<point x="101.857" y="867.286"/>
			<point x="101.857" y="585.714" type="curve" smooth="yes"/>
			<point x="101.857" y="220.714"/>
			<point x="380.714" y="-20.4286"/>
			<point x="806.714" y="-20.4286" type="curve" smooth="yes"/>
			<point x="1240.29" y="-20.4286"/>
			<point x="1512.57" y="216.571"/>
			<point x="1512.57" y="582.286" type="curve" smooth="yes"/>
			<point x="1512.57" y="849.286"/>
			<point x="1385.14" y="1075.43"/>
			<point x="1195.43" y="1168.43" type="curve"/>
			<point x="1565.29" y="1168.43" type="line"/>
			<point x="1565.29" y="1462" type="line"/>
			<point x="910.286" y="1462" type="line"/>
			<point x="910.286" y="1138.14" type="line"/>
			<point x="1094.86" y="1065"/>
			<point x="1149.86" y="888.429"/>
			<point x="1149.86" y="667.143" type="curve" smooth="yes"/>
			<point x="1149.86" y="401.857"/>
			<point x="1015.57" y="272.429"/>
		</contour>
	</outline>
	<anchor name="bottom" x="808.143" y="0"/>
	<anchor name="top" x="808.143" y="1462"/>
</glyph>
<glyph name="uni01B2" format="2">
	<unicode hex="01B2"/>
	<advance width="1537"/>
	<outline>
		<contour>
			<point x="763.857" y="-20" type="curve" smooth="yes"/>
			<point x="1170.86" y="-20"/>
			<point x="1381.71" y="204.286"/>
			<point x="1381.71" y="572.571" type="curve" smooth="yes"/>
			<point x="1381.71" y="1171.29" type="line" smooth="yes"/>
			<point x="1381.71" y="1353.86"/>
			<point x="1274" y="1484.71"/>
			<point x="1035.29" y="1484.71" type="curve" smooth="yes"/>
			<point x="941.857" y="1484.71"/>
			<point x="856" y="1460.29"/>
			<point x="803.857" y="1432.57" type="curve"/>
			<point x="803.857" y="1159" type="line"/>
			<point x="850.286" y="1180.71"/>
			<point x="891.571" y="1191.14"/>
			<point x="936.714" y="1191.14" type="curve" smooth="yes"/>
			<point x="988.143" y="1191.14"/>
			<point x="1035.43" y="1165.14"/>
			<point x="1035.43" y="1092.14" type="curve" smooth="yes"/>
			<point x="1035.43" y="590.857" type="line" smooth="yes"/>
			<point x="1035.43" y="367.143"/>
			<point x="949.714" y="269.286"/>
			<point x="769.286" y="269.286" type="curve" smooth="yes"/>
			<point x="596.286" y="269.286"/>
			<point x="504.286" y="368.429"/>
			<point x="504.286" y="592.571" type="curve" smooth="yes"/>
			<point x="504.286" y="1462" type="line"/>
			<point x="156.429" y="1462" type="line"/>
			<point x="156.429" y="565.429" type="line" smooth="yes"/>
			<point x="156.429" y="190.857"/>
			<point x="370.143" y="-20"/>
		</contour>
	</outline>
	<anchor name="bottom" x="754.429" y="0"/>
	<anchor name="top" x="754.429" y="1462"/>
	<anchor name="topright" x="1495.86" y="1462"/>
</glyph>
<glyph name="uni01B3" format="2">
	<unicode hex="01B3"/>
	<advance width="1341"/>
	<outline>
		<contour>
			<point x="482.857" y="0" type="line"/>
			<point x="831.571" y="0" type="line"/>
			<point x="831.571" y="569.857" type="line"/>
			<point x="1040.14" y="969.429" type="line"/>
			<point x="1146.29" y="1170"/>
			<point x="1173" y="1193.14"/>
			<point x="1245" y="1193.14" type="curve" smooth="yes"/>
			<point x="1265.43" y="1193.14"/>
			<point x="1302.29" y="1183.29"/>
			<point x="1322.71" y="1173.57" type="curve"/>
			<point x="1322.71" y="1444" type="line"/>
			<point x="1285.14" y="1462.43"/>
			<point x="1214.29" y="1483.29"/>
			<point x="1149" y="1483.29" type="curve" smooth="yes"/>
			<point x="972.286" y="1483.29"/>
			<point x="887.286" y="1376.14"/>
			<point x="809.429" y="1205" type="curve"/>
			<point x="656.857" y="876.286" type="line"/>
			<point x="377.286" y="1462" type="line"/>
			<point x="0" y="1462" type="line"/>
			<point x="482.857" y="558.429" type="line"/>
		</contour>
	</outline>
	<anchor name="bottom" x="660.714" y="0"/>
	<anchor name="top" x="660.714" y="1462"/>
</glyph>
<glyph name="uni01B4" format="2">
	<unicode hex="01B4"/>
	<advance width="1326"/>
	<outline>
		<contour>
			<point x="1119.29" y="1146.86" type="curve" smooth="yes"/>
			<point x="914.286" y="1146.86"/>
			<point x="825.857" y="1000"/>
			<point x="779.143" y="872" type="curve" smooth="yes"/>
			<point x="677.286" y="595.143" type="line" smooth="yes"/>
			<point x="653.429" y="530.429"/>
			<point x="637" y="449.571"/>
			<point x="626.286" y="399.143" type="curve"/>
			<point x="620.571" y="399.143" type="line"/>
			<point x="607.429" y="493"/>
			<point x="587.286" y="574.143"/>
			<point x="576" y="610" type="curve" smooth="yes"/>
			<point x="406.429" y="1125.57" type="line"/>
			<point x="24.8571" y="1125.57" type="line"/>
			<point x="476.286" y="12" type="line"/>
			<point x="459.143" y="-38.4286" type="line"/>
			<point x="422" y="-167"/>
			<point x="332.429" y="-214.571"/>
			<point x="221.429" y="-214.571" type="curve" smooth="yes"/>
			<point x="187" y="-214.571"/>
			<point x="132.429" y="-208.286"/>
			<point x="108.857" y="-202.857" type="curve"/>
			<point x="108.857" y="-477" type="line"/>
			<point x="142.714" y="-484.286"/>
			<point x="206.429" y="-492.857"/>
			<point x="258.286" y="-492.857" type="curve" smooth="yes"/>
			<point x="507" y="-492.857"/>
			<point x="684.143" y="-364.286"/>
			<point x="769.571" y="-132.286" type="curve" smooth="yes"/>
			<point x="1045" y="622.714" type="line" smooth="yes"/>
			<point x="1115.14" y="814.429"/>
			<point x="1163.86" y="855"/>
			<point x="1235.86" y="855" type="curve" smooth="yes"/>
			<point x="1258" y="855"/>
			<point x="1284.57" y="850.286"/>
			<point x="1310.43" y="844" type="curve"/>
			<point x="1310.43" y="1109.57" type="line"/>
			<point x="1271.14" y="1130.57"/>
			<point x="1183.57" y="1146.86"/>
		</contour>
	</outline>
	<anchor name="bottom" x="656.429" y="-492.857"/>
	<anchor name="top" x="656.429" y="1125.57"/>
</glyph>
<glyph name="uni01B6" format="2">
	<unicode hex="01B6"/>
	<advance width="1023"/>
	<outline>
		<contour>
			<point x="948.571" y="1125.57" type="line"/>
			<point x="85" y="1125.57" type="line"/>
			<point x="85" y="862" type="line"/>
			<point x="554.286" y="862" type="line"/>
			<point x="417.286" y="676" type="line"/>
			<point x="89.2857" y="676" type="line"/>
			<point x="89.2857" y="454.286" type="line"/>
			<point x="246.857" y="454.286" type="line"/>
			<point x="54" y="196.143" type="line"/>
			<point x="54" y="0" type="line"/>
			<point x="966.571" y="0" type="line"/>
			<point x="966.571" y="263.571" type="line"/>
			<point x="464.857" y="263.571" type="line"/>
			<point x="605.286" y="454.286" type="line"/>
			<point x="940.286" y="454.286" type="line"/>
			<point x="940.286" y="676" type="line"/>
			<point x="771.714" y="676" type="line"/>
			<point x="948.571" y="913.857" type="line"/>
		</contour>
	</outline>
	<anchor name="bottom" x="512.429" y="0"/>
	<anchor name="top" x="512.429" y="1125.57"/>
</glyph>
<glyph name="uni01B7" format="2">
	<unicode hex="01B7"/>
	<advance width="1282"/>
	<outline>
		<contour>
			<point x="1098.14" y="1462" type="line"/>
			<point x="126.429" y="1462" type="line"/>
			<point x="126.429" y="1177.86" type="line"/>
			<point x="640.143" y="1177.86" type="line"/>
			<point x="303" y="858.429" type="line"/>
			<point x="303" y="624.857" type="line"/>
			<point x="413.857" y="624.857" type="line" smooth="yes"/>
			<point x="735.714" y="624.857"/>
			<point x="818.857" y="556.143"/>
			<point x="818.857" y="453.429" type="curve" smooth="yes"/>
			<point x="818.857" y="342.286"/>
			<point x="742.857" y="264.143"/>
			<point x="509.714" y="264.143" type="curve" smooth="yes"/>
			<point x="382.571" y="264.143"/>
			<point x="211.429" y="296.286"/>
			<point x="75.4286" y="360.714" type="curve"/>
			<point x="75.4286" y="60.5714" type="line"/>
			<point x="204" y="10.5714"/>
			<point x="361.714" y="-20"/>
			<point x="536.286" y="-20" type="curve" smooth="yes"/>
			<point x="972.714" y="-20"/>
			<point x="1173.86" y="169.857"/>
			<point x="1173.86" y="443.143" type="curve" smooth="yes"/>
			<point x="1173.86" y="686.571"/>
			<point x="994.143" y="843"/>
			<point x="677.429" y="856.714" type="curve"/>
			<point x="1098.14" y="1247.57" type="line"/>
		</contour>
	</outline>
	<anchor name="bottom" x="640.857" y="0"/>
	<anchor name="top" x="640.857" y="1462"/>
</glyph>
<glyph name="uni01BB" format="2">
	<unicode hex="01BB"/>
	<advance width="1168"/>
	<outline>
		<contour>
			<point x="543" y="1562.14" type="curve" smooth="yes"/>
			<point x="274.429" y="1562.14"/>
			<point x="126" y="1425.71"/>
			<point x="46" y="1348.57" type="curve"/>
			<point x="214.571" y="1139.29" type="line"/>
			<point x="295" y="1221.14"/>
			<point x="381.429" y="1285.71"/>
			<point x="502.143" y="1285.71" type="curve" smooth="yes"/>
			<point x="609.429" y="1285.71"/>
			<point x="678.714" y="1213.29"/>
			<point x="678.714" y="1117.71" type="curve" smooth="yes"/>
			<point x="678.714" y="1031.14"/>
			<point x="670.857" y="954.429"/>
			<point x="596.143" y="862.286" type="curve"/>
			<point x="68.1429" y="862.286" type="line"/>
			<point x="68.1429" y="640.714" type="line"/>
			<point x="412" y="640.714" type="line"/>
			<point x="42.1429" y="256.143" type="line"/>
			<point x="42.1429" y="0" type="line"/>
			<point x="1086.57" y="0" type="line"/>
			<point x="1086.57" y="260.143" type="line"/>
			<point x="453" y="260.143" type="line"/>
			<point x="453" y="275.857" type="line"/>
			<point x="801.571" y="640.714" type="line"/>
			<point x="1089" y="640.714" type="line"/>
			<point x="1089" y="862.286" type="line"/>
			<point x="960" y="862.286" type="line"/>
			<point x="1013.86" y="956.714"/>
			<point x="1028.71" y="1036"/>
			<point x="1028.71" y="1138.29" type="curve" smooth="yes"/>
			<point x="1028.71" y="1371.43"/>
			<point x="843.571" y="1562.14"/>
		</contour>
	</outline>
	<anchor name="bottom" x="584.286" y="0"/>
	<anchor name="top" x="584.286" y="1562.14"/>
</glyph>
<glyph name="uni01BD" format="2">
	<unicode hex="01BD"/>
	<advance width="1183"/>
	<outline>
		<contour>
			<point x="496.429" y="-21.7143" type="curve" smooth="yes"/>
			<point x="917.571" y="-21.7143"/>
			<point x="1095.71" y="135.571"/>
			<point x="1095.71" y="367.429" type="curve" smooth="yes"/>
			<point x="1095.71" y="601.143"/>
			<point x="954.429" y="708.714"/>
			<point x="671.429" y="708.714" type="curve" smooth="yes"/>
			<point x="585" y="708.714" type="line"/>
			<point x="585" y="867.143" type="line"/>
			<point x="1058" y="867.143" type="line"/>
			<point x="1058" y="1125.57" type="line"/>
			<point x="87.7143" y="1125.57" type="line"/>
			<point x="87.7143" y="867.143" type="line"/>
			<point x="277.286" y="867.143" type="line"/>
			<point x="277.286" y="485.286" type="line"/>
			<point x="531.714" y="485.286" type="line" smooth="yes"/>
			<point x="681.571" y="485.286"/>
			<point x="759.571" y="454.429"/>
			<point x="759.571" y="379.429" type="curve" smooth="yes"/>
			<point x="759.571" y="302.571"/>
			<point x="698.143" y="253"/>
			<point x="515.857" y="247.857" type="curve"/>
			<point x="344" y="241.857"/>
			<point x="165.857" y="288"/>
			<point x="90.4286" y="323.571" type="curve"/>
			<point x="90.4286" y="44.7143" type="line"/>
			<point x="162.429" y="15.2857"/>
			<point x="319.286" y="-21.7143"/>
		</contour>
	</outline>
	<anchor name="bottom" x="593.143" y="0"/>
	<anchor name="top" x="593.143" y="1125.57"/>
</glyph>
<glyph name="uni01BE" format="2">
	<unicode hex="01BE"/>
	<advance width="1040"/>
	<outline>
		<contour>
			<point x="473.143" y="-20" type="curve" smooth="yes"/>
			<point x="838" y="-20"/>
			<point x="965" y="144.714"/>
			<point x="965" y="346.429" type="curve" smooth="yes"/>
			<point x="965" y="513.857"/>
			<point x="854.143" y="591.286"/>
			<point x="710.286" y="656.286" type="curve" smooth="yes"/>
			<point x="617.143" y="698.857"/>
			<point x="587.857" y="729.571"/>
			<point x="587.857" y="804.143" type="curve" smooth="yes"/>
			<point x="587.857" y="865.429" type="line"/>
			<point x="866.143" y="865.429" type="line"/>
			<point x="866.143" y="1125.57" type="line"/>
			<point x="587.857" y="1125.57" type="line"/>
			<point x="587.857" y="1356.86" type="line"/>
			<point x="360.571" y="1356.86" type="line"/>
			<point x="267" y="1121.29" type="line"/>
			<point x="59.2857" y="1009.86" type="line"/>
			<point x="59.2857" y="865.429" type="line"/>
			<point x="262.143" y="865.429" type="line"/>
			<point x="262.143" y="776.143" type="line" smooth="yes"/>
			<point x="262.143" y="588"/>
			<point x="336.429" y="519"/>
			<point x="499" y="449" type="curve" smooth="yes"/>
			<point x="576.571" y="416.286"/>
			<point x="627.143" y="392.714"/>
			<point x="627.143" y="330.143" type="curve" smooth="yes"/>
			<point x="627.143" y="266.143"/>
			<point x="584" y="229"/>
			<point x="459.143" y="229" type="curve" smooth="yes"/>
			<point x="320.429" y="229"/>
			<point x="156.429" y="283.571"/>
			<point x="69.1429" y="332.571" type="curve"/>
			<point x="69.1429" y="56.7143" type="line"/>
			<point x="160" y="11.4286"/>
			<point x="334.286" y="-20"/>
		</contour>
	</outline>
	<anchor name="bottom" x="520.429" y="0"/>
	<anchor name="top" x="520.429" y="1356.86"/>
</glyph>
<glyph name="uni01C0" format="2">
	<unicode hex="01C0"/>
	<advance width="731"/>
	<outline>
		<contour>
			<point x="232.857" y="0" type="line"/>
			<point x="498.429" y="0" type="line"/>
			<point x="498.429" y="1556" type="line"/>
			<point x="232.857" y="1556" type="line"/>
		</contour>
	</outline>
	<anchor name="bottom" x="367" y="0"/>
	<anchor name="top" x="367" y="1556"/>
</glyph>
<glyph name="uni01F6" format="2">
	<unicode hex="01F6"/>
	<advance width="2189"/>
	<outline>
		<contour>
			<point x="179.286" y="0" type="line"/>
			<point x="530.571" y="0" type="line"/>
			<point x="530.571" y="613.286" type="line"/>
			<point x="960" y="613.286" type="line"/>
			<point x="960" y="463.857" type="line" smooth="yes"/>
			<point x="960" y="125.143"/>
			<point x="1114.57" y="-29.4286"/>
			<point x="1490.14" y="-29.4286" type="curve" smooth="yes"/>
			<point x="1852.29" y="-29.4286"/>
			<point x="2017.57" y="161.714"/>
			<point x="2017.57" y="523.857" type="curve" smooth="yes"/>
			<point x="2017.57" y="1125.57" type="line"/>
			<point x="1664.57" y="1125.57" type="line"/>
			<point x="1664.57" y="526.714" type="line" smooth="yes"/>
			<point x="1664.57" y="322.143"/>
			<point x="1609" y="255.571"/>
			<point x="1486.71" y="255.571" type="curve" smooth="yes"/>
			<point x="1364.57" y="255.571"/>
			<point x="1313" y="326.429"/>
			<point x="1313" y="498.429" type="curve" smooth="yes"/>
			<point x="1313" y="1462" type="line"/>
			<point x="960" y="1462" type="line"/>
			<point x="960" y="905.286" type="line"/>
			<point x="530.571" y="905.286" type="line"/>
			<point x="530.571" y="1462" type="line"/>
			<point x="179.286" y="1462" type="line"/>
		</contour>
	</outline>
	<anchor name="bottom" x="1094.29" y="0"/>
	<anchor name="top" x="1094.29" y="1462"/>
</glyph>
<glyph name="Aringacute" format="2">
	<unicode hex="01FA"/>
	<advance width="1440"/>
	<outline>
		<contour>
			<point x="-2.28571" y="0" type="line"/>
			<point x="378.429" y="0" type="line"/>
			<point x="475.286" y="303" type="line"/>
			<point x="967" y="303" type="line"/>
			<point x="1065.71" y="0" type="line"/>
			<point x="1444.86" y="0" type="line"/>
			<point x="946.143" y="1369.71" type="line"/>
			<point x="969.286" y="1393.43"/>
			<point x="983" y="1428.57"/>
			<point x="983" y="1471" type="curve" smooth="yes"/>
			<point x="983" y="1621.71"/>
			<point x="865.857" y="1716.86"/>
			<point x="719.143" y="1716.86" type="curve" smooth="yes"/>
			<point x="566.714" y="1716.86"/>
			<point x="462.429" y="1621.43"/>
			<point x="462.429" y="1469.57" type="curve" smooth="yes"/>
			<point x="462.429" y="1428"/>
			<point x="475" y="1394.29"/>
			<point x="495.286" y="1373.43" type="curve"/>
		</contour>
		<contour>
			<point x="554.143" y="591.429" type="line"/>
			<point x="641" y="841.143" type="line"/>
			<point x="668.429" y="929"/>
			<point x="704.286" y="1053.71"/>
			<point x="722.286" y="1145.86" type="curve"/>
			<point x="741.143" y="1053.71"/>
			<point x="782.429" y="912.714"/>
			<point x="805.286" y="840.857" type="curve"/>
			<point x="893" y="591.429" type="line"/>
		</contour>
		<contour>
			<point x="718.857" y="1372.71" type="curve" smooth="yes"/>
			<point x="658" y="1372.71"/>
			<point x="622.857" y="1411.71"/>
			<point x="622.857" y="1469.29" type="curve" smooth="yes"/>
			<point x="622.857" y="1527.29"/>
			<point x="664" y="1565"/>
			<point x="718.857" y="1565" type="curve" smooth="yes"/>
			<point x="773.714" y="1565"/>
			<point x="814.857" y="1527.29"/>
			<point x="814.857" y="1469.29" type="curve" smooth="yes"/>
			<point x="814.857" y="1411.71"/>
			<point x="773.429" y="1372.71"/>
		</contour>
		<contour>
			<point x="571" y="1774.71" type="line"/>
			<point x="800" y="1774.71" type="line"/>
			<point x="896.429" y="1812.57"/>
			<point x="1085.86" y="1897.71"/>
			<point x="1132.57" y="1944.86" type="curve"/>
			<point x="1132.57" y="1964" type="line"/>
			<point x="754.429" y="1964" type="line"/>
			<point x="709.429" y="1908.86"/>
			<point x="633.286" y="1842.29"/>
			<point x="571" y="1798" type="curve"/>
		</contour>
	</outline>
	<anchor name="bottom" x="719.429" y="0"/>
	<anchor name="top" x="719.429" y="1964"/>
</glyph>
<glyph name="uni0220" format="2">
	<unicode hex="0220"/>
	<advance width="1583"/>
	<outline>
		<contour>
			<point x="947.714" y="1484.71" type="curve" smooth="yes"/>
			<point x="768.571" y="1484.71"/>
			<point x="606.714" y="1416.57"/>
			<point x="513.143" y="1277.71" type="curve"/>
			<point x="504" y="1277.71" type="line"/>
			<point x="446.857" y="1462" type="line"/>
			<point x="179.286" y="1462" type="line"/>
			<point x="179.286" y="0" type="line"/>
			<point x="530.571" y="0" type="line"/>
			<point x="530.571" y="736.857" type="line" smooth="yes"/>
			<point x="530.571" y="1036.29"/>
			<point x="594" y="1194.57"/>
			<point x="832" y="1194.57" type="curve" smooth="yes"/>
			<point x="979.857" y="1194.57"/>
			<point x="1062" y="1118.43"/>
			<point x="1062" y="915.286" type="curve" smooth="yes"/>
			<point x="1062" y="-492" type="line"/>
			<point x="1415" y="-492" type="line"/>
			<point x="1415" y="1011.86" type="line" smooth="yes"/>
			<point x="1415" y="1360.71"/>
			<point x="1204.14" y="1484.71"/>
		</contour>
	</outline>
	<anchor name="bottom" x="792.571" y="-492"/>
	<anchor name="top" x="792.571" y="1462"/>
</glyph>
<glyph name="uni0222" format="2">
	<unicode hex="0222"/>
	<advance width="1622"/>
	<outline>
		<contour>
			<point x="812.143" y="-20.7143" type="curve" smooth="yes"/>
			<point x="1305.71" y="-20.7143"/>
			<point x="1520.29" y="202.143"/>
			<point x="1519.14" y="519.714" type="curve"/>
			<point x="1519.71" y="703.286"/>
			<point x="1436" y="852"/>
			<point x="1243.71" y="937.571" type="curve"/>
			<point x="1411.14" y="1026.29"/>
			<point x="1451.14" y="1160.57"/>
			<point x="1451.14" y="1336" type="curve" smooth="yes"/>
			<point x="1451.14" y="1459.29" type="line"/>
			<point x="1094.71" y="1459.29" type="line"/>
			<point x="1094.71" y="1334.71" type="line" smooth="yes"/>
			<point x="1094.71" y="1180.71"/>
			<point x="1018.43" y="1071.86"/>
			<point x="815.571" y="1071.86" type="curve" smooth="yes"/>
			<point x="605.429" y="1071.86"/>
			<point x="528.714" y="1179.29"/>
			<point x="528.714" y="1336" type="curve" smooth="yes"/>
			<point x="528.714" y="1459.29" type="line"/>
			<point x="169.714" y="1459.29" type="line"/>
			<point x="169.714" y="1335.14" type="line" smooth="yes"/>
			<point x="169.714" y="1157.43"/>
			<point x="207" y="1025"/>
			<point x="385" y="937.571" type="curve"/>
			<point x="184.429" y="850"/>
			<point x="103.286" y="692.714"/>
			<point x="103.286" y="515.571" type="curve" smooth="yes"/>
			<point x="103.286" y="202.571"/>
			<point x="303.571" y="-20.7143"/>
		</contour>
		<contour>
			<point x="810.429" y="277.286" type="curve" smooth="yes"/>
			<point x="567.143" y="277.286"/>
			<point x="482.286" y="375.714"/>
			<point x="482.286" y="525" type="curve" smooth="yes"/>
			<point x="482.286" y="677.286"/>
			<point x="573.714" y="769.714"/>
			<point x="815.571" y="769.714" type="curve" smooth="yes"/>
			<point x="1058.43" y="769.714"/>
			<point x="1141" y="673"/>
			<point x="1141" y="525.714" type="curve" smooth="yes"/>
			<point x="1141" y="374.857"/>
			<point x="1056.43" y="277.286"/>
		</contour>
	</outline>
	<anchor name="bottom" x="811.571" y="0"/>
	<anchor name="top" x="811.571" y="1462"/>
</glyph>
<glyph name="uni0223" format="2">
	<unicode hex="0223"/>
	<advance width="1305"/>
	<outline>
		<contour>
			<point x="647.714" y="-20.7143" type="curve" smooth="yes"/>
			<point x="974.714" y="-20.7143"/>
			<point x="1219.29" y="168.714"/>
			<point x="1218.14" y="518.143" type="curve"/>
			<point x="1218.71" y="718.571"/>
			<point x="1125.71" y="861.286"/>
			<point x="948.286" y="939.857" type="curve"/>
			<point x="1116.29" y="1021.71"/>
			<point x="1159.71" y="1173.14"/>
			<point x="1159.71" y="1361" type="curve" smooth="yes"/>
			<point x="1159.71" y="1548.43" type="line"/>
			<point x="809.286" y="1548.43" type="line"/>
			<point x="809.286" y="1361.29" type="line" smooth="yes"/>
			<point x="809.286" y="1174.57"/>
			<point x="775.714" y="1077.71"/>
			<point x="653.714" y="1077.71" type="curve" smooth="yes"/>
			<point x="527.714" y="1077.71"/>
			<point x="494.857" y="1180"/>
			<point x="494.857" y="1364.43" type="curve" smooth="yes"/>
			<point x="494.857" y="1548.43" type="line"/>
			<point x="146.143" y="1548.43" type="line"/>
			<point x="146.143" y="1365.14" type="line" smooth="yes"/>
			<point x="146.143" y="1171.71"/>
			<point x="179" y="1022.29"/>
			<point x="354.143" y="939.857" type="curve"/>
			<point x="165" y="855.857"/>
			<point x="85.5714" y="713.143"/>
			<point x="85.5714" y="512.143" type="curve" smooth="yes"/>
			<point x="85.5714" y="169.143"/>
			<point x="338.286" y="-20.7143"/>
		</contour>
		<contour>
			<point x="652.857" y="253.286" type="curve" smooth="yes"/>
			<point x="511" y="253.286"/>
			<point x="440.714" y="345.714"/>
			<point x="440.714" y="522.429" type="curve" smooth="yes"/>
			<point x="440.714" y="705.429"/>
			<point x="510.571" y="799.571"/>
			<point x="653.714" y="799.571" type="curve" smooth="yes"/>
			<point x="799.571" y="799.571"/>
			<point x="864.857" y="704.571"/>
			<point x="864.857" y="525.857" type="curve" smooth="yes"/>
			<point x="864.857" y="348.286"/>
			<point x="785.429" y="253.286"/>
		</contour>
	</outline>
	<anchor name="bottom" x="652" y="0"/>
	<anchor name="top" x="652" y="1488.14"/>
</glyph>
<glyph name="uni0234" format="2">
	<unicode hex="0234"/>
	<advance width="958"/>
	<outline>
		<contour>
			<point x="255.429" y="-87.8571" type="line"/>
			<point x="272.429" y="-44.7143"/>
			<point x="308" y="19"/>
			<point x="332.429" y="50.5714" type="curve"/>
			<point x="377.429" y="11.5714"/>
			<point x="454.714" y="-20"/>
			<point x="577.143" y="-20" type="curve" smooth="yes"/>
			<point x="828.429" y="-20"/>
			<point x="946" y="104.429"/>
			<point x="946" y="275.429" type="curve" smooth="yes"/>
			<point x="946" y="418.714"/>
			<point x="846.857" y="526.429"/>
			<point x="670.143" y="526.429" type="curve" smooth="yes"/>
			<point x="603.143" y="526.429"/>
			<point x="535.857" y="504.286"/>
			<point x="503.143" y="481.857" type="curve"/>
			<point x="503.143" y="1556" type="line"/>
			<point x="155.143" y="1556" type="line"/>
			<point x="155.143" y="388.714" type="line" smooth="yes"/>
			<point x="155.143" y="291.429"/>
			<point x="169.143" y="220.143"/>
			<point x="196.429" y="170.857" type="curve"/>
			<point x="159.571" y="129.429"/>
			<point x="116.857" y="50.2857"/>
			<point x="91.2857" y="-11.2857" type="curve"/>
		</contour>
		<contour>
			<point x="619.143" y="180.143" type="curve" smooth="yes"/>
			<point x="548.571" y="180.143"/>
			<point x="510.571" y="221.571"/>
			<point x="502.286" y="284.429" type="curve"/>
			<point x="529.286" y="317.571"/>
			<point x="576.286" y="338.286"/>
			<point x="621.714" y="338.286" type="curve" smooth="yes"/>
			<point x="686.143" y="338.286"/>
			<point x="722" y="307.143"/>
			<point x="722" y="259.143" type="curve" smooth="yes"/>
			<point x="722" y="209.714"/>
			<point x="675.571" y="180.143"/>
		</contour>
	</outline>
	<anchor name="bottom" x="480.286" y="0"/>
	<anchor name="top" x="356.857" y="1556"/>
</glyph>
<glyph name="uni0235" format="2">
	<unicode hex="0235"/>
	<advance width="1596"/>
	<outline>
		<contour>
			<point x="925.714" y="-87.8571" type="line"/>
			<point x="942.714" y="-44.7143"/>
			<point x="978.286" y="19"/>
			<point x="1003.57" y="50.5714" type="curve"/>
			<point x="1048.43" y="11.5714"/>
			<point x="1125.86" y="-20"/>
			<point x="1247.43" y="-20" type="curve" smooth="yes"/>
			<point x="1499.57" y="-20"/>
			<point x="1617" y="104.429"/>
			<point x="1617" y="275.429" type="curve" smooth="yes"/>
			<point x="1617" y="418.714"/>
			<point x="1516.43" y="526.429"/>
			<point x="1340.29" y="526.429" type="curve" smooth="yes"/>
			<point x="1273.43" y="526.429"/>
			<point x="1206" y="504.286"/>
			<point x="1173.29" y="481.857" type="curve"/>
			<point x="1173.29" y="733" type="line" smooth="yes"/>
			<point x="1173.29" y="1025.86"/>
			<point x="1015.14" y="1145.71"/>
			<point x="797.571" y="1145.71" type="curve" smooth="yes"/>
			<point x="668.714" y="1145.71"/>
			<point x="545" y="1089.57"/>
			<point x="481.714" y="971.429" type="curve"/>
			<point x="464" y="971.429" type="line"/>
			<point x="419" y="1125.57" type="line"/>
			<point x="154.857" y="1125.57" type="line"/>
			<point x="154.857" y="0" type="line"/>
			<point x="502.857" y="0" type="line"/>
			<point x="502.857" y="511.714" type="line" smooth="yes"/>
			<point x="502.857" y="739.857"/>
			<point x="546.143" y="870.143"/>
			<point x="687" y="870.143" type="curve" smooth="yes"/>
			<point x="780.429" y="870.143"/>
			<point x="825.429" y="790"/>
			<point x="825.429" y="641.857" type="curve" smooth="yes"/>
			<point x="825.429" y="388.714" type="line" smooth="yes"/>
			<point x="825.429" y="291.429"/>
			<point x="839.429" y="220.143"/>
			<point x="866.571" y="170.857" type="curve"/>
			<point x="829.857" y="129.429"/>
			<point x="787.143" y="50.2857"/>
			<point x="762.429" y="-11.2857" type="curve"/>
		</contour>
		<contour>
			<point x="1290.29" y="180.143" type="curve" smooth="yes"/>
			<point x="1218.71" y="180.143"/>
			<point x="1180.86" y="221.571"/>
			<point x="1172.57" y="284.429" type="curve"/>
			<point x="1200.43" y="317.571"/>
			<point x="1247.43" y="338.286"/>
			<point x="1292.86" y="338.286" type="curve" smooth="yes"/>
			<point x="1356.43" y="338.286"/>
			<point x="1393.14" y="307.143"/>
			<point x="1393.14" y="259.143" type="curve" smooth="yes"/>
			<point x="1393.14" y="209.714"/>
			<point x="1346.71" y="180.143"/>
		</contour>
	</outline>
	<anchor name="bottom" x="798.143" y="0"/>
	<anchor name="top" x="798.143" y="1125.57"/>
</glyph>
<glyph name="uni023A" format="2">
	<unicode hex="023A"/>
	<advance width="1450"/>
	<outline>
		<component base="A"/>
		<contour>
			<point x="1189.29" y="1556" type="line"/>
			<point x="969.143" y="1556" type="line"/>
			<point x="375.143" y="-154" type="line"/>
			<point x="595.286" y="-154" type="line"/>
		</contour>
	</outline>
	<anchor name="bottom" x="721.429" y="0"/>
	<anchor name="top" x="721.429" y="1462"/>
</glyph>
<glyph name="uni023B" format="2">
	<unicode hex="023B"/>
	<advance width="1310"/>
	<outline>
		<component base="C"/>
		<contour>
			<point x="1187.71" y="1556" type="line"/>
			<point x="967.429" y="1556" type="line"/>
			<point x="373.429" y="-154" type="line"/>
			<point x="593.714" y="-154" type="line"/>
		</contour>
	</outline>
	<anchor name="bottom" x="772.571" y="0"/>
	<anchor name="top" x="754.429" y="1462"/>
</glyph>
<glyph name="uni023E" format="2">
	<unicode hex="023E"/>
	<advance width="1208"/>
	<outline>
		<component base="T"/>
		<contour>
			<point x="1238.71" y="1556" type="line"/>
			<point x="1063.43" y="1556" type="line"/>
			<point x="134.286" y="-154" type="line"/>
			<point x="308.857" y="-154" type="line"/>
		</contour>
	</outline>
	<anchor name="bottom" x="593.429" y="0"/>
	<anchor name="top" x="593.429" y="1462"/>
</glyph>
<glyph name="uni0241" format="2">
	<unicode hex="0241"/>
	<advance width="1014"/>
	<outline>
		<contour>
			<point x="466.429" y="1484.43" type="curve" smooth="yes"/>
			<point x="288.143" y="1484.43"/>
			<point x="141.857" y="1433.43"/>
			<point x="0.857143" y="1356.43" type="curve"/>
			<point x="124.714" y="1107.14" type="line"/>
			<point x="179.571" y="1137.43"/>
			<point x="304.714" y="1204.57"/>
			<point x="431" y="1204.57" type="curve" smooth="yes"/>
			<point x="528.286" y="1204.57"/>
			<point x="615.571" y="1133"/>
			<point x="615.571" y="1035" type="curve" smooth="yes"/>
			<point x="615.571" y="933.714"/>
			<point x="555.714" y="783.714"/>
			<point x="249" y="675.429" type="curve"/>
			<point x="249" y="0" type="line"/>
			<point x="602.143" y="0" type="line"/>
			<point x="602.143" y="528.571" type="line"/>
			<point x="868.143" y="669.571"/>
			<point x="969.714" y="825.714"/>
			<point x="969.714" y="1049.29" type="curve" smooth="yes"/>
			<point x="969.714" y="1290.71"/>
			<point x="777.714" y="1484.43"/>
		</contour>
	</outline>
	<anchor name="bottom" x="507.429" y="0"/>
	<anchor name="top" x="507.429" y="1462"/>
</glyph>
<glyph name="uni0243" format="2">
	<unicode hex="0243"/>
	<advance width="1362"/>
	<outline>
		<contour>
			<point x="165.571" y="0" type="line"/>
			<point x="711.857" y="0" type="line" smooth="yes"/>
			<point x="1049.43" y="0"/>
			<point x="1263.57" y="155.286"/>
			<point x="1263.57" y="433.143" type="curve" smooth="yes"/>
			<point x="1263.57" y="665.143"/>
			<point x="1132.43" y="752.429"/>
			<point x="995.857" y="783.429" type="curve"/>
			<point x="995.857" y="793.429" type="line"/>
			<point x="1116.29" y="820.429"/>
			<point x="1233.43" y="923.429"/>
			<point x="1233.43" y="1106.57" type="curve" smooth="yes"/>
			<point x="1233.43" y="1334.86"/>
			<point x="1071.57" y="1462"/>
			<point x="658.571" y="1462" type="curve" smooth="yes"/>
			<point x="165.571" y="1462" type="line"/>
			<point x="165.571" y="562.286" type="line"/>
			<point x="20.4286" y="562.286" type="line"/>
			<point x="20.4286" y="363" type="line"/>
			<point x="165.571" y="363" type="line"/>
		</contour>
		<contour>
			<point x="511.714" y="268.714" type="line"/>
			<point x="511.714" y="363" type="line"/>
			<point x="718" y="363" type="line"/>
			<point x="718" y="562.286" type="line"/>
			<point x="511.714" y="562.286" type="line"/>
			<point x="511.714" y="648.714" type="line"/>
			<point x="674" y="648.714" type="line" smooth="yes"/>
			<point x="841.857" y="648.714"/>
			<point x="906.714" y="569.143"/>
			<point x="906.714" y="461.143" type="curve" smooth="yes"/>
			<point x="906.714" y="341.143"/>
			<point x="841.286" y="268.714"/>
			<point x="684.143" y="268.714" type="curve" smooth="yes"/>
		</contour>
		<contour>
			<point x="511.714" y="903.857" type="line"/>
			<point x="511.714" y="1198.43" type="line"/>
			<point x="654.286" y="1198.43" type="line" smooth="yes"/>
			<point x="808.429" y="1198.43"/>
			<point x="878.429" y="1149"/>
			<point x="878.429" y="1057.43" type="curve" smooth="yes"/>
			<point x="878.429" y="966.143"/>
			<point x="818.143" y="903.857"/>
			<point x="664.714" y="903.857" type="curve" smooth="yes"/>
		</contour>
	</outline>
	<anchor name="bottom" x="681.286" y="0"/>
	<anchor name="top" x="681.286" y="1462"/>
</glyph>
<glyph name="uni0244" format="2">
	<unicode hex="0244"/>
	<advance width="1537"/>
	<outline>
		<component base="U"/>
		<contour>
			<point x="0.428571" y="660.714" type="line"/>
			<point x="1538" y="660.714" type="line"/>
			<point x="1538" y="950.857" type="line"/>
			<point x="0.428571" y="950.857" type="line"/>
		</contour>
	</outline>
	<anchor name="bottom" x="765.857" y="0"/>
	<anchor name="top" x="769.286" y="1462"/>
</glyph>
<glyph name="uni0247" format="2">
	<unicode hex="0247"/>
	<advance width="1229"/>
	<outline>
		<component base="e"/>
		<contour>
			<point x="1067.57" y="1531.43" type="line"/>
			<point x="842.143" y="1531.43" type="line"/>
			<point x="171.143" y="-410" type="line"/>
			<point x="396.429" y="-410" type="line"/>
		</contour>
	</outline>
	<anchor name="bottom" x="663.571" y="-410"/>
	<anchor name="top" x="621.571" y="1531.43"/>
</glyph>
<glyph name="uni0248" format="2">
	<unicode hex="0248"/>
	<advance width="716"/>
	<outline>
		<contour>
			<point x="44.4286" y="-444.286" type="curve" smooth="yes"/>
			<point x="329.429" y="-444.286"/>
			<point x="531.429" y="-290.286"/>
			<point x="531.429" y="115.429" type="curve" smooth="yes"/>
			<point x="531.429" y="590" type="line"/>
			<point x="718.429" y="590" type="line"/>
			<point x="718.429" y="881.857" type="line"/>
			<point x="531.429" y="881.857" type="line"/>
			<point x="531.429" y="1462" type="line"/>
			<point x="180.143" y="1462" type="line"/>
			<point x="180.143" y="881.857" type="line"/>
			<point x="-5.71429" y="881.857" type="line"/>
			<point x="-5.71429" y="590" type="line"/>
			<point x="180.143" y="590" type="line"/>
			<point x="180.143" y="114.571" type="line" smooth="yes"/>
			<point x="180.143" y="-107.714"/>
			<point x="100.857" y="-148.714"/>
			<point x="-1.28571" y="-148.714" type="curve" smooth="yes"/>
			<point x="-60.5714" y="-148.714"/>
			<point x="-106.857" y="-138.714"/>
			<point x="-145.857" y="-126.857" type="curve"/>
			<point x="-145.857" y="-420.857" type="line"/>
			<point x="-102.286" y="-431.429"/>
			<point x="-40.7143" y="-444.286"/>
		</contour>
	</outline>
	<anchor name="bottom" x="358.857" y="-444.286"/>
	<anchor name="top" x="358.857" y="1462"/>
</glyph>
<glyph name="uni024A" format="2">
	<unicode hex="024A"/>
	<advance width="1598"/>
	<outline>
		<contour>
			<point x="666.571" y="1484.14" type="curve" smooth="yes"/>
			<point x="368.286" y="1484.14"/>
			<point x="115.857" y="1235.71"/>
			<point x="115.857" y="731.857" type="curve" smooth="yes"/>
			<point x="115.857" y="229.857"/>
			<point x="359.714" y="-20"/>
			<point x="664" y="-20" type="curve" smooth="yes"/>
			<point x="864.429" y="-20"/>
			<point x="984.714" y="62.4286"/>
			<point x="1069.14" y="188.571" type="curve"/>
			<point x="1084.29" y="188.571" type="line"/>
			<point x="1082.29" y="78.7143"/>
			<point x="1083.71" y="18.8571"/>
			<point x="1083.71" y="-83.8571" type="curve" smooth="yes"/>
			<point x="1083.71" y="-115.429" type="line" smooth="yes"/>
			<point x="1083.71" y="-385.714"/>
			<point x="1230.29" y="-492.857"/>
			<point x="1466.43" y="-492.857" type="curve" smooth="yes"/>
			<point x="1538.29" y="-492.857"/>
			<point x="1615.57" y="-475.286"/>
			<point x="1649.71" y="-459.857" type="curve"/>
			<point x="1649.71" y="-196.286" type="line"/>
			<point x="1627" y="-203.143"/>
			<point x="1584" y="-218"/>
			<point x="1532.14" y="-218" type="curve" smooth="yes"/>
			<point x="1481.14" y="-218"/>
			<point x="1436.71" y="-185"/>
			<point x="1436.71" y="-111.714" type="curve" smooth="yes"/>
			<point x="1436.71" y="1462" type="line"/>
			<point x="1104.86" y="1462" type="line"/>
			<point x="1078" y="1297.71" type="line"/>
			<point x="1070.57" y="1297.71" type="line"/>
			<point x="995.571" y="1401.29"/>
			<point x="866.857" y="1484.14"/>
		</contour>
		<contour>
			<point x="770" y="1188.71" type="curve" smooth="yes"/>
			<point x="978.857" y="1188.71"/>
			<point x="1083.71" y="1057.71"/>
			<point x="1083.71" y="731.714" type="curve"/>
			<point x="1083.71" y="798.857" type="line"/>
			<point x="1083.71" y="394.143"/>
			<point x="948" y="274.429"/>
			<point x="778.571" y="274.429" type="curve" smooth="yes"/>
			<point x="600.286" y="274.429"/>
			<point x="487.143" y="420.286"/>
			<point x="487.143" y="726.429" type="curve" smooth="yes"/>
			<point x="487.143" y="1020.71"/>
			<point x="604.571" y="1188.71"/>
		</contour>
	</outline>
	<anchor name="bottom" x="799.143" y="-492.857"/>
	<anchor name="top" x="799.143" y="1462"/>
</glyph>
<glyph name="uni024C" format="2">
	<unicode hex="024C"/>
	<advance width="1380"/>
	<outline>
		<component base="R"/>
		<contour>
			<point x="242.857" y="544.429" type="line"/>
			<point x="242.857" y="831.286" type="line"/>
			<point x="20" y="831.286" type="line"/>
			<point x="20" y="544.429" type="line"/>
		</contour>
	</outline>
	<anchor name="bottom" x="708.286" y="0"/>
	<anchor name="top" x="679.429" y="1462"/>
</glyph>
<glyph name="uni024D" format="2">
	<unicode hex="024D"/>
	<advance width="933"/>
	<outline>
		<component base="r"/>
		<contour>
			<point x="711.571" y="660.571" type="line"/>
			<point x="-5.85714" y="660.571" type="line"/>
			<point x="-5.85714" y="437.286" type="line"/>
			<point x="711.571" y="437.286" type="line"/>
		</contour>
	</outline>
	<anchor name="bottom" x="320.143" y="0"/>
	<anchor name="top" x="495.571" y="1125.57"/>
</glyph>
<glyph name="uni0251" format="2">
	<unicode hex="0251"/>
	<advance width="1311"/>
	<outline>
		<contour>
			<point x="527.571" y="-20" type="curve" smooth="yes"/>
			<point x="707.143" y="-20"/>
			<point x="801.286" y="70"/>
			<point x="859.714" y="160.286" type="curve"/>
			<point x="870.571" y="160.286" type="line"/>
			<point x="923.714" y="24.7143"/>
			<point x="1003.86" y="-20"/>
			<point x="1159.43" y="-20" type="curve" smooth="yes"/>
			<point x="1202.14" y="-20"/>
			<point x="1284.57" y="-7.14286"/>
			<point x="1304.29" y="4.28571" type="curve"/>
			<point x="1304.29" y="260.714" type="line"/>
			<point x="1292.43" y="256.143"/>
			<point x="1262.14" y="250.429"/>
			<point x="1242.86" y="250.429" type="curve" smooth="yes"/>
			<point x="1195.71" y="250.429"/>
			<point x="1157.71" y="278"/>
			<point x="1157.71" y="384.571" type="curve" smooth="yes"/>
			<point x="1157.71" y="1125.57" type="line"/>
			<point x="874.714" y="1125.57" type="line"/>
			<point x="830.286" y="987.429" type="line"/>
			<point x="821.143" y="987.429" type="line"/>
			<point x="763.571" y="1073"/>
			<point x="681.429" y="1145.71"/>
			<point x="521.429" y="1145.71" type="curve" smooth="yes"/>
			<point x="259.857" y="1145.71"/>
			<point x="91" y="945"/>
			<point x="91" y="559.714" type="curve" smooth="yes"/>
			<point x="91" y="177.714"/>
			<point x="253.143" y="-20"/>
		</contour>
		<contour>
			<point x="641.571" y="250.429" type="curve" smooth="yes"/>
			<point x="511.286" y="250.429"/>
			<point x="437.429" y="345.286"/>
			<point x="437.429" y="558" type="curve" smooth="yes"/>
			<point x="437.429" y="767.286"/>
			<point x="512.714" y="868.429"/>
			<point x="645.714" y="868.429" type="curve" smooth="yes"/>
			<point x="775" y="868.429"/>
			<point x="840.286" y="774.286"/>
			<point x="840.286" y="581.857" type="curve" smooth="yes"/>
			<point x="840.286" y="540.714" type="line" smooth="yes"/>
			<point x="840.286" y="351"/>
			<point x="769.714" y="250.429"/>
		</contour>
	</outline>
	<anchor name="bottom" x="656.286" y="0"/>
	<anchor name="top" x="656.286" y="1125.57"/>
</glyph>
<glyph name="uni0252" format="2">
	<unicode hex="0252"/>
	<advance width="1311"/>
	<outline>
		<contour>
			<point x="783.857" y="1145.57" type="curve" smooth="yes"/>
			<point x="604.286" y="1145.57"/>
			<point x="510.143" y="1055.57"/>
			<point x="451.714" y="965.286" type="curve"/>
			<point x="440.857" y="965.286" type="line"/>
			<point x="387.714" y="1100.86"/>
			<point x="307.571" y="1145.57"/>
			<point x="152" y="1145.57" type="curve" smooth="yes"/>
			<point x="109.286" y="1145.57"/>
			<point x="26.8571" y="1132.71"/>
			<point x="7.14286" y="1121.29" type="curve"/>
			<point x="7.14286" y="864.857" type="line"/>
			<point x="19" y="869.429"/>
			<point x="49.2857" y="875.143"/>
			<point x="68.5714" y="875.143" type="curve" smooth="yes"/>
			<point x="115.714" y="875.143"/>
			<point x="153.714" y="847.571"/>
			<point x="153.714" y="741" type="curve" smooth="yes"/>
			<point x="153.714" y="0" type="line"/>
			<point x="436.714" y="0" type="line"/>
			<point x="481.143" y="138.143" type="line"/>
			<point x="490.286" y="138.143" type="line"/>
			<point x="547.857" y="52.5714"/>
			<point x="630" y="-20.1429"/>
			<point x="790" y="-20.1429" type="curve" smooth="yes"/>
			<point x="1051.57" y="-20.1429"/>
			<point x="1220.43" y="180.571"/>
			<point x="1220.43" y="565.857" type="curve" smooth="yes"/>
			<point x="1220.43" y="947.857"/>
			<point x="1058.29" y="1145.57"/>
		</contour>
		<contour>
			<point x="669.857" y="875.143" type="curve" smooth="yes"/>
			<point x="800.143" y="875.143"/>
			<point x="874" y="780.286"/>
			<point x="874" y="567.571" type="curve" smooth="yes"/>
			<point x="874" y="358.286"/>
			<point x="798.714" y="257.143"/>
			<point x="665.714" y="257.143" type="curve" smooth="yes"/>
			<point x="536.429" y="257.143"/>
			<point x="471.143" y="351.286"/>
			<point x="471.143" y="543.714" type="curve" smooth="yes"/>
			<point x="471.143" y="584.857" type="line" smooth="yes"/>
			<point x="471.143" y="774.571"/>
			<point x="541.714" y="875.143"/>
		</contour>
	</outline>
	<anchor name="bottom" x="656.286" y="0"/>
	<anchor name="top" x="656.286" y="1125.57"/>
</glyph>
<glyph name="uni0253" format="2">
	<unicode hex="0253"/>
	<advance width="1311"/>
	<outline>
		<contour>
			<point x="535.571" y="1570.43" type="curve" smooth="yes"/>
			<point x="310.429" y="1570.43"/>
			<point x="154.571" y="1470"/>
			<point x="154.571" y="1208.57" type="curve" smooth="yes"/>
			<point x="154.571" y="0" type="line"/>
			<point x="427.571" y="0" type="line"/>
			<point x="481.143" y="119.571" type="line"/>
			<point x="503.143" y="119.571" type="line"/>
			<point x="557.286" y="53.1429"/>
			<point x="631.143" y="-20"/>
			<point x="802.857" y="-20" type="curve" smooth="yes"/>
			<point x="1048" y="-20"/>
			<point x="1225.57" y="173.857"/>
			<point x="1225.57" y="565.571" type="curve" smooth="yes"/>
			<point x="1225.57" y="945.857"/>
			<point x="1050" y="1146"/>
			<point x="816.143" y="1146" type="curve" smooth="yes"/>
			<point x="647.714" y="1146"/>
			<point x="551" y="1061"/>
			<point x="502.571" y="973.286" type="curve"/>
			<point x="489" y="973.286" type="line"/>
			<point x="495.286" y="1034.43"/>
			<point x="502.571" y="1107.57"/>
			<point x="502.571" y="1185.57" type="curve" smooth="yes"/>
			<point x="502.571" y="1199" type="line"/>
			<point x="507.714" y="1265.14"/>
			<point x="534.143" y="1294"/>
			<point x="593" y="1294" type="curve" smooth="yes"/>
			<point x="647.143" y="1294"/>
			<point x="693.857" y="1281.29"/>
			<point x="713.571" y="1273.29" type="curve"/>
			<point x="713.571" y="1535.43" type="line"/>
			<point x="684.714" y="1548.43"/>
			<point x="614.857" y="1570.43"/>
		</contour>
		<contour>
			<point x="695.286" y="870.429" type="curve" smooth="yes"/>
			<point x="799.286" y="870.429"/>
			<point x="870.571" y="768.714"/>
			<point x="870.571" y="569" type="curve" smooth="yes"/>
			<point x="870.571" y="367.857"/>
			<point x="796.857" y="260.714"/>
			<point x="695.714" y="260.714" type="curve" smooth="yes"/>
			<point x="551.143" y="260.714"/>
			<point x="502.571" y="370.143"/>
			<point x="502.571" y="587.857" type="curve"/>
			<point x="507.714" y="782.571"/>
			<point x="566.429" y="870.429"/>
		</contour>
	</outline>
	<anchor name="bottom" x="656.286" y="0"/>
	<anchor name="top" x="656.286" y="1570.43"/>
</glyph>
<glyph name="uni0255" format="2">
	<unicode hex="0255"/>
	<advance width="1143"/>
	<outline>
		<contour>
			<point x="677.857" y="1145.71" type="curve" smooth="yes"/>
			<point x="327.143" y="1145.71"/>
			<point x="85.8571" y="947.143"/>
			<point x="85.8571" y="557.286" type="curve" smooth="yes"/>
			<point x="85.8571" y="393.857"/>
			<point x="127.714" y="279.143"/>
			<point x="191.571" y="180.286" type="curve"/>
			<point x="155.143" y="111.429"/>
			<point x="124.286" y="47.1429"/>
			<point x="93.2857" y="-39.4286" type="curve"/>
			<point x="256.571" y="-113.143" type="line"/>
			<point x="279" y="-46.5714"/>
			<point x="304.429" y="13.5714"/>
			<point x="334" y="67" type="curve"/>
			<point x="407.429" y="19.8571"/>
			<point x="508.143" y="-20"/>
			<point x="657.429" y="-20" type="curve" smooth="yes"/>
			<point x="906.714" y="-20"/>
			<point x="1084.57" y="96.5714"/>
			<point x="1084.57" y="322.429" type="curve" smooth="yes"/>
			<point x="1084.57" y="485.714"/>
			<point x="983.857" y="596.286"/>
			<point x="770.571" y="596.286" type="curve" smooth="yes"/>
			<point x="617" y="596.286"/>
			<point x="507.714" y="535.714"/>
			<point x="456" y="482.143" type="curve"/>
			<point x="446.143" y="509.286"/>
			<point x="440.857" y="549.714"/>
			<point x="440.857" y="583.857" type="curve" smooth="yes"/>
			<point x="440.857" y="764.286"/>
			<point x="532" y="868.429"/>
			<point x="695" y="868.429" type="curve" smooth="yes"/>
			<point x="789.286" y="868.429"/>
			<point x="860.143" y="843.429"/>
			<point x="951.571" y="803" type="curve"/>
			<point x="1042.14" y="1063.29" type="line"/>
			<point x="959.286" y="1103"/>
			<point x="853.143" y="1145.71"/>
		</contour>
		<contour>
			<point x="717.714" y="413.143" type="curve" smooth="yes"/>
			<point x="792.143" y="413.143"/>
			<point x="841.857" y="379.286"/>
			<point x="841.857" y="320.143" type="curve" smooth="yes"/>
			<point x="841.857" y="258.429"/>
			<point x="771.857" y="223.857"/>
			<point x="688.286" y="223.857" type="curve" smooth="yes"/>
			<point x="599.857" y="223.857"/>
			<point x="544.571" y="257.714"/>
			<point x="505.286" y="311.429" type="curve"/>
			<point x="541" y="359.857"/>
			<point x="616.571" y="413.143"/>
		</contour>
	</outline>
	<anchor name="bottom" x="572.857" y="0"/>
	<anchor name="top" x="572.857" y="1125.57"/>
</glyph>
<glyph name="schwahook" format="2">
	<unicode hex="025A"/>
	<advance width="1750"/>
	<outline>
		<contour>
			<point x="599.143" y="-20" type="curve" smooth="yes"/>
			<point x="938.286" y="-20"/>
			<point x="1159.86" y="189.714"/>
			<point x="1171.86" y="571.429" type="curve"/>
			<point x="1257.14" y="593.571" type="line"/>
			<point x="1314.71" y="416"/>
			<point x="1393.14" y="346.571"/>
			<point x="1549.14" y="346.571" type="curve" smooth="yes"/>
			<point x="1637" y="346.571"/>
			<point x="1709.14" y="383.857"/>
			<point x="1749.71" y="417.571" type="curve"/>
			<point x="1691" y="593.143" type="line"/>
			<point x="1655.14" y="569.143"/>
			<point x="1621.57" y="551.143"/>
			<point x="1573.14" y="551.143" type="curve" smooth="yes"/>
			<point x="1506" y="551.143"/>
			<point x="1476.14" y="607.286"/>
			<point x="1442.29" y="738.714" type="curve" smooth="yes"/>
			<point x="1413.86" y="846.143" type="line"/>
			<point x="1143" y="781.429" type="line"/>
			<point x="1068.86" y="1030.86"/>
			<point x="867" y="1145.71"/>
			<point x="590.571" y="1145.71" type="curve" smooth="yes"/>
			<point x="401.286" y="1145.71"/>
			<point x="237.714" y="1096.14"/>
			<point x="155.714" y="1062.57" type="curve"/>
			<point x="155.714" y="798.714" type="line"/>
			<point x="250.286" y="844.571"/>
			<point x="387.286" y="890.714"/>
			<point x="537.429" y="890.714" type="curve" smooth="yes"/>
			<point x="690.286" y="890.714"/>
			<point x="785" y="829.143"/>
			<point x="821.429" y="693" type="curve"/>
			<point x="87.5714" y="499.143" type="line"/>
			<point x="87.5714" y="171.714"/>
			<point x="257.429" y="-20"/>
		</contour>
		<contour>
			<point x="614.286" y="222.429" type="curve" smooth="yes"/>
			<point x="481.714" y="222.429"/>
			<point x="427.714" y="302.143"/>
			<point x="413.429" y="381.429" type="curve"/>
			<point x="844.286" y="492.571" type="line"/>
			<point x="844.286" y="309"/>
			<point x="747.571" y="222.429"/>
		</contour>
	</outline>
	<anchor name="bottom" x="589.714" y="0"/>
	<anchor name="top" x="589.714" y="1125.57"/>
</glyph>
<glyph name="uni025B" format="2">
	<unicode hex="025B"/>
	<advance width="1100"/>
	<outline>
		<contour>
			<point x="814.143" y="698.857" type="line"/>
			<point x="693" y="698.857" type="line" smooth="yes"/>
			<point x="520.143" y="698.857"/>
			<point x="455.429" y="732"/>
			<point x="455.429" y="802.143" type="curve" smooth="yes"/>
			<point x="455.429" y="863.571"/>
			<point x="507.571" y="899.286"/>
			<point x="627.429" y="899.286" type="curve" smooth="yes"/>
			<point x="736.286" y="899.286"/>
			<point x="828.714" y="875.143"/>
			<point x="929.286" y="829.857" type="curve"/>
			<point x="1027" y="1063.14" type="line"/>
			<point x="897.286" y="1117.57"/>
			<point x="778.143" y="1145.71"/>
			<point x="613.429" y="1145.71" type="curve" smooth="yes"/>
			<point x="347.286" y="1145.71"/>
			<point x="131.286" y="1062.86"/>
			<point x="131.286" y="842.429" type="curve" smooth="yes"/>
			<point x="131.286" y="721.286"/>
			<point x="208.286" y="630.143"/>
			<point x="336" y="595.429" type="curve"/>
			<point x="336" y="586.143" type="line"/>
			<point x="158.286" y="559"/>
			<point x="67.7143" y="449.429"/>
			<point x="67.7143" y="316.429" type="curve" smooth="yes"/>
			<point x="67.7143" y="102"/>
			<point x="212.429" y="-20"/>
			<point x="587.286" y="-20" type="curve" smooth="yes"/>
			<point x="794.714" y="-20"/>
			<point x="918.429" y="10"/>
			<point x="1027.29" y="56.4286" type="curve"/>
			<point x="1027.29" y="320" type="line"/>
			<point x="932.143" y="277.571"/>
			<point x="799.429" y="235.857"/>
			<point x="637" y="235.857" type="curve" smooth="yes"/>
			<point x="445.429" y="235.857"/>
			<point x="411.714" y="302.714"/>
			<point x="411.714" y="355" type="curve" smooth="yes"/>
			<point x="411.714" y="434.143"/>
			<point x="464.714" y="473.857"/>
			<point x="669.714" y="473.857" type="curve" smooth="yes"/>
			<point x="814.143" y="473.857" type="line"/>
		</contour>
	</outline>
	<anchor name="bottom" x="549.714" y="0"/>
	<anchor name="top" x="602.857" y="1125.57"/>
</glyph>
<glyph name="eopenreversedhook" format="2">
	<unicode hex="025D"/>
	<advance width="1541"/>
	<outline>
		<component base="afii10073"/>
		<contour>
			<point x="1317.86" y="529.857" type="curve" smooth="yes"/>
			<point x="1410.86" y="529.857"/>
			<point x="1479.57" y="561.857"/>
			<point x="1540.57" y="609.429" type="curve"/>
			<point x="1461.43" y="796.143" type="line"/>
			<point x="1427.29" y="771.286"/>
			<point x="1393.71" y="748.857"/>
			<point x="1335.86" y="748.857" type="curve" smooth="yes"/>
			<point x="1261" y="748.857"/>
			<point x="1242.29" y="800.857"/>
			<point x="1207.57" y="932.143" type="curve"/>
			<point x="1180.86" y="1024.14" type="line"/>
			<point x="752.286" y="905.714" type="line"/>
			<point x="806.286" y="706.429" type="line"/>
			<point x="1029.29" y="765.714" type="line"/>
			<point x="1078.29" y="610.286"/>
			<point x="1163.57" y="529.857"/>
		</contour>
	</outline>
	<anchor name="bottom" x="505.143" y="0"/>
	<anchor name="top" x="505.143" y="1125.57"/>
</glyph>
<glyph name="uni025F" format="2">
	<unicode hex="025F"/>
	<advance width="659"/>
	<outline>
		<contour>
			<point x="75.2857" y="-492" type="curve" smooth="yes"/>
			<point x="388.429" y="-492"/>
			<point x="502.857" y="-313.429"/>
			<point x="502.857" y="-103.714" type="curve" smooth="yes"/>
			<point x="502.857" y="448.857" type="line"/>
			<point x="659.429" y="448.857" type="line"/>
			<point x="659.429" y="672.143" type="line"/>
			<point x="502.857" y="672.143" type="line"/>
			<point x="502.857" y="1125.57" type="line"/>
			<point x="154.857" y="1125.57" type="line"/>
			<point x="154.857" y="672.143" type="line"/>
			<point x="-3.14286" y="672.143" type="line"/>
			<point x="-3.14286" y="448.857" type="line"/>
			<point x="154.857" y="448.857" type="line"/>
			<point x="154.857" y="-40.8571" type="line" smooth="yes"/>
			<point x="154.857" y="-182.429"/>
			<point x="85.5714" y="-213.714"/>
			<point x="6.71429" y="-213.714" type="curve" smooth="yes"/>
			<point x="-53.1429" y="-213.714"/>
			<point x="-91" y="-208"/>
			<point x="-138.857" y="-195.143" type="curve"/>
			<point x="-138.857" y="-467.571" type="line"/>
			<point x="-88.8571" y="-481.286"/>
			<point x="2.71429" y="-492"/>
		</contour>
	</outline>
	<anchor name="bottom" x="330.429" y="-492"/>
	<anchor name="top" x="330.429" y="1125.57"/>
	<anchor name="topright" x="575.857" y="1125.29"/>
</glyph>
<glyph name="uni0260" format="2">
	<unicode hex="0260"/>
	<advance width="1311"/>
	<outline>
		<contour>
			<point x="1190.43" y="1575.29" type="curve" smooth="yes"/>
			<point x="942.429" y="1575.29"/>
			<point x="808.286" y="1458.43"/>
			<point x="808.286" y="1223.86" type="curve" smooth="yes"/>
			<point x="808.286" y="1174.71" type="line" smooth="yes"/>
			<point x="808.286" y="1111"/>
			<point x="821.143" y="1043.14"/>
			<point x="833.429" y="985" type="curve"/>
			<point x="826" y="985" type="line"/>
			<point x="754.429" y="1083.43"/>
			<point x="647.286" y="1145.71"/>
			<point x="511.714" y="1145.71" type="curve" smooth="yes"/>
			<point x="255.857" y="1145.71"/>
			<point x="85.8571" y="936.714"/>
			<point x="85.8571" y="560.857" type="curve" smooth="yes"/>
			<point x="85.8571" y="197.714"/>
			<point x="240.714" y="-20"/>
			<point x="499.857" y="-20" type="curve" smooth="yes"/>
			<point x="630.857" y="-20"/>
			<point x="737" y="29.7143"/>
			<point x="808.286" y="150" type="curve"/>
			<point x="810.571" y="150" type="line"/>
			<point x="806.571" y="106.857"/>
			<point x="808.286" y="65.2857"/>
			<point x="808.286" y="18.7143" type="curve" smooth="yes"/>
			<point x="808.286" y="-7.28571" type="line" smooth="yes"/>
			<point x="808.286" y="-171.286"/>
			<point x="735.714" y="-245.429"/>
			<point x="587.286" y="-245.429" type="curve" smooth="yes"/>
			<point x="435.143" y="-245.429"/>
			<point x="292.286" y="-218.429"/>
			<point x="146.286" y="-159.429" type="curve"/>
			<point x="146.286" y="-426.286" type="line"/>
			<point x="282" y="-477.571"/>
			<point x="411" y="-492"/>
			<point x="567.571" y="-492" type="curve" smooth="yes"/>
			<point x="952.143" y="-492"/>
			<point x="1157.14" y="-320.429"/>
			<point x="1157.14" y="-0.428571" type="curve" smooth="yes"/>
			<point x="1157.14" y="1182.43" type="line" smooth="yes"/>
			<point x="1157.14" y="1257.14"/>
			<point x="1203.29" y="1299.57"/>
			<point x="1267.57" y="1299.57" type="curve" smooth="yes"/>
			<point x="1320.57" y="1299.57"/>
			<point x="1361.86" y="1286.14"/>
			<point x="1384" y="1276.71" type="curve"/>
			<point x="1384" y="1540.57" type="line"/>
			<point x="1354.57" y="1552.57"/>
			<point x="1281.86" y="1575.29"/>
		</contour>
		<contour>
			<point x="629.143" y="865" type="curve" smooth="yes"/>
			<point x="767.143" y="865"/>
			<point x="833.143" y="780.857"/>
			<point x="833.143" y="561.714" type="curve" smooth="yes"/>
			<point x="833.143" y="516" type="line" smooth="yes"/>
			<point x="833.143" y="326.143"/>
			<point x="761.571" y="250.429"/>
			<point x="633.571" y="250.429" type="curve" smooth="yes"/>
			<point x="499.286" y="250.429"/>
			<point x="440.857" y="352.143"/>
			<point x="440.857" y="557.429" type="curve" smooth="yes"/>
			<point x="440.857" y="760.571"/>
			<point x="499.857" y="865"/>
		</contour>
	</outline>
	<anchor name="bottom" x="656.286" y="-492"/>
	<anchor name="top" x="656.286" y="1575.29"/>
</glyph>
<glyph name="uni0263" format="2">
	<unicode hex="0263"/>
	<advance width="1211"/>
	<outline>
		<contour>
			<point x="585.571" y="-492" type="curve" smooth="yes"/>
			<point x="793.571" y="-492"/>
			<point x="915" y="-363.143"/>
			<point x="915" y="-177.857" type="curve" smooth="yes"/>
			<point x="915" y="-33.2857"/>
			<point x="864.143" y="80.8571"/>
			<point x="782.143" y="236.571" type="curve"/>
			<point x="1207" y="1125.57" type="line"/>
			<point x="840.857" y="1125.57" type="line"/>
			<point x="661" y="664.571" type="line" smooth="yes"/>
			<point x="631.429" y="589.429"/>
			<point x="615.857" y="542.286"/>
			<point x="601.286" y="477" type="curve"/>
			<point x="594.714" y="477" type="line"/>
			<point x="577.714" y="540.571"/>
			<point x="558.429" y="609.143"/>
			<point x="536" y="666.857" type="curve"/>
			<point x="365.286" y="1125.57" type="line"/>
			<point x="0" y="1125.57" type="line"/>
			<point x="398.857" y="244.857" type="line"/>
			<point x="314.857" y="72.2857"/>
			<point x="260.857" y="-30"/>
			<point x="260.857" y="-174.429" type="curve" smooth="yes"/>
			<point x="260.857" y="-372.857"/>
			<point x="378" y="-492"/>
		</contour>
		<contour>
			<point x="587.857" y="-268.571" type="curve" smooth="yes"/>
			<point x="546.143" y="-268.571"/>
			<point x="523.429" y="-233"/>
			<point x="523.429" y="-157.571" type="curve" smooth="yes"/>
			<point x="523.429" y="-112"/>
			<point x="539.571" y="-21.5714"/>
			<point x="588.143" y="64.4286" type="curve"/>
			<point x="635.714" y="-27.5714"/>
			<point x="652.571" y="-115.143"/>
			<point x="652.571" y="-161" type="curve" smooth="yes"/>
			<point x="652.571" y="-232.429"/>
			<point x="631.571" y="-268.571"/>
		</contour>
	</outline>
	<anchor name="bottom" x="605.429" y="-492"/>
	<anchor name="top" x="605.429" y="1125.57"/>
</glyph>
<glyph name="uni0264" format="2">
	<unicode hex="0264"/>
	<advance width="1196"/>
	<outline>
		<contour>
			<point x="1041.71" y="1140" type="curve" smooth="yes"/>
			<point x="918" y="1140"/>
			<point x="835" y="1085"/>
			<point x="763.286" y="990.286" type="curve"/>
			<point x="703.429" y="905.714" type="line"/>
			<point x="668.429" y="860.714"/>
			<point x="633" y="803.143"/>
			<point x="608.571" y="759.857" type="curve"/>
			<point x="600.571" y="759.857" type="line"/>
			<point x="572.857" y="806.571"/>
			<point x="535" y="866.143"/>
			<point x="502.429" y="908.857" type="curve"/>
			<point x="439.571" y="996" type="line"/>
			<point x="362.857" y="1091.86"/>
			<point x="294.429" y="1140"/>
			<point x="154.571" y="1140" type="curve" smooth="yes"/>
			<point x="84.7143" y="1140"/>
			<point x="33.4286" y="1125.86"/>
			<point x="0.857143" y="1111.29" type="curve"/>
			<point x="0.857143" y="856" type="line"/>
			<point x="20.8571" y="863.429"/>
			<point x="46.7143" y="867.857"/>
			<point x="73.1429" y="867.857" type="curve" smooth="yes"/>
			<point x="145.143" y="867.857"/>
			<point x="187.571" y="838.143"/>
			<point x="269.429" y="730.714" type="curve"/>
			<point x="389" y="566.857" type="line"/>
			<point x="321.429" y="488.857"/>
			<point x="263.143" y="403.857"/>
			<point x="263.143" y="272.571" type="curve" smooth="yes"/>
			<point x="263.143" y="85.2857"/>
			<point x="389" y="-29.1429"/>
			<point x="597.714" y="-29.1429" type="curve" smooth="yes"/>
			<point x="811.286" y="-29.1429"/>
			<point x="940.857" y="92.1429"/>
			<point x="940.857" y="271.714" type="curve" smooth="yes"/>
			<point x="940.857" y="405.571"/>
			<point x="874.429" y="482"/>
			<point x="799.286" y="571.143" type="curve"/>
			<point x="921.143" y="726.429" type="line"/>
			<point x="1013.29" y="835.286"/>
			<point x="1065.43" y="861.857"/>
			<point x="1137.71" y="861.857" type="curve" smooth="yes"/>
			<point x="1161.57" y="861.857"/>
			<point x="1178.29" y="858.571"/>
			<point x="1195.71" y="854.857" type="curve"/>
			<point x="1195.71" y="1112.14" type="line"/>
			<point x="1161.43" y="1128.14"/>
			<point x="1107.57" y="1140"/>
		</contour>
		<contour>
			<point x="606.571" y="420.429" type="curve"/>
			<point x="655.429" y="359.286"/>
			<point x="675" y="319.571"/>
			<point x="675" y="264.286" type="curve" smooth="yes"/>
			<point x="675" y="221.429"/>
			<point x="651.714" y="183.857"/>
			<point x="605.429" y="183.857" type="curve" smooth="yes"/>
			<point x="562.286" y="183.857"/>
			<point x="537.571" y="218"/>
			<point x="537.571" y="264.571" type="curve" smooth="yes"/>
			<point x="537.571" y="316.143"/>
			<point x="554.571" y="360.429"/>
		</contour>
	</outline>
	<anchor name="bottom" x="598.571" y="0"/>
	<anchor name="top" x="598.571" y="1125.57"/>
</glyph>
